G75*
%MOIN*%
%OFA0B0*%
%FSLAX25Y25*%
%IPPOS*%
%LPD*%
%AMOC8*
5,1,8,0,0,1.08239X$1,22.5*
%
%ADD10C,0.00300*%
%ADD11C,0.00600*%
%ADD12C,0.01000*%
%ADD13C,0.00400*%
%ADD14C,0.00800*%
%ADD15C,0.01414*%
%ADD16R,0.04724X0.00787*%
%ADD17R,0.00787X0.04724*%
%ADD18C,0.00500*%
D10*
X0011447Y0023084D02*
X0012681Y0024318D01*
X0011447Y0025552D01*
X0015150Y0025552D01*
X0015150Y0026767D02*
X0015150Y0029236D01*
X0015150Y0028001D02*
X0011447Y0028001D01*
X0012681Y0026767D01*
X0011447Y0023084D02*
X0015150Y0023084D01*
X0015150Y0053084D02*
X0011447Y0053084D01*
X0012681Y0054318D01*
X0011447Y0055552D01*
X0015150Y0055552D01*
X0015150Y0056767D02*
X0012681Y0059236D01*
X0012064Y0059236D01*
X0011447Y0058618D01*
X0011447Y0057384D01*
X0012064Y0056767D01*
X0015150Y0056767D02*
X0015150Y0059236D01*
X0183447Y0047351D02*
X0183447Y0046117D01*
X0184064Y0045499D01*
X0186533Y0045499D01*
X0187150Y0046117D01*
X0187150Y0047351D01*
X0186533Y0047968D01*
X0185298Y0047968D01*
X0185298Y0046734D01*
X0184064Y0047968D02*
X0183447Y0047351D01*
X0184064Y0044285D02*
X0183447Y0043668D01*
X0183447Y0042433D01*
X0184064Y0041816D01*
X0186533Y0041816D01*
X0187150Y0042433D01*
X0187150Y0043668D01*
X0186533Y0044285D01*
X0184064Y0044285D01*
X0184064Y0040602D02*
X0185298Y0040602D01*
X0185916Y0039985D01*
X0185916Y0038133D01*
X0187150Y0038133D02*
X0183447Y0038133D01*
X0183447Y0039985D01*
X0184064Y0040602D01*
X0185916Y0039368D02*
X0187150Y0040602D01*
X0185298Y0036919D02*
X0184064Y0036919D01*
X0183447Y0036302D01*
X0183447Y0034450D01*
X0187150Y0034450D01*
X0185916Y0034450D02*
X0185916Y0036302D01*
X0185298Y0036919D01*
X0186533Y0078450D02*
X0183447Y0078450D01*
X0183447Y0080919D02*
X0186533Y0080919D01*
X0187150Y0080302D01*
X0187150Y0079067D01*
X0186533Y0078450D01*
X0187150Y0082133D02*
X0184681Y0082133D01*
X0183447Y0083368D01*
X0184681Y0084602D01*
X0187150Y0084602D01*
X0187150Y0085816D02*
X0183447Y0085816D01*
X0183447Y0087668D01*
X0184064Y0088285D01*
X0185298Y0088285D01*
X0185916Y0087668D01*
X0185916Y0085816D01*
X0185916Y0087051D02*
X0187150Y0088285D01*
X0187150Y0090734D02*
X0183447Y0090734D01*
X0183447Y0091968D02*
X0183447Y0089499D01*
X0185298Y0084602D02*
X0185298Y0082133D01*
D11*
X0035300Y0041300D02*
X0009300Y0041300D01*
D12*
X0009800Y0011300D02*
X0017300Y0011300D01*
X0017300Y0071300D01*
X0034800Y0071300D01*
X0034800Y0011300D01*
X0017300Y0011300D01*
X0009800Y0011300D02*
X0009800Y0071300D01*
X0017300Y0071300D01*
X0017300Y0075300D02*
X0017300Y0095300D01*
X0034800Y0095300D01*
X0034800Y0075300D01*
X0017300Y0075300D01*
X0009800Y0075300D01*
X0009800Y0095300D01*
X0017300Y0095300D01*
X0091916Y0049300D02*
X0091918Y0049367D01*
X0091924Y0049433D01*
X0091934Y0049499D01*
X0091948Y0049564D01*
X0091965Y0049628D01*
X0091987Y0049691D01*
X0092012Y0049753D01*
X0092041Y0049813D01*
X0092074Y0049871D01*
X0092109Y0049927D01*
X0092149Y0049981D01*
X0092191Y0050032D01*
X0092236Y0050081D01*
X0092284Y0050127D01*
X0092335Y0050170D01*
X0092388Y0050210D01*
X0092444Y0050247D01*
X0092502Y0050280D01*
X0092561Y0050310D01*
X0092622Y0050336D01*
X0092685Y0050359D01*
X0092749Y0050377D01*
X0092814Y0050392D01*
X0092880Y0050403D01*
X0092946Y0050410D01*
X0093012Y0050413D01*
X0093079Y0050412D01*
X0093145Y0050407D01*
X0093211Y0050398D01*
X0093277Y0050385D01*
X0093341Y0050368D01*
X0093404Y0050348D01*
X0093466Y0050323D01*
X0093527Y0050295D01*
X0093586Y0050264D01*
X0093642Y0050229D01*
X0093697Y0050191D01*
X0093749Y0050149D01*
X0093798Y0050104D01*
X0093845Y0050057D01*
X0093889Y0050007D01*
X0093929Y0049954D01*
X0093967Y0049899D01*
X0094001Y0049842D01*
X0094032Y0049783D01*
X0094059Y0049722D01*
X0094082Y0049660D01*
X0094102Y0049596D01*
X0094118Y0049531D01*
X0094130Y0049466D01*
X0094138Y0049400D01*
X0094142Y0049333D01*
X0094142Y0049267D01*
X0094138Y0049200D01*
X0094130Y0049134D01*
X0094118Y0049069D01*
X0094102Y0049004D01*
X0094082Y0048940D01*
X0094059Y0048878D01*
X0094032Y0048817D01*
X0094001Y0048758D01*
X0093967Y0048701D01*
X0093929Y0048646D01*
X0093889Y0048593D01*
X0093845Y0048543D01*
X0093798Y0048496D01*
X0093749Y0048451D01*
X0093697Y0048409D01*
X0093642Y0048371D01*
X0093585Y0048336D01*
X0093527Y0048305D01*
X0093466Y0048277D01*
X0093404Y0048252D01*
X0093341Y0048232D01*
X0093277Y0048215D01*
X0093211Y0048202D01*
X0093145Y0048193D01*
X0093079Y0048188D01*
X0093012Y0048187D01*
X0092946Y0048190D01*
X0092880Y0048197D01*
X0092814Y0048208D01*
X0092749Y0048223D01*
X0092685Y0048241D01*
X0092622Y0048264D01*
X0092561Y0048290D01*
X0092502Y0048320D01*
X0092444Y0048353D01*
X0092388Y0048390D01*
X0092335Y0048430D01*
X0092284Y0048473D01*
X0092236Y0048519D01*
X0092191Y0048568D01*
X0092149Y0048619D01*
X0092109Y0048673D01*
X0092074Y0048729D01*
X0092041Y0048787D01*
X0092012Y0048847D01*
X0091987Y0048909D01*
X0091965Y0048972D01*
X0091948Y0049036D01*
X0091934Y0049101D01*
X0091924Y0049167D01*
X0091918Y0049233D01*
X0091916Y0049300D01*
X0163800Y0071300D02*
X0163800Y0011300D01*
X0181300Y0011300D01*
X0181300Y0071300D01*
X0188800Y0071300D01*
X0188800Y0011300D01*
X0181300Y0011300D01*
X0181300Y0071300D02*
X0163800Y0071300D01*
X0163800Y0075300D02*
X0163800Y0095300D01*
X0181300Y0095300D01*
X0181300Y0075300D01*
X0163800Y0075300D01*
X0181300Y0075300D02*
X0188800Y0075300D01*
X0188800Y0095300D01*
X0181300Y0095300D01*
D13*
X0167333Y0080465D02*
X0164263Y0080465D01*
X0163496Y0079698D01*
X0163496Y0078163D01*
X0164263Y0077396D01*
X0165031Y0077396D01*
X0165798Y0078163D01*
X0165798Y0080465D01*
X0167333Y0080465D02*
X0168100Y0079698D01*
X0168100Y0078163D01*
X0167333Y0077396D01*
X0168100Y0075861D02*
X0166565Y0074327D01*
X0166565Y0075094D02*
X0166565Y0072792D01*
X0168100Y0072792D02*
X0163496Y0072792D01*
X0163496Y0075094D01*
X0164263Y0075861D01*
X0165798Y0075861D01*
X0166565Y0075094D01*
X0152484Y0066179D02*
X0152484Y0065094D01*
X0153570Y0065094D01*
X0154112Y0064551D01*
X0154112Y0063466D01*
X0153027Y0062381D01*
X0151942Y0062381D01*
X0150857Y0061296D02*
X0150857Y0060211D01*
X0149772Y0059125D01*
X0148686Y0059125D01*
X0146516Y0061296D01*
X0146516Y0062381D01*
X0147601Y0063466D01*
X0148686Y0063466D01*
X0149772Y0064551D02*
X0149771Y0065636D01*
X0150857Y0066721D01*
X0151942Y0066721D01*
X0152484Y0066179D01*
X0152484Y0065094D02*
X0151942Y0064551D01*
X0146484Y0067838D02*
X0145942Y0068381D01*
X0145942Y0072721D01*
X0145399Y0073264D01*
X0143229Y0071094D01*
X0142686Y0069466D02*
X0141601Y0069466D01*
X0140516Y0068381D01*
X0140516Y0067296D01*
X0142686Y0065125D01*
X0143772Y0065125D01*
X0144857Y0066211D01*
X0144857Y0067296D01*
X0148496Y0094000D02*
X0148496Y0096302D01*
X0149263Y0097069D01*
X0150798Y0097069D01*
X0151565Y0096302D01*
X0151565Y0094000D01*
X0151565Y0095535D02*
X0153100Y0097069D01*
X0153100Y0098604D02*
X0152333Y0098604D01*
X0149263Y0101673D01*
X0148496Y0101673D01*
X0148496Y0098604D01*
X0148496Y0094000D02*
X0153100Y0094000D01*
X0092675Y0076577D02*
X0092675Y0075491D01*
X0092132Y0074949D01*
X0091047Y0074949D01*
X0089962Y0076034D01*
X0089962Y0077119D01*
X0090505Y0077662D01*
X0091590Y0077662D01*
X0092675Y0076577D01*
X0089962Y0076034D02*
X0088877Y0076034D01*
X0088334Y0075491D01*
X0088334Y0074406D01*
X0089420Y0073321D01*
X0090505Y0073321D01*
X0091047Y0073864D01*
X0091047Y0074949D01*
X0087249Y0076577D02*
X0086164Y0076577D01*
X0085079Y0077662D01*
X0085079Y0078747D01*
X0087249Y0080917D01*
X0088334Y0080917D01*
X0089420Y0079832D01*
X0089420Y0078747D01*
X0055100Y0096059D02*
X0054333Y0095292D01*
X0051263Y0095292D01*
X0050496Y0096059D01*
X0050496Y0097594D01*
X0051263Y0098361D01*
X0052031Y0099896D02*
X0050496Y0101431D01*
X0055100Y0101431D01*
X0055100Y0102965D02*
X0055100Y0099896D01*
X0054333Y0098361D02*
X0055100Y0097594D01*
X0055100Y0096059D01*
X0051198Y0089104D02*
X0049663Y0089104D01*
X0048896Y0088337D01*
X0047361Y0088337D02*
X0046594Y0089104D01*
X0045059Y0089104D01*
X0044292Y0088337D01*
X0044292Y0085267D01*
X0045059Y0084500D01*
X0046594Y0084500D01*
X0047361Y0085267D01*
X0048896Y0084500D02*
X0051965Y0087569D01*
X0051965Y0088337D01*
X0051198Y0089104D01*
X0051965Y0084500D02*
X0048896Y0084500D01*
X0015100Y0085585D02*
X0012698Y0085585D01*
X0011497Y0084384D01*
X0012698Y0083183D01*
X0015100Y0083183D01*
X0014499Y0081902D02*
X0015100Y0081302D01*
X0015100Y0079500D01*
X0011497Y0079500D01*
X0011497Y0081302D01*
X0012097Y0081902D01*
X0012698Y0081902D01*
X0013298Y0081302D01*
X0013298Y0079500D01*
X0013298Y0081302D02*
X0013899Y0081902D01*
X0014499Y0081902D01*
X0013298Y0083183D02*
X0013298Y0085585D01*
X0011497Y0086866D02*
X0011497Y0089268D01*
X0011497Y0088067D02*
X0015100Y0088067D01*
X0011497Y0090549D02*
X0011497Y0092951D01*
X0011497Y0091750D02*
X0015100Y0091750D01*
X0088023Y0024675D02*
X0088023Y0021420D01*
X0090194Y0023590D01*
X0091279Y0021420D02*
X0088023Y0024675D01*
X0085853Y0021420D02*
X0084768Y0021420D01*
X0083683Y0020334D01*
X0083683Y0019249D01*
X0085853Y0017079D01*
X0086938Y0017079D01*
X0088023Y0018164D01*
X0088023Y0019249D01*
X0112496Y0014906D02*
X0112496Y0013371D01*
X0113263Y0012604D01*
X0114031Y0012604D01*
X0114798Y0013371D01*
X0114798Y0014906D01*
X0115565Y0015673D01*
X0116333Y0015673D01*
X0117100Y0014906D01*
X0117100Y0013371D01*
X0116333Y0012604D01*
X0115565Y0012604D01*
X0114798Y0013371D01*
X0114798Y0014906D02*
X0114031Y0015673D01*
X0113263Y0015673D01*
X0112496Y0014906D01*
X0113263Y0011069D02*
X0112496Y0010302D01*
X0112496Y0008000D01*
X0117100Y0008000D01*
X0115565Y0008000D02*
X0115565Y0010302D01*
X0114798Y0011069D01*
X0113263Y0011069D01*
X0115565Y0009535D02*
X0117100Y0011069D01*
X0128125Y0016828D02*
X0129211Y0015743D01*
X0130296Y0015743D01*
X0131381Y0014658D02*
X0131381Y0013573D01*
X0132466Y0012488D01*
X0133551Y0012488D01*
X0134636Y0013573D01*
X0134636Y0014658D01*
X0134094Y0015201D01*
X0132466Y0015743D01*
X0134094Y0017371D01*
X0136264Y0015201D01*
X0132466Y0017914D02*
X0132466Y0018999D01*
X0131381Y0020084D01*
X0130296Y0020084D01*
X0128125Y0017914D01*
X0128125Y0016828D01*
X0142381Y0023573D02*
X0142381Y0024658D01*
X0143466Y0025743D01*
X0145094Y0024116D01*
X0145094Y0023030D01*
X0144551Y0022488D01*
X0143466Y0022488D01*
X0142381Y0023573D01*
X0143466Y0025743D02*
X0145636Y0025743D01*
X0147264Y0025201D01*
X0143466Y0027914D02*
X0143466Y0028999D01*
X0142381Y0030084D01*
X0141296Y0030084D01*
X0139125Y0027914D01*
X0139125Y0026828D01*
X0140211Y0025743D01*
X0141296Y0025743D01*
D14*
X0140912Y0048186D02*
X0116414Y0023688D01*
X0114186Y0023688D01*
X0089688Y0048186D01*
X0089688Y0050414D01*
X0114186Y0074912D01*
X0116414Y0074912D01*
X0140912Y0050414D01*
X0140912Y0048186D01*
X0050253Y0042788D02*
X0044347Y0042788D01*
X0044347Y0040812D02*
X0050253Y0040812D01*
X0050253Y0029788D02*
X0044347Y0029788D01*
X0044347Y0027812D02*
X0050253Y0027812D01*
X0050253Y0016788D02*
X0044347Y0016788D01*
X0044347Y0014812D02*
X0050253Y0014812D01*
X0050253Y0003788D02*
X0044347Y0003788D01*
X0044347Y0053812D02*
X0050253Y0053812D01*
X0050253Y0055788D02*
X0044347Y0055788D01*
X0044347Y0066812D02*
X0050253Y0066812D01*
X0050253Y0068788D02*
X0044347Y0068788D01*
X0044347Y0079812D02*
X0050253Y0079812D01*
D15*
X0048800Y0070300D03*
X0048800Y0057300D03*
X0048800Y0044300D03*
X0048800Y0031300D03*
X0048800Y0018300D03*
X0048800Y0005300D03*
D16*
G36*
X0101519Y0036355D02*
X0098179Y0033015D01*
X0097623Y0033571D01*
X0100963Y0036911D01*
X0101519Y0036355D01*
G37*
G36*
X0102911Y0034963D02*
X0099571Y0031623D01*
X0099015Y0032179D01*
X0102355Y0035519D01*
X0102911Y0034963D01*
G37*
G36*
X0104303Y0033571D02*
X0100963Y0030231D01*
X0100407Y0030787D01*
X0103747Y0034127D01*
X0104303Y0033571D01*
G37*
G36*
X0105695Y0032179D02*
X0102355Y0028839D01*
X0101799Y0029395D01*
X0105139Y0032735D01*
X0105695Y0032179D01*
G37*
G36*
X0107087Y0030787D02*
X0103747Y0027447D01*
X0103191Y0028003D01*
X0106531Y0031343D01*
X0107087Y0030787D01*
G37*
G36*
X0108479Y0029395D02*
X0105139Y0026055D01*
X0104583Y0026611D01*
X0107923Y0029951D01*
X0108479Y0029395D01*
G37*
G36*
X0109871Y0028003D02*
X0106531Y0024663D01*
X0105975Y0025219D01*
X0109315Y0028559D01*
X0109871Y0028003D01*
G37*
G36*
X0111263Y0026611D02*
X0107923Y0023271D01*
X0107367Y0023827D01*
X0110707Y0027167D01*
X0111263Y0026611D01*
G37*
G36*
X0112655Y0025219D02*
X0109315Y0021879D01*
X0108759Y0022435D01*
X0112099Y0025775D01*
X0112655Y0025219D01*
G37*
G36*
X0100127Y0037747D02*
X0096787Y0034407D01*
X0096231Y0034963D01*
X0099571Y0038303D01*
X0100127Y0037747D01*
G37*
G36*
X0098735Y0039139D02*
X0095395Y0035799D01*
X0094839Y0036355D01*
X0098179Y0039695D01*
X0098735Y0039139D01*
G37*
G36*
X0097343Y0040531D02*
X0094003Y0037191D01*
X0093447Y0037747D01*
X0096787Y0041087D01*
X0097343Y0040531D01*
G37*
G36*
X0095951Y0041923D02*
X0092611Y0038583D01*
X0092055Y0039139D01*
X0095395Y0042479D01*
X0095951Y0041923D01*
G37*
G36*
X0094559Y0043315D02*
X0091219Y0039975D01*
X0090663Y0040531D01*
X0094003Y0043871D01*
X0094559Y0043315D01*
G37*
G36*
X0093167Y0044707D02*
X0089827Y0041367D01*
X0089271Y0041923D01*
X0092611Y0045263D01*
X0093167Y0044707D01*
G37*
G36*
X0091775Y0046099D02*
X0088435Y0042759D01*
X0087879Y0043315D01*
X0091219Y0046655D01*
X0091775Y0046099D01*
G37*
G36*
X0130193Y0067813D02*
X0126853Y0064473D01*
X0126297Y0065029D01*
X0129637Y0068369D01*
X0130193Y0067813D01*
G37*
G36*
X0128801Y0069205D02*
X0125461Y0065865D01*
X0124905Y0066421D01*
X0128245Y0069761D01*
X0128801Y0069205D01*
G37*
G36*
X0127409Y0070597D02*
X0124069Y0067257D01*
X0123513Y0067813D01*
X0126853Y0071153D01*
X0127409Y0070597D01*
G37*
G36*
X0126017Y0071989D02*
X0122677Y0068649D01*
X0122121Y0069205D01*
X0125461Y0072545D01*
X0126017Y0071989D01*
G37*
G36*
X0124625Y0073381D02*
X0121285Y0070041D01*
X0120729Y0070597D01*
X0124069Y0073937D01*
X0124625Y0073381D01*
G37*
G36*
X0123233Y0074773D02*
X0119893Y0071433D01*
X0119337Y0071989D01*
X0122677Y0075329D01*
X0123233Y0074773D01*
G37*
G36*
X0121841Y0076165D02*
X0118501Y0072825D01*
X0117945Y0073381D01*
X0121285Y0076721D01*
X0121841Y0076165D01*
G37*
G36*
X0131585Y0066421D02*
X0128245Y0063081D01*
X0127689Y0063637D01*
X0131029Y0066977D01*
X0131585Y0066421D01*
G37*
G36*
X0132977Y0065029D02*
X0129637Y0061689D01*
X0129081Y0062245D01*
X0132421Y0065585D01*
X0132977Y0065029D01*
G37*
G36*
X0134369Y0063637D02*
X0131029Y0060297D01*
X0130473Y0060853D01*
X0133813Y0064193D01*
X0134369Y0063637D01*
G37*
G36*
X0135761Y0062245D02*
X0132421Y0058905D01*
X0131865Y0059461D01*
X0135205Y0062801D01*
X0135761Y0062245D01*
G37*
G36*
X0137153Y0060853D02*
X0133813Y0057513D01*
X0133257Y0058069D01*
X0136597Y0061409D01*
X0137153Y0060853D01*
G37*
G36*
X0138545Y0059461D02*
X0135205Y0056121D01*
X0134649Y0056677D01*
X0137989Y0060017D01*
X0138545Y0059461D01*
G37*
G36*
X0139937Y0058069D02*
X0136597Y0054729D01*
X0136041Y0055285D01*
X0139381Y0058625D01*
X0139937Y0058069D01*
G37*
G36*
X0141329Y0056677D02*
X0137989Y0053337D01*
X0137433Y0053893D01*
X0140773Y0057233D01*
X0141329Y0056677D01*
G37*
G36*
X0142721Y0055285D02*
X0139381Y0051945D01*
X0138825Y0052501D01*
X0142165Y0055841D01*
X0142721Y0055285D01*
G37*
D17*
G36*
X0142721Y0043315D02*
X0142165Y0042759D01*
X0138825Y0046099D01*
X0139381Y0046655D01*
X0142721Y0043315D01*
G37*
G36*
X0141329Y0041923D02*
X0140773Y0041367D01*
X0137433Y0044707D01*
X0137989Y0045263D01*
X0141329Y0041923D01*
G37*
G36*
X0139937Y0040531D02*
X0139381Y0039975D01*
X0136041Y0043315D01*
X0136597Y0043871D01*
X0139937Y0040531D01*
G37*
G36*
X0138545Y0039139D02*
X0137989Y0038583D01*
X0134649Y0041923D01*
X0135205Y0042479D01*
X0138545Y0039139D01*
G37*
G36*
X0137153Y0037747D02*
X0136597Y0037191D01*
X0133257Y0040531D01*
X0133813Y0041087D01*
X0137153Y0037747D01*
G37*
G36*
X0135761Y0036355D02*
X0135205Y0035799D01*
X0131865Y0039139D01*
X0132421Y0039695D01*
X0135761Y0036355D01*
G37*
G36*
X0134369Y0034963D02*
X0133813Y0034407D01*
X0130473Y0037747D01*
X0131029Y0038303D01*
X0134369Y0034963D01*
G37*
G36*
X0132977Y0033571D02*
X0132421Y0033015D01*
X0129081Y0036355D01*
X0129637Y0036911D01*
X0132977Y0033571D01*
G37*
G36*
X0131585Y0032179D02*
X0131029Y0031623D01*
X0127689Y0034963D01*
X0128245Y0035519D01*
X0131585Y0032179D01*
G37*
G36*
X0130193Y0030787D02*
X0129637Y0030231D01*
X0126297Y0033571D01*
X0126853Y0034127D01*
X0130193Y0030787D01*
G37*
G36*
X0128801Y0029395D02*
X0128245Y0028839D01*
X0124905Y0032179D01*
X0125461Y0032735D01*
X0128801Y0029395D01*
G37*
G36*
X0127409Y0028003D02*
X0126853Y0027447D01*
X0123513Y0030787D01*
X0124069Y0031343D01*
X0127409Y0028003D01*
G37*
G36*
X0126017Y0026611D02*
X0125461Y0026055D01*
X0122121Y0029395D01*
X0122677Y0029951D01*
X0126017Y0026611D01*
G37*
G36*
X0124625Y0025219D02*
X0124069Y0024663D01*
X0120729Y0028003D01*
X0121285Y0028559D01*
X0124625Y0025219D01*
G37*
G36*
X0123233Y0023827D02*
X0122677Y0023271D01*
X0119337Y0026611D01*
X0119893Y0027167D01*
X0123233Y0023827D01*
G37*
G36*
X0121841Y0022435D02*
X0121285Y0021879D01*
X0117945Y0025219D01*
X0118501Y0025775D01*
X0121841Y0022435D01*
G37*
G36*
X0091775Y0052501D02*
X0091219Y0051945D01*
X0087879Y0055285D01*
X0088435Y0055841D01*
X0091775Y0052501D01*
G37*
G36*
X0093167Y0053893D02*
X0092611Y0053337D01*
X0089271Y0056677D01*
X0089827Y0057233D01*
X0093167Y0053893D01*
G37*
G36*
X0094559Y0055285D02*
X0094003Y0054729D01*
X0090663Y0058069D01*
X0091219Y0058625D01*
X0094559Y0055285D01*
G37*
G36*
X0095951Y0056677D02*
X0095395Y0056121D01*
X0092055Y0059461D01*
X0092611Y0060017D01*
X0095951Y0056677D01*
G37*
G36*
X0097343Y0058069D02*
X0096787Y0057513D01*
X0093447Y0060853D01*
X0094003Y0061409D01*
X0097343Y0058069D01*
G37*
G36*
X0098735Y0059461D02*
X0098179Y0058905D01*
X0094839Y0062245D01*
X0095395Y0062801D01*
X0098735Y0059461D01*
G37*
G36*
X0100127Y0060853D02*
X0099571Y0060297D01*
X0096231Y0063637D01*
X0096787Y0064193D01*
X0100127Y0060853D01*
G37*
G36*
X0101519Y0062245D02*
X0100963Y0061689D01*
X0097623Y0065029D01*
X0098179Y0065585D01*
X0101519Y0062245D01*
G37*
G36*
X0102911Y0063637D02*
X0102355Y0063081D01*
X0099015Y0066421D01*
X0099571Y0066977D01*
X0102911Y0063637D01*
G37*
G36*
X0104303Y0065029D02*
X0103747Y0064473D01*
X0100407Y0067813D01*
X0100963Y0068369D01*
X0104303Y0065029D01*
G37*
G36*
X0105695Y0066421D02*
X0105139Y0065865D01*
X0101799Y0069205D01*
X0102355Y0069761D01*
X0105695Y0066421D01*
G37*
G36*
X0107087Y0067813D02*
X0106531Y0067257D01*
X0103191Y0070597D01*
X0103747Y0071153D01*
X0107087Y0067813D01*
G37*
G36*
X0108479Y0069205D02*
X0107923Y0068649D01*
X0104583Y0071989D01*
X0105139Y0072545D01*
X0108479Y0069205D01*
G37*
G36*
X0109871Y0070597D02*
X0109315Y0070041D01*
X0105975Y0073381D01*
X0106531Y0073937D01*
X0109871Y0070597D01*
G37*
G36*
X0111263Y0071989D02*
X0110707Y0071433D01*
X0107367Y0074773D01*
X0107923Y0075329D01*
X0111263Y0071989D01*
G37*
G36*
X0112655Y0073381D02*
X0112099Y0072825D01*
X0108759Y0076165D01*
X0109315Y0076721D01*
X0112655Y0073381D01*
G37*
D18*
X0082804Y0082253D02*
X0082804Y0108631D01*
X0068631Y0108631D01*
X0068631Y0082253D01*
X0082804Y0082253D01*
M02*
