G75*
%MOIN*%
%OFA0B0*%
%FSLAX25Y25*%
%IPPOS*%
%LPD*%
%AMOC8*
5,1,8,0,0,1.08239X$1,22.5*
%
%ADD10C,0.00000*%
%ADD11C,0.00400*%
%ADD12C,0.05906*%
%ADD13R,0.05906X0.05118*%
%ADD14R,0.05118X0.05906*%
%ADD15R,0.03898X0.02717*%
%ADD16R,0.04724X0.01181*%
%ADD17R,0.01181X0.04724*%
%ADD18R,0.08465X0.03740*%
%ADD19R,0.08465X0.12795*%
%ADD20C,0.01200*%
%ADD21C,0.02000*%
%ADD22C,0.00600*%
%ADD23C,0.02700*%
%ADD24C,0.01000*%
%ADD25C,0.01500*%
D10*
X0001300Y0001300D02*
X0001300Y0113261D01*
X0197001Y0113261D01*
X0197001Y0001300D01*
X0001300Y0001300D01*
D11*
X0106500Y0103267D02*
X0107267Y0102500D01*
X0108802Y0102500D01*
X0109569Y0103267D01*
X0109569Y0106337D01*
X0108802Y0107104D01*
X0107267Y0107104D01*
X0106500Y0106337D01*
X0106500Y0103267D01*
X0108035Y0104035D02*
X0109569Y0102500D01*
X0111104Y0103267D02*
X0111871Y0102500D01*
X0113406Y0102500D01*
X0114173Y0103267D01*
X0114173Y0104802D01*
X0112639Y0104802D01*
X0111104Y0106337D02*
X0111104Y0103267D01*
X0115708Y0102500D02*
X0118777Y0102500D01*
X0117242Y0102500D02*
X0117242Y0107104D01*
X0115708Y0105569D01*
X0114173Y0106337D02*
X0113406Y0107104D01*
X0111871Y0107104D01*
X0111104Y0106337D01*
X0120312Y0104802D02*
X0120312Y0103267D01*
X0121079Y0102500D01*
X0122614Y0102500D01*
X0123381Y0103267D01*
X0123381Y0104035D01*
X0122614Y0104802D01*
X0120312Y0104802D01*
X0121846Y0106337D01*
X0123381Y0107104D01*
X0124916Y0106337D02*
X0125683Y0107104D01*
X0127218Y0107104D01*
X0127985Y0106337D01*
X0124916Y0103267D01*
X0125683Y0102500D01*
X0127218Y0102500D01*
X0127985Y0103267D01*
X0127985Y0106337D01*
X0124916Y0106337D02*
X0124916Y0103267D01*
X0129520Y0104802D02*
X0132589Y0104802D01*
X0131822Y0107104D02*
X0129520Y0104802D01*
X0131822Y0102500D02*
X0131822Y0107104D01*
D12*
X0173347Y0090300D02*
X0179253Y0090300D01*
X0179253Y0080300D02*
X0173347Y0080300D01*
X0173347Y0066300D02*
X0179253Y0066300D01*
X0179253Y0056300D02*
X0173347Y0056300D01*
X0173347Y0046300D02*
X0179253Y0046300D01*
X0179253Y0036300D02*
X0173347Y0036300D01*
X0173347Y0026300D02*
X0179253Y0026300D01*
X0179253Y0016300D02*
X0173347Y0016300D01*
X0025253Y0016300D02*
X0019347Y0016300D01*
X0019347Y0026300D02*
X0025253Y0026300D01*
X0025253Y0036300D02*
X0019347Y0036300D01*
X0019347Y0046300D02*
X0025253Y0046300D01*
X0025253Y0056300D02*
X0019347Y0056300D01*
X0019347Y0066300D02*
X0025253Y0066300D01*
X0025253Y0080300D02*
X0019347Y0080300D01*
X0019347Y0090300D02*
X0025253Y0090300D01*
D13*
X0052300Y0096560D03*
X0052300Y0104040D03*
X0158300Y0100040D03*
X0158300Y0092560D03*
X0158300Y0083040D03*
X0158300Y0075560D03*
X0115300Y0016040D03*
X0115300Y0008560D03*
D14*
G36*
X0129377Y0015048D02*
X0125758Y0018667D01*
X0129933Y0022842D01*
X0133552Y0019223D01*
X0129377Y0015048D01*
G37*
G36*
X0134667Y0009758D02*
X0131048Y0013377D01*
X0135223Y0017552D01*
X0138842Y0013933D01*
X0134667Y0009758D01*
G37*
G36*
X0144667Y0019758D02*
X0141048Y0023377D01*
X0145223Y0027552D01*
X0148842Y0023933D01*
X0144667Y0019758D01*
G37*
G36*
X0139377Y0025048D02*
X0135758Y0028667D01*
X0139933Y0032842D01*
X0143552Y0029223D01*
X0139377Y0025048D01*
G37*
G36*
X0087048Y0025223D02*
X0090667Y0028842D01*
X0094842Y0024667D01*
X0091223Y0021048D01*
X0087048Y0025223D01*
G37*
G36*
X0081758Y0019933D02*
X0085377Y0023552D01*
X0089552Y0019377D01*
X0085933Y0015758D01*
X0081758Y0019933D01*
G37*
X0069040Y0022300D03*
X0061560Y0022300D03*
X0061560Y0009300D03*
X0069040Y0009300D03*
X0069040Y0035300D03*
X0061560Y0035300D03*
X0061560Y0048300D03*
X0069040Y0048300D03*
X0069040Y0061300D03*
X0061560Y0061300D03*
X0061560Y0074300D03*
X0069040Y0074300D03*
G36*
X0086933Y0082842D02*
X0090552Y0079223D01*
X0086377Y0075048D01*
X0082758Y0078667D01*
X0086933Y0082842D01*
G37*
G36*
X0092223Y0077552D02*
X0095842Y0073933D01*
X0091667Y0069758D01*
X0088048Y0073377D01*
X0092223Y0077552D01*
G37*
X0052040Y0087300D03*
X0044560Y0087300D03*
G36*
X0145552Y0066377D02*
X0141933Y0062758D01*
X0137758Y0066933D01*
X0141377Y0070552D01*
X0145552Y0066377D01*
G37*
G36*
X0150842Y0071667D02*
X0147223Y0068048D01*
X0143048Y0072223D01*
X0146667Y0075842D01*
X0150842Y0071667D01*
G37*
G36*
X0156842Y0065667D02*
X0153223Y0062048D01*
X0149048Y0066223D01*
X0152667Y0069842D01*
X0156842Y0065667D01*
G37*
G36*
X0151552Y0060377D02*
X0147933Y0056758D01*
X0143758Y0060933D01*
X0147377Y0064552D01*
X0151552Y0060377D01*
G37*
D15*
X0052418Y0061300D03*
X0052418Y0057560D03*
X0052418Y0052040D03*
X0052418Y0048300D03*
X0052418Y0044560D03*
X0052418Y0039040D03*
X0052418Y0035300D03*
X0052418Y0031560D03*
X0052418Y0026040D03*
X0052418Y0022300D03*
X0052418Y0018560D03*
X0052418Y0013040D03*
X0052418Y0009300D03*
X0052418Y0005560D03*
X0042182Y0005560D03*
X0042182Y0009300D03*
X0042182Y0013040D03*
X0042182Y0018560D03*
X0042182Y0022300D03*
X0042182Y0026040D03*
X0042182Y0031560D03*
X0042182Y0035300D03*
X0042182Y0039040D03*
X0042182Y0044560D03*
X0042182Y0048300D03*
X0042182Y0052040D03*
X0042182Y0057560D03*
X0042182Y0061300D03*
X0042182Y0065040D03*
X0042182Y0070560D03*
X0042182Y0074300D03*
X0042182Y0078040D03*
X0052418Y0078040D03*
X0052418Y0074300D03*
X0052418Y0070560D03*
X0052418Y0065040D03*
D16*
G36*
X0091079Y0045123D02*
X0087740Y0041784D01*
X0086905Y0042619D01*
X0090244Y0045958D01*
X0091079Y0045123D01*
G37*
G36*
X0092471Y0043731D02*
X0089132Y0040392D01*
X0088297Y0041227D01*
X0091636Y0044566D01*
X0092471Y0043731D01*
G37*
G36*
X0093863Y0042340D02*
X0090524Y0039001D01*
X0089689Y0039836D01*
X0093028Y0043175D01*
X0093863Y0042340D01*
G37*
G36*
X0095255Y0040948D02*
X0091916Y0037609D01*
X0091081Y0038444D01*
X0094420Y0041783D01*
X0095255Y0040948D01*
G37*
G36*
X0096647Y0039556D02*
X0093308Y0036217D01*
X0092473Y0037052D01*
X0095812Y0040391D01*
X0096647Y0039556D01*
G37*
G36*
X0098039Y0038164D02*
X0094700Y0034825D01*
X0093865Y0035660D01*
X0097204Y0038999D01*
X0098039Y0038164D01*
G37*
G36*
X0099431Y0036772D02*
X0096092Y0033433D01*
X0095257Y0034268D01*
X0098596Y0037607D01*
X0099431Y0036772D01*
G37*
G36*
X0100823Y0035380D02*
X0097484Y0032041D01*
X0096649Y0032876D01*
X0099988Y0036215D01*
X0100823Y0035380D01*
G37*
G36*
X0102215Y0033988D02*
X0098876Y0030649D01*
X0098041Y0031484D01*
X0101380Y0034823D01*
X0102215Y0033988D01*
G37*
G36*
X0103607Y0032596D02*
X0100268Y0029257D01*
X0099433Y0030092D01*
X0102772Y0033431D01*
X0103607Y0032596D01*
G37*
G36*
X0104999Y0031204D02*
X0101660Y0027865D01*
X0100825Y0028700D01*
X0104164Y0032039D01*
X0104999Y0031204D01*
G37*
G36*
X0106391Y0029812D02*
X0103052Y0026473D01*
X0102217Y0027308D01*
X0105556Y0030647D01*
X0106391Y0029812D01*
G37*
G36*
X0107783Y0028420D02*
X0104444Y0025081D01*
X0103609Y0025916D01*
X0106948Y0029255D01*
X0107783Y0028420D01*
G37*
G36*
X0109175Y0027028D02*
X0105836Y0023689D01*
X0105001Y0024524D01*
X0108340Y0027863D01*
X0109175Y0027028D01*
G37*
G36*
X0110566Y0025636D02*
X0107227Y0022297D01*
X0106392Y0023132D01*
X0109731Y0026471D01*
X0110566Y0025636D01*
G37*
G36*
X0111958Y0024244D02*
X0108619Y0020905D01*
X0107784Y0021740D01*
X0111123Y0025079D01*
X0111958Y0024244D01*
G37*
G36*
X0143695Y0055981D02*
X0140356Y0052642D01*
X0139521Y0053477D01*
X0142860Y0056816D01*
X0143695Y0055981D01*
G37*
G36*
X0142303Y0057373D02*
X0138964Y0054034D01*
X0138129Y0054869D01*
X0141468Y0058208D01*
X0142303Y0057373D01*
G37*
G36*
X0140911Y0058764D02*
X0137572Y0055425D01*
X0136737Y0056260D01*
X0140076Y0059599D01*
X0140911Y0058764D01*
G37*
G36*
X0139519Y0060156D02*
X0136180Y0056817D01*
X0135345Y0057652D01*
X0138684Y0060991D01*
X0139519Y0060156D01*
G37*
G36*
X0138127Y0061548D02*
X0134788Y0058209D01*
X0133953Y0059044D01*
X0137292Y0062383D01*
X0138127Y0061548D01*
G37*
G36*
X0136735Y0062940D02*
X0133396Y0059601D01*
X0132561Y0060436D01*
X0135900Y0063775D01*
X0136735Y0062940D01*
G37*
G36*
X0135343Y0064332D02*
X0132004Y0060993D01*
X0131169Y0061828D01*
X0134508Y0065167D01*
X0135343Y0064332D01*
G37*
G36*
X0133951Y0065724D02*
X0130612Y0062385D01*
X0129777Y0063220D01*
X0133116Y0066559D01*
X0133951Y0065724D01*
G37*
G36*
X0132559Y0067116D02*
X0129220Y0063777D01*
X0128385Y0064612D01*
X0131724Y0067951D01*
X0132559Y0067116D01*
G37*
G36*
X0131167Y0068508D02*
X0127828Y0065169D01*
X0126993Y0066004D01*
X0130332Y0069343D01*
X0131167Y0068508D01*
G37*
G36*
X0129775Y0069900D02*
X0126436Y0066561D01*
X0125601Y0067396D01*
X0128940Y0070735D01*
X0129775Y0069900D01*
G37*
G36*
X0128383Y0071292D02*
X0125044Y0067953D01*
X0124209Y0068788D01*
X0127548Y0072127D01*
X0128383Y0071292D01*
G37*
G36*
X0126991Y0072684D02*
X0123652Y0069345D01*
X0122817Y0070180D01*
X0126156Y0073519D01*
X0126991Y0072684D01*
G37*
G36*
X0125599Y0074076D02*
X0122260Y0070737D01*
X0121425Y0071572D01*
X0124764Y0074911D01*
X0125599Y0074076D01*
G37*
G36*
X0124208Y0075468D02*
X0120869Y0072129D01*
X0120034Y0072964D01*
X0123373Y0076303D01*
X0124208Y0075468D01*
G37*
G36*
X0122816Y0076860D02*
X0119477Y0073521D01*
X0118642Y0074356D01*
X0121981Y0077695D01*
X0122816Y0076860D01*
G37*
D17*
G36*
X0111958Y0074356D02*
X0111123Y0073521D01*
X0107784Y0076860D01*
X0108619Y0077695D01*
X0111958Y0074356D01*
G37*
G36*
X0110566Y0072964D02*
X0109731Y0072129D01*
X0106392Y0075468D01*
X0107227Y0076303D01*
X0110566Y0072964D01*
G37*
G36*
X0109175Y0071572D02*
X0108340Y0070737D01*
X0105001Y0074076D01*
X0105836Y0074911D01*
X0109175Y0071572D01*
G37*
G36*
X0107783Y0070180D02*
X0106948Y0069345D01*
X0103609Y0072684D01*
X0104444Y0073519D01*
X0107783Y0070180D01*
G37*
G36*
X0106391Y0068788D02*
X0105556Y0067953D01*
X0102217Y0071292D01*
X0103052Y0072127D01*
X0106391Y0068788D01*
G37*
G36*
X0104999Y0067396D02*
X0104164Y0066561D01*
X0100825Y0069900D01*
X0101660Y0070735D01*
X0104999Y0067396D01*
G37*
G36*
X0103607Y0066004D02*
X0102772Y0065169D01*
X0099433Y0068508D01*
X0100268Y0069343D01*
X0103607Y0066004D01*
G37*
G36*
X0102215Y0064612D02*
X0101380Y0063777D01*
X0098041Y0067116D01*
X0098876Y0067951D01*
X0102215Y0064612D01*
G37*
G36*
X0100823Y0063220D02*
X0099988Y0062385D01*
X0096649Y0065724D01*
X0097484Y0066559D01*
X0100823Y0063220D01*
G37*
G36*
X0099431Y0061828D02*
X0098596Y0060993D01*
X0095257Y0064332D01*
X0096092Y0065167D01*
X0099431Y0061828D01*
G37*
G36*
X0098039Y0060436D02*
X0097204Y0059601D01*
X0093865Y0062940D01*
X0094700Y0063775D01*
X0098039Y0060436D01*
G37*
G36*
X0096647Y0059044D02*
X0095812Y0058209D01*
X0092473Y0061548D01*
X0093308Y0062383D01*
X0096647Y0059044D01*
G37*
G36*
X0095255Y0057652D02*
X0094420Y0056817D01*
X0091081Y0060156D01*
X0091916Y0060991D01*
X0095255Y0057652D01*
G37*
G36*
X0093863Y0056260D02*
X0093028Y0055425D01*
X0089689Y0058764D01*
X0090524Y0059599D01*
X0093863Y0056260D01*
G37*
G36*
X0092471Y0054869D02*
X0091636Y0054034D01*
X0088297Y0057373D01*
X0089132Y0058208D01*
X0092471Y0054869D01*
G37*
G36*
X0091079Y0053477D02*
X0090244Y0052642D01*
X0086905Y0055981D01*
X0087740Y0056816D01*
X0091079Y0053477D01*
G37*
G36*
X0129775Y0028700D02*
X0128940Y0027865D01*
X0125601Y0031204D01*
X0126436Y0032039D01*
X0129775Y0028700D01*
G37*
G36*
X0131167Y0030092D02*
X0130332Y0029257D01*
X0126993Y0032596D01*
X0127828Y0033431D01*
X0131167Y0030092D01*
G37*
G36*
X0132559Y0031484D02*
X0131724Y0030649D01*
X0128385Y0033988D01*
X0129220Y0034823D01*
X0132559Y0031484D01*
G37*
G36*
X0133951Y0032876D02*
X0133116Y0032041D01*
X0129777Y0035380D01*
X0130612Y0036215D01*
X0133951Y0032876D01*
G37*
G36*
X0135343Y0034268D02*
X0134508Y0033433D01*
X0131169Y0036772D01*
X0132004Y0037607D01*
X0135343Y0034268D01*
G37*
G36*
X0136735Y0035660D02*
X0135900Y0034825D01*
X0132561Y0038164D01*
X0133396Y0038999D01*
X0136735Y0035660D01*
G37*
G36*
X0138127Y0037052D02*
X0137292Y0036217D01*
X0133953Y0039556D01*
X0134788Y0040391D01*
X0138127Y0037052D01*
G37*
G36*
X0139519Y0038444D02*
X0138684Y0037609D01*
X0135345Y0040948D01*
X0136180Y0041783D01*
X0139519Y0038444D01*
G37*
G36*
X0140911Y0039836D02*
X0140076Y0039001D01*
X0136737Y0042340D01*
X0137572Y0043175D01*
X0140911Y0039836D01*
G37*
G36*
X0142303Y0041227D02*
X0141468Y0040392D01*
X0138129Y0043731D01*
X0138964Y0044566D01*
X0142303Y0041227D01*
G37*
G36*
X0143695Y0042619D02*
X0142860Y0041784D01*
X0139521Y0045123D01*
X0140356Y0045958D01*
X0143695Y0042619D01*
G37*
G36*
X0128383Y0027308D02*
X0127548Y0026473D01*
X0124209Y0029812D01*
X0125044Y0030647D01*
X0128383Y0027308D01*
G37*
G36*
X0126991Y0025916D02*
X0126156Y0025081D01*
X0122817Y0028420D01*
X0123652Y0029255D01*
X0126991Y0025916D01*
G37*
G36*
X0125599Y0024524D02*
X0124764Y0023689D01*
X0121425Y0027028D01*
X0122260Y0027863D01*
X0125599Y0024524D01*
G37*
G36*
X0124208Y0023132D02*
X0123373Y0022297D01*
X0120034Y0025636D01*
X0120869Y0026471D01*
X0124208Y0023132D01*
G37*
G36*
X0122816Y0021740D02*
X0121981Y0020905D01*
X0118642Y0024244D01*
X0119477Y0025079D01*
X0122816Y0021740D01*
G37*
D18*
X0064300Y0086190D03*
X0064300Y0095245D03*
X0064300Y0104300D03*
D19*
X0087135Y0095245D03*
D20*
X0061560Y0074300D02*
X0057820Y0078040D01*
X0052418Y0078040D01*
X0057820Y0070560D02*
X0061560Y0074300D01*
X0057820Y0070560D02*
X0052418Y0070560D01*
X0052418Y0065040D02*
X0057820Y0065040D01*
X0061560Y0061300D01*
X0057820Y0057560D01*
X0052418Y0057560D01*
X0052418Y0052040D02*
X0057820Y0052040D01*
X0061560Y0048300D01*
X0057820Y0044560D01*
X0052418Y0044560D01*
X0052418Y0039040D02*
X0057820Y0039040D01*
X0061560Y0035300D01*
X0057820Y0031560D01*
X0052418Y0031560D01*
X0052418Y0026040D02*
X0057820Y0026040D01*
X0061560Y0022300D01*
X0057820Y0018560D01*
X0052418Y0018560D01*
X0052418Y0013040D02*
X0057820Y0013040D01*
X0061560Y0009300D01*
X0057820Y0005560D01*
X0052418Y0005560D01*
X0042182Y0005560D02*
X0040922Y0004300D01*
X0033300Y0004300D01*
X0022300Y0015300D01*
X0022300Y0016300D01*
X0029300Y0016300D01*
X0031300Y0014300D01*
X0040922Y0014300D01*
X0042182Y0013040D01*
X0040922Y0017300D02*
X0033300Y0017300D01*
X0024300Y0026300D01*
X0022300Y0026300D01*
X0023300Y0026300D01*
X0025300Y0028300D01*
X0039922Y0028300D01*
X0042182Y0026040D01*
X0041922Y0031300D02*
X0025300Y0031300D01*
X0022300Y0034300D01*
X0022300Y0036300D01*
X0022300Y0037300D01*
X0025300Y0040300D01*
X0040922Y0040300D01*
X0042182Y0039040D01*
X0040922Y0043300D02*
X0036300Y0043300D01*
X0033300Y0046300D01*
X0022300Y0046300D01*
X0023300Y0046300D01*
X0030300Y0053300D01*
X0040922Y0053300D01*
X0042182Y0052040D01*
X0040922Y0056300D02*
X0022300Y0056300D01*
X0031300Y0065300D01*
X0041922Y0065300D01*
X0042182Y0065040D01*
X0039300Y0068300D02*
X0041560Y0070560D01*
X0042182Y0070560D01*
X0039300Y0068300D02*
X0033300Y0068300D01*
X0033300Y0077300D01*
X0034040Y0078040D01*
X0042182Y0078040D01*
X0033300Y0068300D02*
X0024300Y0068300D01*
X0022300Y0066300D01*
X0040922Y0056300D02*
X0042182Y0057560D01*
X0042182Y0044560D02*
X0040922Y0043300D01*
X0042182Y0031560D02*
X0041922Y0031300D01*
X0042182Y0018560D02*
X0040922Y0017300D01*
D21*
X0047300Y0022300D02*
X0052418Y0022300D01*
X0047300Y0022300D02*
X0047300Y0009300D01*
X0052418Y0009300D01*
X0047300Y0022300D02*
X0047300Y0035300D01*
X0052418Y0035300D01*
X0047300Y0035300D02*
X0047300Y0048300D01*
X0052418Y0048300D01*
X0047300Y0048300D02*
X0047300Y0061300D01*
X0052418Y0061300D01*
X0047300Y0061300D02*
X0047300Y0074300D01*
X0052418Y0074300D01*
X0047300Y0074300D02*
X0047300Y0081300D01*
X0037300Y0081300D01*
X0037300Y0098300D01*
X0043300Y0104300D01*
X0052040Y0104300D01*
X0052300Y0104040D01*
X0064040Y0104040D01*
X0064300Y0104300D01*
X0052040Y0087300D02*
X0053150Y0086190D01*
X0064300Y0086190D01*
X0064410Y0086300D01*
X0138300Y0086300D01*
X0152040Y0100040D01*
X0158300Y0100040D01*
X0152300Y0080300D02*
X0146300Y0080300D01*
X0138300Y0072300D01*
X0138300Y0071300D01*
X0138300Y0070011D01*
X0141655Y0066655D01*
X0147655Y0060655D01*
X0158300Y0075560D02*
X0166300Y0067560D01*
X0166300Y0059300D01*
X0169300Y0056300D01*
X0176300Y0056300D01*
X0158300Y0075560D02*
X0155560Y0078300D01*
X0154300Y0078300D01*
X0152300Y0080300D01*
X0139655Y0028945D02*
X0137945Y0028945D01*
X0118300Y0009300D01*
X0116040Y0009300D01*
X0115300Y0008560D01*
X0023300Y0081300D02*
X0022300Y0080300D01*
X0023300Y0081300D02*
X0037300Y0081300D01*
D22*
X0039200Y0083200D02*
X0039200Y0097513D01*
X0044087Y0102400D01*
X0048447Y0102400D01*
X0048447Y0101108D01*
X0048974Y0100581D01*
X0055626Y0100581D01*
X0056153Y0101108D01*
X0056153Y0102140D01*
X0059168Y0102140D01*
X0059168Y0102057D01*
X0059695Y0101530D01*
X0068905Y0101530D01*
X0069432Y0102057D01*
X0069432Y0106543D01*
X0068905Y0107070D01*
X0059695Y0107070D01*
X0059168Y0106543D01*
X0059168Y0105940D01*
X0056153Y0105940D01*
X0056153Y0106972D01*
X0055626Y0107499D01*
X0048974Y0107499D01*
X0048447Y0106972D01*
X0048447Y0106200D01*
X0042513Y0106200D01*
X0036513Y0100200D01*
X0035400Y0099087D01*
X0035400Y0083200D01*
X0027801Y0083200D01*
X0027435Y0083566D01*
X0026019Y0084153D01*
X0018581Y0084153D01*
X0017165Y0083566D01*
X0016081Y0082482D01*
X0015494Y0081066D01*
X0015494Y0079534D01*
X0016081Y0078118D01*
X0017165Y0077034D01*
X0018581Y0076447D01*
X0026019Y0076447D01*
X0027435Y0077034D01*
X0028519Y0078118D01*
X0029050Y0079400D01*
X0033279Y0079400D01*
X0032540Y0078661D01*
X0031800Y0077921D01*
X0031800Y0069800D01*
X0026871Y0069800D01*
X0026019Y0070153D01*
X0018581Y0070153D01*
X0017165Y0069566D01*
X0016081Y0068482D01*
X0015494Y0067066D01*
X0015494Y0065534D01*
X0016081Y0064118D01*
X0017165Y0063034D01*
X0018581Y0062447D01*
X0026019Y0062447D01*
X0026543Y0062664D01*
X0024031Y0060153D01*
X0018581Y0060153D01*
X0017165Y0059566D01*
X0016081Y0058482D01*
X0015494Y0057066D01*
X0015494Y0055534D01*
X0016081Y0054118D01*
X0017165Y0053034D01*
X0018581Y0052447D01*
X0026019Y0052447D01*
X0027435Y0053034D01*
X0028519Y0054118D01*
X0028802Y0054800D01*
X0041543Y0054800D01*
X0029679Y0054800D01*
X0025031Y0050153D01*
X0018581Y0050153D01*
X0017165Y0049566D01*
X0016081Y0048482D01*
X0015494Y0047066D01*
X0015494Y0045534D01*
X0016081Y0044118D01*
X0017165Y0043034D01*
X0018581Y0042447D01*
X0026019Y0042447D01*
X0027435Y0043034D01*
X0028519Y0044118D01*
X0028802Y0044800D01*
X0032679Y0044800D01*
X0035679Y0041800D01*
X0041543Y0041800D01*
X0024679Y0041800D01*
X0023031Y0040153D01*
X0018581Y0040153D01*
X0017165Y0039566D01*
X0016081Y0038482D01*
X0015494Y0037066D01*
X0015494Y0035534D01*
X0016081Y0034118D01*
X0017165Y0033034D01*
X0018581Y0032447D01*
X0022031Y0032447D01*
X0024326Y0030153D01*
X0018581Y0030153D01*
X0017165Y0029566D01*
X0016081Y0028482D01*
X0015494Y0027066D01*
X0015494Y0025534D01*
X0016081Y0024118D01*
X0017165Y0023034D01*
X0018581Y0022447D01*
X0026019Y0022447D01*
X0026028Y0022451D01*
X0032679Y0015800D01*
X0041543Y0015800D01*
X0031921Y0015800D01*
X0030800Y0016921D01*
X0029921Y0017800D01*
X0028802Y0017800D01*
X0028519Y0018482D01*
X0027435Y0019566D01*
X0026019Y0020153D01*
X0018581Y0020153D01*
X0017165Y0019566D01*
X0016081Y0018482D01*
X0015494Y0017066D01*
X0015494Y0015534D01*
X0016081Y0014118D01*
X0017165Y0013034D01*
X0018581Y0012447D01*
X0023031Y0012447D01*
X0032379Y0003100D01*
X0003100Y0003100D01*
X0003100Y0111300D01*
X0195201Y0111300D01*
X0195201Y0003100D01*
X0041843Y0003100D01*
X0042045Y0003302D01*
X0044503Y0003302D01*
X0045031Y0003829D01*
X0045031Y0007003D01*
X0045171Y0007144D01*
X0045342Y0007440D01*
X0045431Y0007771D01*
X0045431Y0008482D01*
X0045431Y0008482D01*
X0046513Y0007400D01*
X0049678Y0007400D01*
X0049569Y0007291D01*
X0049569Y0003829D01*
X0050096Y0003302D01*
X0054740Y0003302D01*
X0055267Y0003829D01*
X0055267Y0004060D01*
X0058441Y0004060D01*
X0059828Y0005447D01*
X0064492Y0005447D01*
X0065019Y0005974D01*
X0065019Y0012626D01*
X0064492Y0013153D01*
X0059828Y0013153D01*
X0058441Y0014540D01*
X0055267Y0014540D01*
X0055267Y0014771D01*
X0054740Y0015298D01*
X0050096Y0015298D01*
X0049569Y0014771D01*
X0049569Y0011309D01*
X0049678Y0011200D01*
X0049200Y0011200D01*
X0049200Y0020400D01*
X0049678Y0020400D01*
X0049569Y0020291D01*
X0049569Y0016829D01*
X0050096Y0016302D01*
X0054740Y0016302D01*
X0055267Y0016829D01*
X0055267Y0017060D01*
X0058441Y0017060D01*
X0059828Y0018447D01*
X0064492Y0018447D01*
X0065019Y0018974D01*
X0065019Y0025626D01*
X0064492Y0026153D01*
X0059828Y0026153D01*
X0058441Y0027540D01*
X0055267Y0027540D01*
X0055267Y0027771D01*
X0054740Y0028298D01*
X0050096Y0028298D01*
X0049569Y0027771D01*
X0049569Y0024309D01*
X0049678Y0024200D01*
X0049200Y0024200D01*
X0049200Y0033400D01*
X0049678Y0033400D01*
X0049569Y0033291D01*
X0049569Y0029829D01*
X0050096Y0029302D01*
X0054740Y0029302D01*
X0055267Y0029829D01*
X0055267Y0030060D01*
X0058441Y0030060D01*
X0059828Y0031447D01*
X0064492Y0031447D01*
X0065019Y0031974D01*
X0065019Y0038626D01*
X0064492Y0039153D01*
X0059828Y0039153D01*
X0058441Y0040540D01*
X0055267Y0040540D01*
X0055267Y0040771D01*
X0054740Y0041298D01*
X0050096Y0041298D01*
X0049569Y0040771D01*
X0049569Y0037309D01*
X0049678Y0037200D01*
X0049200Y0037200D01*
X0049200Y0046400D01*
X0049678Y0046400D01*
X0049569Y0046291D01*
X0049569Y0042829D01*
X0050096Y0042302D01*
X0054740Y0042302D01*
X0055267Y0042829D01*
X0055267Y0043060D01*
X0058441Y0043060D01*
X0059828Y0044447D01*
X0064492Y0044447D01*
X0065019Y0044974D01*
X0065019Y0051626D01*
X0064492Y0052153D01*
X0059828Y0052153D01*
X0059320Y0052661D01*
X0059320Y0052661D01*
X0058441Y0053540D01*
X0055267Y0053540D01*
X0055267Y0053771D01*
X0054740Y0054298D01*
X0050096Y0054298D01*
X0049569Y0053771D01*
X0049569Y0050309D01*
X0049678Y0050200D01*
X0049200Y0050200D01*
X0049200Y0059400D01*
X0049678Y0059400D01*
X0049569Y0059291D01*
X0049569Y0055829D01*
X0050096Y0055302D01*
X0054740Y0055302D01*
X0055267Y0055829D01*
X0055267Y0056060D01*
X0058441Y0056060D01*
X0059828Y0057447D01*
X0064492Y0057447D01*
X0065019Y0057974D01*
X0065019Y0064626D01*
X0064492Y0065153D01*
X0059828Y0065153D01*
X0058441Y0066540D01*
X0055267Y0066540D01*
X0055267Y0066771D01*
X0054740Y0067298D01*
X0050096Y0067298D01*
X0049569Y0066771D01*
X0049569Y0063309D01*
X0049678Y0063200D01*
X0049200Y0063200D01*
X0049200Y0072400D01*
X0049678Y0072400D01*
X0049569Y0072291D01*
X0049569Y0068829D01*
X0050096Y0068302D01*
X0054740Y0068302D01*
X0055267Y0068829D01*
X0055267Y0069060D01*
X0058441Y0069060D01*
X0059828Y0070447D01*
X0064492Y0070447D01*
X0065019Y0070974D01*
X0065019Y0077626D01*
X0064492Y0078153D01*
X0059828Y0078153D01*
X0058441Y0079540D01*
X0055267Y0079540D01*
X0055267Y0079771D01*
X0054740Y0080298D01*
X0050096Y0080298D01*
X0049569Y0079771D01*
X0049569Y0076309D01*
X0049678Y0076200D01*
X0049200Y0076200D01*
X0049200Y0082087D01*
X0048087Y0083200D01*
X0047732Y0083200D01*
X0047917Y0083307D01*
X0048159Y0083549D01*
X0048330Y0083845D01*
X0048419Y0084176D01*
X0048419Y0087000D01*
X0044860Y0087000D01*
X0044860Y0087600D01*
X0048419Y0087600D01*
X0048419Y0090424D01*
X0048330Y0090755D01*
X0048159Y0091051D01*
X0047917Y0091293D01*
X0047621Y0091464D01*
X0047290Y0091553D01*
X0044860Y0091553D01*
X0044860Y0087600D01*
X0044260Y0087600D01*
X0044260Y0091553D01*
X0041830Y0091553D01*
X0041499Y0091464D01*
X0041203Y0091293D01*
X0040961Y0091051D01*
X0040789Y0090755D01*
X0040701Y0090424D01*
X0040701Y0087600D01*
X0044260Y0087600D01*
X0044260Y0087000D01*
X0040701Y0087000D01*
X0040701Y0084176D01*
X0040789Y0083845D01*
X0040961Y0083549D01*
X0041203Y0083307D01*
X0041388Y0083200D01*
X0039200Y0083200D01*
X0039200Y0083296D02*
X0041221Y0083296D01*
X0040776Y0083895D02*
X0039200Y0083895D01*
X0039200Y0084493D02*
X0040701Y0084493D01*
X0040701Y0085092D02*
X0039200Y0085092D01*
X0039200Y0085690D02*
X0040701Y0085690D01*
X0040701Y0086289D02*
X0039200Y0086289D01*
X0039200Y0086887D02*
X0040701Y0086887D01*
X0040701Y0088084D02*
X0039200Y0088084D01*
X0039200Y0087486D02*
X0044260Y0087486D01*
X0044260Y0088084D02*
X0044860Y0088084D01*
X0044860Y0087486D02*
X0048581Y0087486D01*
X0048581Y0088084D02*
X0048419Y0088084D01*
X0048419Y0088683D02*
X0048581Y0088683D01*
X0048581Y0089281D02*
X0048419Y0089281D01*
X0048419Y0089880D02*
X0048581Y0089880D01*
X0048581Y0090478D02*
X0048404Y0090478D01*
X0048581Y0090626D02*
X0048581Y0083974D01*
X0049108Y0083447D01*
X0054972Y0083447D01*
X0055499Y0083974D01*
X0055499Y0084290D01*
X0059168Y0084290D01*
X0059168Y0083947D01*
X0059695Y0083420D01*
X0068905Y0083420D01*
X0069432Y0083947D01*
X0069432Y0084400D01*
X0137018Y0084400D01*
X0137368Y0084050D01*
X0139232Y0084050D01*
X0140550Y0085368D01*
X0140550Y0085863D01*
X0152827Y0098140D01*
X0154447Y0098140D01*
X0154447Y0097108D01*
X0154974Y0096581D01*
X0161626Y0096581D01*
X0162153Y0097108D01*
X0162153Y0102972D01*
X0161626Y0103499D01*
X0154974Y0103499D01*
X0154447Y0102972D01*
X0154447Y0101940D01*
X0151253Y0101940D01*
X0137863Y0088550D01*
X0137368Y0088550D01*
X0137018Y0088200D01*
X0092494Y0088200D01*
X0092578Y0088345D01*
X0092667Y0088676D01*
X0092667Y0094945D01*
X0087435Y0094945D01*
X0087435Y0095545D01*
X0092667Y0095545D01*
X0092667Y0101814D01*
X0092578Y0102144D01*
X0092407Y0102441D01*
X0092165Y0102683D01*
X0091869Y0102854D01*
X0091538Y0102943D01*
X0087435Y0102942D01*
X0087435Y0095545D01*
X0086835Y0095545D01*
X0086835Y0102943D01*
X0082731Y0102943D01*
X0082401Y0102854D01*
X0082104Y0102683D01*
X0081862Y0102441D01*
X0081691Y0102144D01*
X0081602Y0101814D01*
X0081602Y0095545D01*
X0086835Y0095545D01*
X0086835Y0094945D01*
X0081602Y0094945D01*
X0081602Y0088676D01*
X0081691Y0088345D01*
X0081775Y0088200D01*
X0069432Y0088200D01*
X0069432Y0088433D01*
X0068905Y0088960D01*
X0059695Y0088960D01*
X0059168Y0088433D01*
X0059168Y0088090D01*
X0055499Y0088090D01*
X0055499Y0090626D01*
X0054972Y0091153D01*
X0049108Y0091153D01*
X0048581Y0090626D01*
X0048133Y0091077D02*
X0049032Y0091077D01*
X0049176Y0092701D02*
X0052000Y0092701D01*
X0052000Y0096260D01*
X0048047Y0096260D01*
X0048047Y0093830D01*
X0048136Y0093499D01*
X0048307Y0093203D01*
X0048549Y0092961D01*
X0048845Y0092789D01*
X0049176Y0092701D01*
X0048702Y0092872D02*
X0039200Y0092872D01*
X0039200Y0092274D02*
X0059375Y0092274D01*
X0059269Y0092335D02*
X0059566Y0092163D01*
X0059897Y0092075D01*
X0064000Y0092075D01*
X0064000Y0094945D01*
X0058768Y0094945D01*
X0058768Y0093204D01*
X0058856Y0092873D01*
X0059027Y0092577D01*
X0059269Y0092335D01*
X0058857Y0092872D02*
X0055898Y0092872D01*
X0055755Y0092789D02*
X0056051Y0092961D01*
X0056293Y0093203D01*
X0056464Y0093499D01*
X0056553Y0093830D01*
X0056553Y0096260D01*
X0052600Y0096260D01*
X0052600Y0096860D01*
X0052000Y0096860D01*
X0052000Y0100419D01*
X0049176Y0100419D01*
X0048845Y0100330D01*
X0048549Y0100159D01*
X0048307Y0099917D01*
X0048136Y0099621D01*
X0048047Y0099290D01*
X0048047Y0096860D01*
X0052000Y0096860D01*
X0052000Y0096260D01*
X0052600Y0096260D01*
X0052600Y0092701D01*
X0055424Y0092701D01*
X0055755Y0092789D01*
X0056448Y0093471D02*
X0058768Y0093471D01*
X0058768Y0094069D02*
X0056553Y0094069D01*
X0056553Y0094668D02*
X0058768Y0094668D01*
X0058768Y0095545D02*
X0064000Y0095545D01*
X0064000Y0098415D01*
X0059897Y0098415D01*
X0059566Y0098326D01*
X0059269Y0098155D01*
X0059027Y0097913D01*
X0058856Y0097617D01*
X0058768Y0097286D01*
X0058768Y0095545D01*
X0058768Y0095865D02*
X0056553Y0095865D01*
X0056553Y0095266D02*
X0064000Y0095266D01*
X0064000Y0095545D02*
X0064000Y0094945D01*
X0064600Y0094945D01*
X0064600Y0095545D01*
X0064000Y0095545D01*
X0064000Y0095865D02*
X0064600Y0095865D01*
X0064600Y0095545D02*
X0064600Y0098415D01*
X0068703Y0098415D01*
X0069034Y0098326D01*
X0069330Y0098155D01*
X0069573Y0097913D01*
X0069744Y0097617D01*
X0069832Y0097286D01*
X0069832Y0095545D01*
X0064600Y0095545D01*
X0064600Y0095266D02*
X0086835Y0095266D01*
X0086835Y0095865D02*
X0087435Y0095865D01*
X0087435Y0096463D02*
X0086835Y0096463D01*
X0086835Y0097062D02*
X0087435Y0097062D01*
X0087435Y0097660D02*
X0086835Y0097660D01*
X0086835Y0098259D02*
X0087435Y0098259D01*
X0087435Y0098857D02*
X0086835Y0098857D01*
X0086835Y0099456D02*
X0087435Y0099456D01*
X0087435Y0100054D02*
X0086835Y0100054D01*
X0086835Y0100653D02*
X0087435Y0100653D01*
X0087435Y0101251D02*
X0086835Y0101251D01*
X0086835Y0101850D02*
X0087435Y0101850D01*
X0087435Y0102448D02*
X0086835Y0102448D01*
X0081870Y0102448D02*
X0069432Y0102448D01*
X0069432Y0103047D02*
X0105400Y0103047D01*
X0105400Y0102812D02*
X0106812Y0101400D01*
X0110025Y0101400D01*
X0110669Y0102044D01*
X0110669Y0102146D01*
X0110771Y0102044D01*
X0111416Y0101400D01*
X0113862Y0101400D01*
X0114506Y0102044D01*
X0114608Y0102146D01*
X0114608Y0102044D01*
X0115252Y0101400D01*
X0119233Y0101400D01*
X0119877Y0102044D01*
X0119877Y0102146D01*
X0119979Y0102044D01*
X0120623Y0101400D01*
X0123069Y0101400D01*
X0123714Y0102044D01*
X0123837Y0102167D01*
X0124148Y0102479D01*
X0124460Y0102167D01*
X0125227Y0101400D01*
X0127673Y0101400D01*
X0128318Y0102044D01*
X0128441Y0102167D01*
X0129075Y0102801D01*
X0129085Y0102812D01*
X0129085Y0103702D01*
X0130722Y0103702D01*
X0130722Y0102044D01*
X0131366Y0101400D01*
X0132277Y0101400D01*
X0132922Y0102044D01*
X0132922Y0103702D01*
X0133045Y0103702D01*
X0133689Y0104346D01*
X0133689Y0105258D01*
X0133045Y0105902D01*
X0132922Y0105902D01*
X0132922Y0107560D01*
X0132912Y0107569D01*
X0132277Y0108204D01*
X0131366Y0108204D01*
X0131345Y0108183D01*
X0130722Y0107560D01*
X0130722Y0107560D01*
X0129085Y0105923D01*
X0129085Y0106792D01*
X0129048Y0106830D01*
X0128441Y0107437D01*
X0128318Y0107560D01*
X0127673Y0108204D01*
X0125227Y0108204D01*
X0124583Y0107560D01*
X0124583Y0107560D01*
X0124460Y0107437D01*
X0124450Y0107426D01*
X0124161Y0108003D01*
X0123297Y0108292D01*
X0121587Y0107437D01*
X0121391Y0107437D01*
X0121195Y0107241D01*
X0120947Y0107117D01*
X0120885Y0106931D01*
X0119856Y0105902D01*
X0119212Y0105258D01*
X0119212Y0103600D01*
X0118342Y0103600D01*
X0118342Y0107560D01*
X0117698Y0108204D01*
X0116787Y0108204D01*
X0116142Y0107560D01*
X0115273Y0106690D01*
X0115273Y0106792D01*
X0114506Y0107560D01*
X0113862Y0108204D01*
X0111416Y0108204D01*
X0111405Y0108194D01*
X0110771Y0107560D01*
X0110771Y0107560D01*
X0110648Y0107437D01*
X0110337Y0107125D01*
X0110025Y0107437D01*
X0109258Y0108204D01*
X0106812Y0108204D01*
X0106167Y0107560D01*
X0106167Y0107560D01*
X0106044Y0107437D01*
X0105400Y0106792D01*
X0105400Y0102812D01*
X0105763Y0102448D02*
X0092399Y0102448D01*
X0092657Y0101850D02*
X0106362Y0101850D01*
X0105400Y0103645D02*
X0069432Y0103645D01*
X0069432Y0104244D02*
X0105400Y0104244D01*
X0105400Y0104842D02*
X0069432Y0104842D01*
X0069432Y0105441D02*
X0105400Y0105441D01*
X0105400Y0106039D02*
X0069432Y0106039D01*
X0069337Y0106638D02*
X0105400Y0106638D01*
X0105844Y0107237D02*
X0055888Y0107237D01*
X0056153Y0106638D02*
X0059263Y0106638D01*
X0059168Y0106039D02*
X0056153Y0106039D01*
X0056153Y0101850D02*
X0059375Y0101850D01*
X0056153Y0101251D02*
X0081602Y0101251D01*
X0081602Y0100653D02*
X0055697Y0100653D01*
X0055755Y0100330D02*
X0055424Y0100419D01*
X0052600Y0100419D01*
X0052600Y0096860D01*
X0056553Y0096860D01*
X0056553Y0099290D01*
X0056464Y0099621D01*
X0056293Y0099917D01*
X0056051Y0100159D01*
X0055755Y0100330D01*
X0056156Y0100054D02*
X0081602Y0100054D01*
X0081602Y0099456D02*
X0056508Y0099456D01*
X0056553Y0098857D02*
X0081602Y0098857D01*
X0081602Y0098259D02*
X0069151Y0098259D01*
X0069719Y0097660D02*
X0081602Y0097660D01*
X0081602Y0097062D02*
X0069832Y0097062D01*
X0069832Y0096463D02*
X0081602Y0096463D01*
X0081602Y0095865D02*
X0069832Y0095865D01*
X0069832Y0094945D02*
X0069832Y0093204D01*
X0069744Y0092873D01*
X0069573Y0092577D01*
X0069330Y0092335D01*
X0069034Y0092163D01*
X0068703Y0092075D01*
X0064600Y0092075D01*
X0064600Y0094945D01*
X0069832Y0094945D01*
X0069832Y0094668D02*
X0081602Y0094668D01*
X0081602Y0094069D02*
X0069832Y0094069D01*
X0069832Y0093471D02*
X0081602Y0093471D01*
X0081602Y0092872D02*
X0069743Y0092872D01*
X0069225Y0092274D02*
X0081602Y0092274D01*
X0081602Y0091675D02*
X0039200Y0091675D01*
X0039200Y0091077D02*
X0040986Y0091077D01*
X0040715Y0090478D02*
X0039200Y0090478D01*
X0039200Y0089880D02*
X0040701Y0089880D01*
X0040701Y0089281D02*
X0039200Y0089281D01*
X0039200Y0088683D02*
X0040701Y0088683D01*
X0044260Y0088683D02*
X0044860Y0088683D01*
X0044860Y0089281D02*
X0044260Y0089281D01*
X0044260Y0089880D02*
X0044860Y0089880D01*
X0044860Y0090478D02*
X0044260Y0090478D01*
X0044260Y0091077D02*
X0044860Y0091077D01*
X0048152Y0093471D02*
X0039200Y0093471D01*
X0039200Y0094069D02*
X0048047Y0094069D01*
X0048047Y0094668D02*
X0039200Y0094668D01*
X0039200Y0095266D02*
X0048047Y0095266D01*
X0048047Y0095865D02*
X0039200Y0095865D01*
X0039200Y0096463D02*
X0052000Y0096463D01*
X0052000Y0095865D02*
X0052600Y0095865D01*
X0052600Y0096463D02*
X0058768Y0096463D01*
X0058768Y0097062D02*
X0056553Y0097062D01*
X0056553Y0097660D02*
X0058881Y0097660D01*
X0059449Y0098259D02*
X0056553Y0098259D01*
X0052600Y0098259D02*
X0052000Y0098259D01*
X0052000Y0098857D02*
X0052600Y0098857D01*
X0052600Y0099456D02*
X0052000Y0099456D01*
X0052000Y0100054D02*
X0052600Y0100054D01*
X0052600Y0097660D02*
X0052000Y0097660D01*
X0052000Y0097062D02*
X0052600Y0097062D01*
X0052600Y0095266D02*
X0052000Y0095266D01*
X0052000Y0094668D02*
X0052600Y0094668D01*
X0052600Y0094069D02*
X0052000Y0094069D01*
X0052000Y0093471D02*
X0052600Y0093471D01*
X0052600Y0092872D02*
X0052000Y0092872D01*
X0055048Y0091077D02*
X0081602Y0091077D01*
X0081602Y0090478D02*
X0055499Y0090478D01*
X0055499Y0089880D02*
X0081602Y0089880D01*
X0081602Y0089281D02*
X0055499Y0089281D01*
X0055499Y0088683D02*
X0059418Y0088683D01*
X0064000Y0092274D02*
X0064600Y0092274D01*
X0064600Y0092872D02*
X0064000Y0092872D01*
X0064000Y0093471D02*
X0064600Y0093471D01*
X0064600Y0094069D02*
X0064000Y0094069D01*
X0064000Y0094668D02*
X0064600Y0094668D01*
X0064600Y0096463D02*
X0064000Y0096463D01*
X0064000Y0097062D02*
X0064600Y0097062D01*
X0064600Y0097660D02*
X0064000Y0097660D01*
X0064000Y0098259D02*
X0064600Y0098259D01*
X0069225Y0101850D02*
X0081612Y0101850D01*
X0092667Y0101251D02*
X0150564Y0101251D01*
X0149966Y0100653D02*
X0092667Y0100653D01*
X0092667Y0100054D02*
X0149367Y0100054D01*
X0148769Y0099456D02*
X0092667Y0099456D01*
X0092667Y0098857D02*
X0148170Y0098857D01*
X0147572Y0098259D02*
X0092667Y0098259D01*
X0092667Y0097660D02*
X0146973Y0097660D01*
X0146375Y0097062D02*
X0092667Y0097062D01*
X0092667Y0096463D02*
X0145776Y0096463D01*
X0145178Y0095865D02*
X0092667Y0095865D01*
X0092667Y0094668D02*
X0143981Y0094668D01*
X0144579Y0095266D02*
X0087435Y0095266D01*
X0092667Y0094069D02*
X0143382Y0094069D01*
X0142784Y0093471D02*
X0092667Y0093471D01*
X0092667Y0092872D02*
X0142185Y0092872D01*
X0141587Y0092274D02*
X0092667Y0092274D01*
X0092667Y0091675D02*
X0140988Y0091675D01*
X0140390Y0091077D02*
X0092667Y0091077D01*
X0092667Y0090478D02*
X0139791Y0090478D01*
X0139193Y0089880D02*
X0092667Y0089880D01*
X0092667Y0089281D02*
X0138594Y0089281D01*
X0137996Y0088683D02*
X0092667Y0088683D01*
X0087732Y0083882D02*
X0087435Y0084054D01*
X0087105Y0084142D01*
X0086763Y0084142D01*
X0086432Y0084054D01*
X0086135Y0083882D01*
X0084139Y0081886D01*
X0086655Y0079369D01*
X0086231Y0078945D01*
X0083714Y0081461D01*
X0081718Y0079465D01*
X0081546Y0079168D01*
X0081458Y0078837D01*
X0081458Y0078495D01*
X0081546Y0078165D01*
X0081718Y0077868D01*
X0083436Y0076150D01*
X0086231Y0078945D01*
X0086655Y0078520D01*
X0083860Y0075725D01*
X0085579Y0074007D01*
X0085875Y0073836D01*
X0086206Y0073747D01*
X0086548Y0073747D01*
X0086879Y0073836D01*
X0087175Y0074007D01*
X0089172Y0076004D01*
X0086655Y0078520D01*
X0087080Y0078945D01*
X0086655Y0079369D01*
X0089450Y0082164D01*
X0087732Y0083882D01*
X0087711Y0083895D02*
X0140955Y0083895D01*
X0141553Y0084493D02*
X0139675Y0084493D01*
X0140274Y0085092D02*
X0142152Y0085092D01*
X0142751Y0085690D02*
X0140550Y0085690D01*
X0140976Y0086289D02*
X0143349Y0086289D01*
X0143948Y0086887D02*
X0141574Y0086887D01*
X0142173Y0087486D02*
X0144546Y0087486D01*
X0145145Y0088084D02*
X0142771Y0088084D01*
X0143370Y0088683D02*
X0145743Y0088683D01*
X0146342Y0089281D02*
X0143968Y0089281D01*
X0144567Y0089880D02*
X0146940Y0089880D01*
X0147539Y0090478D02*
X0145165Y0090478D01*
X0145764Y0091077D02*
X0148137Y0091077D01*
X0148736Y0091675D02*
X0146362Y0091675D01*
X0146961Y0092274D02*
X0149334Y0092274D01*
X0149933Y0092872D02*
X0147559Y0092872D01*
X0148158Y0093471D02*
X0150531Y0093471D01*
X0150200Y0093140D02*
X0151020Y0093960D01*
X0154447Y0093960D01*
X0154447Y0095492D01*
X0154974Y0096019D01*
X0161626Y0096019D01*
X0162153Y0095492D01*
X0162153Y0093960D01*
X0172115Y0093960D01*
X0172581Y0094153D01*
X0180019Y0094153D01*
X0181435Y0093566D01*
X0182519Y0092482D01*
X0183105Y0091066D01*
X0183105Y0089534D01*
X0182519Y0088118D01*
X0181435Y0087034D01*
X0180019Y0086447D01*
X0172581Y0086447D01*
X0171165Y0087034D01*
X0170081Y0088118D01*
X0169494Y0089534D01*
X0169494Y0091066D01*
X0169533Y0091160D01*
X0162153Y0091160D01*
X0162153Y0089628D01*
X0161626Y0089101D01*
X0154974Y0089101D01*
X0154447Y0089628D01*
X0154447Y0091160D01*
X0152180Y0091160D01*
X0145460Y0084440D01*
X0154447Y0084440D01*
X0154447Y0085972D01*
X0154974Y0086499D01*
X0161626Y0086499D01*
X0162153Y0085972D01*
X0162153Y0084440D01*
X0174140Y0084440D01*
X0174427Y0084153D01*
X0180019Y0084153D01*
X0181435Y0083566D01*
X0182519Y0082482D01*
X0183105Y0081066D01*
X0183105Y0079534D01*
X0182519Y0078118D01*
X0181435Y0077034D01*
X0180019Y0076447D01*
X0172581Y0076447D01*
X0171165Y0077034D01*
X0170081Y0078118D01*
X0169494Y0079534D01*
X0169494Y0081066D01*
X0169732Y0081640D01*
X0162153Y0081640D01*
X0162153Y0080108D01*
X0161626Y0079581D01*
X0156966Y0079581D01*
X0157460Y0079087D01*
X0157528Y0079019D01*
X0161626Y0079019D01*
X0162153Y0078492D01*
X0162153Y0074394D01*
X0167087Y0069460D01*
X0168200Y0068347D01*
X0168200Y0060087D01*
X0170000Y0058287D01*
X0170081Y0058482D01*
X0171165Y0059566D01*
X0172581Y0060153D01*
X0180019Y0060153D01*
X0181435Y0059566D01*
X0182519Y0058482D01*
X0183105Y0057066D01*
X0183105Y0055534D01*
X0182519Y0054118D01*
X0181435Y0053034D01*
X0180019Y0052447D01*
X0172581Y0052447D01*
X0171165Y0053034D01*
X0170081Y0054118D01*
X0169964Y0054400D01*
X0168513Y0054400D01*
X0167400Y0055513D01*
X0164400Y0058513D01*
X0164400Y0066773D01*
X0159072Y0072101D01*
X0154974Y0072101D01*
X0154447Y0072628D01*
X0154447Y0076400D01*
X0153513Y0076400D01*
X0151513Y0078400D01*
X0147087Y0078400D01*
X0140550Y0071863D01*
X0140550Y0070999D01*
X0141004Y0071453D01*
X0141750Y0071453D01*
X0146453Y0066750D01*
X0146453Y0066004D01*
X0145723Y0065274D01*
X0146274Y0064723D01*
X0147004Y0065453D01*
X0147750Y0065453D01*
X0152453Y0060750D01*
X0152453Y0060004D01*
X0148306Y0055858D01*
X0147561Y0055858D01*
X0144163Y0059255D01*
X0142235Y0059255D01*
X0141965Y0058985D01*
X0143204Y0057746D01*
X0143204Y0057716D01*
X0143233Y0057716D01*
X0144596Y0056354D01*
X0144596Y0055609D01*
X0140728Y0051741D01*
X0139982Y0051741D01*
X0138620Y0053103D01*
X0138620Y0053133D01*
X0138590Y0053133D01*
X0137351Y0054371D01*
X0136700Y0053720D01*
X0136700Y0052880D01*
X0139700Y0049880D01*
X0139700Y0047720D01*
X0138880Y0046900D01*
X0131700Y0039720D01*
X0131700Y0039056D01*
X0131939Y0038816D01*
X0133022Y0039900D01*
X0133052Y0039900D01*
X0133052Y0039929D01*
X0134414Y0041292D01*
X0134444Y0041292D01*
X0134444Y0041321D01*
X0135806Y0042683D01*
X0135836Y0042683D01*
X0135836Y0042713D01*
X0137198Y0044075D01*
X0137228Y0044075D01*
X0137228Y0044105D01*
X0138590Y0045467D01*
X0138620Y0045467D01*
X0138620Y0045497D01*
X0139982Y0046859D01*
X0140728Y0046859D01*
X0144596Y0042991D01*
X0144596Y0042246D01*
X0143233Y0040884D01*
X0143204Y0040884D01*
X0143204Y0040854D01*
X0141841Y0039492D01*
X0141812Y0039492D01*
X0141812Y0039462D01*
X0140449Y0038100D01*
X0140420Y0038100D01*
X0140420Y0038070D01*
X0139057Y0036708D01*
X0139028Y0036708D01*
X0139028Y0036678D01*
X0137665Y0035316D01*
X0137636Y0035316D01*
X0137636Y0035286D01*
X0136553Y0034203D01*
X0138287Y0032468D01*
X0139561Y0033742D01*
X0140306Y0033742D01*
X0144453Y0029596D01*
X0144453Y0028850D01*
X0139750Y0024147D01*
X0139004Y0024147D01*
X0137577Y0025575D01*
X0133025Y0021023D01*
X0134453Y0019596D01*
X0134453Y0018850D01*
X0129750Y0014147D01*
X0129004Y0014147D01*
X0127419Y0015732D01*
X0119153Y0007466D01*
X0119153Y0005628D01*
X0118626Y0005101D01*
X0111974Y0005101D01*
X0111447Y0005628D01*
X0111447Y0011492D01*
X0111974Y0012019D01*
X0118332Y0012019D01*
X0124363Y0018050D01*
X0123368Y0018050D01*
X0122050Y0019368D01*
X0122050Y0020004D01*
X0121700Y0020004D01*
X0121700Y0019082D01*
X0122550Y0018232D01*
X0122550Y0016368D01*
X0121232Y0015050D01*
X0119368Y0015050D01*
X0119153Y0015265D01*
X0119153Y0013108D01*
X0118626Y0012581D01*
X0111974Y0012581D01*
X0111447Y0013108D01*
X0111447Y0014640D01*
X0109980Y0014640D01*
X0109570Y0015050D01*
X0108368Y0015050D01*
X0107050Y0016368D01*
X0107050Y0018232D01*
X0108368Y0019550D01*
X0110232Y0019550D01*
X0111447Y0018335D01*
X0111447Y0018972D01*
X0111974Y0019499D01*
X0113900Y0019499D01*
X0113900Y0019518D01*
X0113050Y0020368D01*
X0113050Y0022232D01*
X0114368Y0023550D01*
X0116232Y0023550D01*
X0117550Y0022232D01*
X0117550Y0020368D01*
X0116700Y0019518D01*
X0116700Y0019499D01*
X0118626Y0019499D01*
X0118900Y0019225D01*
X0118900Y0022713D01*
X0117741Y0023872D01*
X0117741Y0024618D01*
X0119103Y0025980D01*
X0119133Y0025980D01*
X0119133Y0026010D01*
X0120216Y0027093D01*
X0119644Y0027664D01*
X0116880Y0024900D01*
X0114720Y0024900D01*
X0113900Y0025720D01*
X0106720Y0032900D01*
X0105056Y0032900D01*
X0104816Y0032661D01*
X0105900Y0031578D01*
X0105900Y0031548D01*
X0105929Y0031548D01*
X0107292Y0030186D01*
X0107292Y0030156D01*
X0107321Y0030156D01*
X0108683Y0028794D01*
X0108683Y0028764D01*
X0108713Y0028764D01*
X0110075Y0027402D01*
X0110075Y0027372D01*
X0110105Y0027372D01*
X0111467Y0026010D01*
X0111467Y0025980D01*
X0111497Y0025980D01*
X0112859Y0024618D01*
X0112859Y0023872D01*
X0108991Y0020004D01*
X0108246Y0020004D01*
X0106884Y0021367D01*
X0106884Y0021396D01*
X0106854Y0021396D01*
X0105492Y0022759D01*
X0105492Y0022788D01*
X0105462Y0022788D01*
X0104100Y0024151D01*
X0104100Y0024180D01*
X0104070Y0024180D01*
X0102708Y0025543D01*
X0102708Y0025572D01*
X0102678Y0025572D01*
X0101615Y0026635D01*
X0097700Y0022720D01*
X0097700Y0020720D01*
X0096880Y0019900D01*
X0084880Y0007900D01*
X0072499Y0007900D01*
X0072499Y0005974D01*
X0071972Y0005447D01*
X0066108Y0005447D01*
X0065581Y0005974D01*
X0065581Y0012626D01*
X0066108Y0013153D01*
X0071972Y0013153D01*
X0072499Y0012626D01*
X0072499Y0010700D01*
X0083720Y0010700D01*
X0094900Y0021880D01*
X0094900Y0023451D01*
X0091596Y0020147D01*
X0090850Y0020147D01*
X0086147Y0024850D01*
X0086147Y0025127D01*
X0085804Y0024784D01*
X0085879Y0024764D01*
X0086175Y0024593D01*
X0088172Y0022596D01*
X0085655Y0020080D01*
X0086080Y0019655D01*
X0088875Y0016860D01*
X0090593Y0018579D01*
X0090764Y0018875D01*
X0090853Y0019206D01*
X0090853Y0019548D01*
X0090764Y0019879D01*
X0090593Y0020175D01*
X0088596Y0022172D01*
X0086080Y0019655D01*
X0085655Y0019231D01*
X0083139Y0016714D01*
X0085135Y0014718D01*
X0085432Y0014546D01*
X0085763Y0014458D01*
X0086105Y0014458D01*
X0086435Y0014546D01*
X0086732Y0014718D01*
X0088450Y0016436D01*
X0085655Y0019231D01*
X0085231Y0019655D01*
X0082714Y0017139D01*
X0080718Y0019135D01*
X0080546Y0019432D01*
X0080458Y0019763D01*
X0080458Y0020105D01*
X0080546Y0020435D01*
X0080718Y0020732D01*
X0080886Y0020900D01*
X0072499Y0020900D01*
X0072499Y0018974D01*
X0071972Y0018447D01*
X0066108Y0018447D01*
X0065581Y0018974D01*
X0065581Y0025626D01*
X0066108Y0026153D01*
X0071972Y0026153D01*
X0072499Y0025626D01*
X0072499Y0023700D01*
X0080760Y0023700D01*
X0092655Y0035595D01*
X0091851Y0036399D01*
X0089352Y0033900D01*
X0072499Y0033900D01*
X0072499Y0031974D01*
X0071972Y0031447D01*
X0066108Y0031447D01*
X0065581Y0031974D01*
X0065581Y0038626D01*
X0066108Y0039153D01*
X0071972Y0039153D01*
X0072499Y0038626D01*
X0072499Y0036700D01*
X0088193Y0036700D01*
X0089871Y0038379D01*
X0088788Y0039462D01*
X0088788Y0039492D01*
X0088759Y0039492D01*
X0087396Y0040854D01*
X0087396Y0040884D01*
X0087367Y0040884D01*
X0086004Y0042246D01*
X0086004Y0042991D01*
X0089872Y0046859D01*
X0090618Y0046859D01*
X0091980Y0045497D01*
X0091980Y0045467D01*
X0092010Y0045467D01*
X0093372Y0044105D01*
X0093372Y0044075D01*
X0093402Y0044075D01*
X0094764Y0042713D01*
X0094764Y0042683D01*
X0094794Y0042683D01*
X0096156Y0041321D01*
X0096156Y0041292D01*
X0096186Y0041292D01*
X0097548Y0039929D01*
X0097548Y0039900D01*
X0097578Y0039900D01*
X0098940Y0038537D01*
X0098940Y0038508D01*
X0098969Y0038508D01*
X0100332Y0037145D01*
X0100332Y0037116D01*
X0100361Y0037116D01*
X0101353Y0036124D01*
X0101552Y0036124D01*
X0101882Y0036035D01*
X0102179Y0035864D01*
X0102717Y0035325D01*
X0100128Y0032736D01*
X0100128Y0032736D01*
X0102717Y0035325D01*
X0103119Y0034923D01*
X0103896Y0035700D01*
X0107880Y0035700D01*
X0115800Y0027780D01*
X0117900Y0029880D01*
X0118720Y0030700D01*
X0120569Y0030700D01*
X0121389Y0029880D01*
X0121913Y0029356D01*
X0122315Y0029758D01*
X0124904Y0027168D01*
X0122315Y0029758D01*
X0122853Y0030296D01*
X0123150Y0030467D01*
X0123480Y0030556D01*
X0123679Y0030556D01*
X0124671Y0031548D01*
X0124700Y0031548D01*
X0124700Y0031578D01*
X0126063Y0032940D01*
X0126092Y0032940D01*
X0126092Y0032969D01*
X0127455Y0034332D01*
X0127484Y0034332D01*
X0127484Y0034361D01*
X0128476Y0035353D01*
X0128476Y0035552D01*
X0128565Y0035882D01*
X0128736Y0036179D01*
X0129275Y0036717D01*
X0131864Y0034128D01*
X0131864Y0034128D01*
X0129275Y0036717D01*
X0129677Y0037119D01*
X0128900Y0037896D01*
X0128900Y0040880D01*
X0136820Y0048800D01*
X0134720Y0050900D01*
X0133900Y0051720D01*
X0133900Y0054880D01*
X0135371Y0056351D01*
X0134444Y0057279D01*
X0134444Y0057308D01*
X0134414Y0057308D01*
X0133052Y0058671D01*
X0133052Y0058700D01*
X0133022Y0058700D01*
X0131660Y0060063D01*
X0131660Y0060092D01*
X0131631Y0060092D01*
X0130268Y0061455D01*
X0130268Y0061484D01*
X0130239Y0061484D01*
X0129247Y0062476D01*
X0129048Y0062476D01*
X0128718Y0062565D01*
X0128421Y0062736D01*
X0127883Y0063274D01*
X0130472Y0065864D01*
X0130472Y0065864D01*
X0127883Y0063275D01*
X0127344Y0063813D01*
X0127173Y0064110D01*
X0127084Y0064440D01*
X0127084Y0064639D01*
X0126092Y0065631D01*
X0126092Y0065660D01*
X0126063Y0065660D01*
X0124700Y0067022D01*
X0124700Y0067052D01*
X0124671Y0067052D01*
X0123308Y0068414D01*
X0123308Y0068444D01*
X0123279Y0068444D01*
X0121916Y0069806D01*
X0121916Y0069836D01*
X0121887Y0069836D01*
X0120525Y0071198D01*
X0120525Y0071228D01*
X0120495Y0071228D01*
X0119133Y0072590D01*
X0119133Y0072620D01*
X0119103Y0072620D01*
X0117741Y0073982D01*
X0117741Y0074728D01*
X0121609Y0078596D01*
X0122354Y0078596D01*
X0123716Y0077233D01*
X0123716Y0077204D01*
X0123746Y0077204D01*
X0125108Y0075841D01*
X0125108Y0075812D01*
X0125138Y0075812D01*
X0126500Y0074449D01*
X0126500Y0074420D01*
X0126530Y0074420D01*
X0127892Y0073057D01*
X0127892Y0073028D01*
X0127922Y0073028D01*
X0129005Y0071945D01*
X0150200Y0093140D01*
X0148756Y0094069D02*
X0154447Y0094069D01*
X0154447Y0094668D02*
X0149355Y0094668D01*
X0149953Y0095266D02*
X0154447Y0095266D01*
X0154820Y0095865D02*
X0150552Y0095865D01*
X0151150Y0096463D02*
X0195201Y0096463D01*
X0195201Y0095865D02*
X0161780Y0095865D01*
X0162153Y0095266D02*
X0195201Y0095266D01*
X0195201Y0094668D02*
X0162153Y0094668D01*
X0162153Y0094069D02*
X0172379Y0094069D01*
X0169499Y0091077D02*
X0162153Y0091077D01*
X0162153Y0090478D02*
X0169494Y0090478D01*
X0169494Y0089880D02*
X0162153Y0089880D01*
X0161806Y0089281D02*
X0169599Y0089281D01*
X0169847Y0088683D02*
X0149703Y0088683D01*
X0150301Y0089281D02*
X0154794Y0089281D01*
X0154447Y0089880D02*
X0150900Y0089880D01*
X0151498Y0090478D02*
X0154447Y0090478D01*
X0154447Y0091077D02*
X0152097Y0091077D01*
X0149104Y0088084D02*
X0170114Y0088084D01*
X0170713Y0087486D02*
X0148506Y0087486D01*
X0147907Y0086887D02*
X0171519Y0086887D01*
X0169674Y0081501D02*
X0162153Y0081501D01*
X0162153Y0080902D02*
X0169494Y0080902D01*
X0169494Y0080303D02*
X0162153Y0080303D01*
X0161749Y0079705D02*
X0169494Y0079705D01*
X0169671Y0079106D02*
X0157440Y0079106D01*
X0162136Y0078508D02*
X0169919Y0078508D01*
X0170289Y0077909D02*
X0162153Y0077909D01*
X0162153Y0077311D02*
X0170888Y0077311D01*
X0171941Y0076712D02*
X0162153Y0076712D01*
X0162153Y0076114D02*
X0195201Y0076114D01*
X0195201Y0076712D02*
X0180659Y0076712D01*
X0181712Y0077311D02*
X0195201Y0077311D01*
X0195201Y0077909D02*
X0182311Y0077909D01*
X0182681Y0078508D02*
X0195201Y0078508D01*
X0195201Y0079106D02*
X0182929Y0079106D01*
X0183105Y0079705D02*
X0195201Y0079705D01*
X0195201Y0080303D02*
X0183105Y0080303D01*
X0183105Y0080902D02*
X0195201Y0080902D01*
X0195201Y0081501D02*
X0182926Y0081501D01*
X0182678Y0082099D02*
X0195201Y0082099D01*
X0195201Y0082698D02*
X0182304Y0082698D01*
X0181705Y0083296D02*
X0195201Y0083296D01*
X0195201Y0083895D02*
X0180642Y0083895D01*
X0181081Y0086887D02*
X0195201Y0086887D01*
X0195201Y0086289D02*
X0161836Y0086289D01*
X0162153Y0085690D02*
X0195201Y0085690D01*
X0195201Y0085092D02*
X0162153Y0085092D01*
X0162153Y0084493D02*
X0195201Y0084493D01*
X0195201Y0087486D02*
X0181887Y0087486D01*
X0182486Y0088084D02*
X0195201Y0088084D01*
X0195201Y0088683D02*
X0182753Y0088683D01*
X0183001Y0089281D02*
X0195201Y0089281D01*
X0195201Y0089880D02*
X0183105Y0089880D01*
X0183105Y0090478D02*
X0195201Y0090478D01*
X0195201Y0091077D02*
X0183101Y0091077D01*
X0182853Y0091675D02*
X0195201Y0091675D01*
X0195201Y0092274D02*
X0182605Y0092274D01*
X0182129Y0092872D02*
X0195201Y0092872D01*
X0195201Y0093471D02*
X0181531Y0093471D01*
X0180221Y0094069D02*
X0195201Y0094069D01*
X0195201Y0097062D02*
X0162106Y0097062D01*
X0162153Y0097660D02*
X0195201Y0097660D01*
X0195201Y0098259D02*
X0162153Y0098259D01*
X0162153Y0098857D02*
X0195201Y0098857D01*
X0195201Y0099456D02*
X0162153Y0099456D01*
X0162153Y0100054D02*
X0195201Y0100054D01*
X0195201Y0100653D02*
X0162153Y0100653D01*
X0162153Y0101251D02*
X0195201Y0101251D01*
X0195201Y0101850D02*
X0162153Y0101850D01*
X0162153Y0102448D02*
X0195201Y0102448D01*
X0195201Y0103047D02*
X0162078Y0103047D01*
X0154522Y0103047D02*
X0132922Y0103047D01*
X0132922Y0103645D02*
X0195201Y0103645D01*
X0195201Y0104244D02*
X0133587Y0104244D01*
X0133689Y0104842D02*
X0195201Y0104842D01*
X0195201Y0105441D02*
X0133506Y0105441D01*
X0132922Y0106039D02*
X0195201Y0106039D01*
X0195201Y0106638D02*
X0132922Y0106638D01*
X0132922Y0107237D02*
X0195201Y0107237D01*
X0195201Y0107835D02*
X0132646Y0107835D01*
X0130997Y0107835D02*
X0128042Y0107835D01*
X0128318Y0107560D02*
X0128318Y0107560D01*
X0128441Y0107437D02*
X0128441Y0107437D01*
X0128641Y0107237D02*
X0130399Y0107237D01*
X0129800Y0106638D02*
X0129085Y0106638D01*
X0129085Y0106039D02*
X0129202Y0106039D01*
X0129085Y0103645D02*
X0130722Y0103645D01*
X0130722Y0103047D02*
X0129085Y0103047D01*
X0128722Y0102448D02*
X0130722Y0102448D01*
X0130916Y0101850D02*
X0128123Y0101850D01*
X0128318Y0102044D02*
X0128318Y0102044D01*
X0128441Y0102167D02*
X0128441Y0102167D01*
X0124777Y0101850D02*
X0123519Y0101850D01*
X0123837Y0102167D02*
X0123837Y0102167D01*
X0124118Y0102448D02*
X0124179Y0102448D01*
X0124460Y0102167D02*
X0124460Y0102167D01*
X0120174Y0101850D02*
X0119683Y0101850D01*
X0119212Y0103645D02*
X0118342Y0103645D01*
X0118342Y0104244D02*
X0119212Y0104244D01*
X0119212Y0104842D02*
X0118342Y0104842D01*
X0118342Y0105441D02*
X0119395Y0105441D01*
X0119856Y0105902D02*
X0119856Y0105902D01*
X0119994Y0106039D02*
X0118342Y0106039D01*
X0118342Y0106638D02*
X0120592Y0106638D01*
X0121187Y0107237D02*
X0118342Y0107237D01*
X0118067Y0107835D02*
X0122384Y0107835D01*
X0124245Y0107835D02*
X0124858Y0107835D01*
X0116418Y0107835D02*
X0114230Y0107835D01*
X0114829Y0107237D02*
X0115819Y0107237D01*
X0116142Y0107560D02*
X0116142Y0107560D01*
X0111047Y0107835D02*
X0109626Y0107835D01*
X0110225Y0107237D02*
X0110448Y0107237D01*
X0110648Y0107437D02*
X0110648Y0107437D01*
X0106443Y0107835D02*
X0003100Y0107835D01*
X0003100Y0107237D02*
X0048712Y0107237D01*
X0048447Y0106638D02*
X0003100Y0106638D01*
X0003100Y0106039D02*
X0042352Y0106039D01*
X0041754Y0105441D02*
X0003100Y0105441D01*
X0003100Y0104842D02*
X0041155Y0104842D01*
X0040557Y0104244D02*
X0003100Y0104244D01*
X0003100Y0103645D02*
X0039958Y0103645D01*
X0039360Y0103047D02*
X0003100Y0103047D01*
X0003100Y0102448D02*
X0038761Y0102448D01*
X0038163Y0101850D02*
X0003100Y0101850D01*
X0003100Y0101251D02*
X0037564Y0101251D01*
X0036966Y0100653D02*
X0003100Y0100653D01*
X0003100Y0100054D02*
X0036367Y0100054D01*
X0035769Y0099456D02*
X0003100Y0099456D01*
X0003100Y0098857D02*
X0035400Y0098857D01*
X0035400Y0098259D02*
X0003100Y0098259D01*
X0003100Y0097660D02*
X0035400Y0097660D01*
X0035400Y0097062D02*
X0003100Y0097062D01*
X0003100Y0096463D02*
X0035400Y0096463D01*
X0035400Y0095865D02*
X0003100Y0095865D01*
X0003100Y0095266D02*
X0035400Y0095266D01*
X0035400Y0094668D02*
X0003100Y0094668D01*
X0003100Y0094069D02*
X0017377Y0094069D01*
X0017118Y0093937D02*
X0016577Y0093544D01*
X0016103Y0093070D01*
X0015710Y0092529D01*
X0015406Y0091932D01*
X0015199Y0091296D01*
X0015094Y0090635D01*
X0015094Y0090600D01*
X0022000Y0090600D01*
X0022000Y0094553D01*
X0019013Y0094553D01*
X0018351Y0094448D01*
X0017715Y0094241D01*
X0017118Y0093937D01*
X0016504Y0093471D02*
X0003100Y0093471D01*
X0003100Y0092872D02*
X0015959Y0092872D01*
X0015580Y0092274D02*
X0003100Y0092274D01*
X0003100Y0091675D02*
X0015322Y0091675D01*
X0015164Y0091077D02*
X0003100Y0091077D01*
X0003100Y0090478D02*
X0022000Y0090478D01*
X0022000Y0090600D02*
X0022000Y0090000D01*
X0022600Y0090000D01*
X0022600Y0090600D01*
X0022000Y0090600D01*
X0022000Y0091077D02*
X0022600Y0091077D01*
X0022600Y0090600D02*
X0022600Y0094553D01*
X0025587Y0094553D01*
X0026249Y0094448D01*
X0026885Y0094241D01*
X0027482Y0093937D01*
X0028023Y0093544D01*
X0028497Y0093070D01*
X0028890Y0092529D01*
X0029194Y0091932D01*
X0029401Y0091296D01*
X0029505Y0090635D01*
X0029505Y0090600D01*
X0022600Y0090600D01*
X0022600Y0090478D02*
X0035400Y0090478D01*
X0035400Y0089880D02*
X0029492Y0089880D01*
X0029505Y0089965D02*
X0029505Y0090000D01*
X0022600Y0090000D01*
X0022600Y0086047D01*
X0025587Y0086047D01*
X0026249Y0086152D01*
X0026885Y0086359D01*
X0027482Y0086663D01*
X0028023Y0087056D01*
X0028497Y0087530D01*
X0028890Y0088071D01*
X0029194Y0088667D01*
X0029401Y0089304D01*
X0029505Y0089965D01*
X0029393Y0089281D02*
X0035400Y0089281D01*
X0035400Y0088683D02*
X0029199Y0088683D01*
X0028897Y0088084D02*
X0035400Y0088084D01*
X0035400Y0087486D02*
X0028453Y0087486D01*
X0027791Y0086887D02*
X0035400Y0086887D01*
X0035400Y0086289D02*
X0026669Y0086289D01*
X0026642Y0083895D02*
X0035400Y0083895D01*
X0035400Y0084493D02*
X0003100Y0084493D01*
X0003100Y0083895D02*
X0017958Y0083895D01*
X0016895Y0083296D02*
X0003100Y0083296D01*
X0003100Y0082698D02*
X0016296Y0082698D01*
X0015922Y0082099D02*
X0003100Y0082099D01*
X0003100Y0081501D02*
X0015674Y0081501D01*
X0015494Y0080902D02*
X0003100Y0080902D01*
X0003100Y0080303D02*
X0015494Y0080303D01*
X0015494Y0079705D02*
X0003100Y0079705D01*
X0003100Y0079106D02*
X0015671Y0079106D01*
X0015919Y0078508D02*
X0003100Y0078508D01*
X0003100Y0077909D02*
X0016289Y0077909D01*
X0016888Y0077311D02*
X0003100Y0077311D01*
X0003100Y0076712D02*
X0017941Y0076712D01*
X0026659Y0076712D02*
X0031800Y0076712D01*
X0031800Y0076114D02*
X0003100Y0076114D01*
X0003100Y0075515D02*
X0031800Y0075515D01*
X0031800Y0074917D02*
X0003100Y0074917D01*
X0003100Y0074318D02*
X0031800Y0074318D01*
X0031800Y0073720D02*
X0003100Y0073720D01*
X0003100Y0073121D02*
X0031800Y0073121D01*
X0031800Y0072523D02*
X0003100Y0072523D01*
X0003100Y0071924D02*
X0031800Y0071924D01*
X0031800Y0071326D02*
X0003100Y0071326D01*
X0003100Y0070727D02*
X0031800Y0070727D01*
X0031800Y0070129D02*
X0026077Y0070129D01*
X0018523Y0070129D02*
X0003100Y0070129D01*
X0003100Y0069530D02*
X0017129Y0069530D01*
X0016530Y0068932D02*
X0003100Y0068932D01*
X0003100Y0068333D02*
X0016019Y0068333D01*
X0015771Y0067735D02*
X0003100Y0067735D01*
X0003100Y0067136D02*
X0015523Y0067136D01*
X0015494Y0066538D02*
X0003100Y0066538D01*
X0003100Y0065939D02*
X0015494Y0065939D01*
X0015574Y0065341D02*
X0003100Y0065341D01*
X0003100Y0064742D02*
X0015822Y0064742D01*
X0016070Y0064144D02*
X0003100Y0064144D01*
X0003100Y0063545D02*
X0016653Y0063545D01*
X0017375Y0062947D02*
X0003100Y0062947D01*
X0003100Y0062348D02*
X0026227Y0062348D01*
X0025628Y0061750D02*
X0003100Y0061750D01*
X0003100Y0061151D02*
X0025030Y0061151D01*
X0024431Y0060553D02*
X0003100Y0060553D01*
X0003100Y0059954D02*
X0018101Y0059954D01*
X0016954Y0059356D02*
X0003100Y0059356D01*
X0003100Y0058757D02*
X0016356Y0058757D01*
X0015947Y0058159D02*
X0003100Y0058159D01*
X0003100Y0057560D02*
X0015699Y0057560D01*
X0015494Y0056962D02*
X0003100Y0056962D01*
X0003100Y0056363D02*
X0015494Y0056363D01*
X0015494Y0055765D02*
X0003100Y0055765D01*
X0003100Y0055166D02*
X0015647Y0055166D01*
X0015895Y0054568D02*
X0003100Y0054568D01*
X0003100Y0053969D02*
X0016230Y0053969D01*
X0016828Y0053370D02*
X0003100Y0053370D01*
X0003100Y0052772D02*
X0017797Y0052772D01*
X0017680Y0049779D02*
X0003100Y0049779D01*
X0003100Y0049181D02*
X0016780Y0049181D01*
X0016181Y0048582D02*
X0003100Y0048582D01*
X0003100Y0047984D02*
X0015875Y0047984D01*
X0015627Y0047385D02*
X0003100Y0047385D01*
X0003100Y0046787D02*
X0015494Y0046787D01*
X0015494Y0046188D02*
X0003100Y0046188D01*
X0003100Y0045590D02*
X0015494Y0045590D01*
X0015719Y0044991D02*
X0003100Y0044991D01*
X0003100Y0044393D02*
X0015967Y0044393D01*
X0016404Y0043794D02*
X0003100Y0043794D01*
X0003100Y0043196D02*
X0017003Y0043196D01*
X0018219Y0042597D02*
X0003100Y0042597D01*
X0003100Y0041999D02*
X0035480Y0041999D01*
X0034881Y0042597D02*
X0026381Y0042597D01*
X0027597Y0043196D02*
X0034283Y0043196D01*
X0033684Y0043794D02*
X0028196Y0043794D01*
X0028633Y0044393D02*
X0033086Y0044393D01*
X0034934Y0046787D02*
X0038933Y0046787D01*
X0038933Y0046771D02*
X0039022Y0046440D01*
X0039193Y0046144D01*
X0039333Y0046003D01*
X0039333Y0044800D01*
X0036921Y0044800D01*
X0034800Y0046921D01*
X0033921Y0047800D01*
X0028802Y0047800D01*
X0028519Y0048482D01*
X0028061Y0048940D01*
X0030921Y0051800D01*
X0039333Y0051800D01*
X0039333Y0050597D01*
X0039193Y0050456D01*
X0039022Y0050160D01*
X0038933Y0049829D01*
X0038933Y0048600D01*
X0041882Y0048600D01*
X0041882Y0048000D01*
X0038933Y0048000D01*
X0038933Y0046771D01*
X0038933Y0047385D02*
X0034336Y0047385D01*
X0035533Y0046188D02*
X0039167Y0046188D01*
X0039333Y0045590D02*
X0036131Y0045590D01*
X0036730Y0044991D02*
X0039333Y0044991D01*
X0038933Y0047984D02*
X0028725Y0047984D01*
X0028419Y0048582D02*
X0041882Y0048582D01*
X0045400Y0049944D02*
X0045342Y0050160D01*
X0045171Y0050456D01*
X0045031Y0050597D01*
X0045031Y0053771D01*
X0044503Y0054298D01*
X0042045Y0054298D01*
X0041543Y0054800D01*
X0042045Y0055302D01*
X0044503Y0055302D01*
X0045031Y0055829D01*
X0045031Y0059003D01*
X0045171Y0059144D01*
X0045342Y0059440D01*
X0045400Y0059656D01*
X0045400Y0049944D01*
X0045400Y0050378D02*
X0045216Y0050378D01*
X0045031Y0050976D02*
X0045400Y0050976D01*
X0045400Y0051575D02*
X0045031Y0051575D01*
X0045031Y0052173D02*
X0045400Y0052173D01*
X0045400Y0052772D02*
X0045031Y0052772D01*
X0045031Y0053370D02*
X0045400Y0053370D01*
X0045400Y0053969D02*
X0044833Y0053969D01*
X0045400Y0054568D02*
X0041776Y0054568D01*
X0041909Y0055166D02*
X0045400Y0055166D01*
X0045400Y0055765D02*
X0044966Y0055765D01*
X0045031Y0056363D02*
X0045400Y0056363D01*
X0045400Y0056962D02*
X0045031Y0056962D01*
X0045031Y0057560D02*
X0045400Y0057560D01*
X0045400Y0058159D02*
X0045031Y0058159D01*
X0045031Y0058757D02*
X0045400Y0058757D01*
X0045400Y0059356D02*
X0045293Y0059356D01*
X0041882Y0061000D02*
X0038933Y0061000D01*
X0038933Y0059771D01*
X0039022Y0059440D01*
X0039193Y0059144D01*
X0039333Y0059003D01*
X0039333Y0057800D01*
X0028802Y0057800D01*
X0028519Y0058482D01*
X0027561Y0059440D01*
X0031921Y0063800D01*
X0039333Y0063800D01*
X0039333Y0063597D01*
X0039193Y0063456D01*
X0039022Y0063160D01*
X0038933Y0062829D01*
X0038933Y0061600D01*
X0041882Y0061600D01*
X0041882Y0061000D01*
X0041882Y0061151D02*
X0029272Y0061151D01*
X0028674Y0060553D02*
X0038933Y0060553D01*
X0038933Y0059954D02*
X0028075Y0059954D01*
X0027646Y0059356D02*
X0039070Y0059356D01*
X0039333Y0058757D02*
X0028244Y0058757D01*
X0028653Y0058159D02*
X0039333Y0058159D01*
X0038933Y0061750D02*
X0029871Y0061750D01*
X0030469Y0062348D02*
X0038933Y0062348D01*
X0038964Y0062947D02*
X0031068Y0062947D01*
X0031666Y0063545D02*
X0039282Y0063545D01*
X0049200Y0063545D02*
X0049569Y0063545D01*
X0049569Y0064144D02*
X0049200Y0064144D01*
X0049200Y0064742D02*
X0049569Y0064742D01*
X0049569Y0065341D02*
X0049200Y0065341D01*
X0049200Y0065939D02*
X0049569Y0065939D01*
X0049569Y0066538D02*
X0049200Y0066538D01*
X0049200Y0067136D02*
X0049934Y0067136D01*
X0049200Y0067735D02*
X0096277Y0067735D01*
X0096831Y0067181D02*
X0096027Y0066377D01*
X0094704Y0067700D01*
X0086460Y0067700D01*
X0085640Y0066880D01*
X0070913Y0052153D01*
X0066108Y0052153D01*
X0065581Y0051626D01*
X0065581Y0044974D01*
X0066108Y0044447D01*
X0071972Y0044447D01*
X0072499Y0044974D01*
X0072499Y0049779D01*
X0087620Y0064900D01*
X0093544Y0064900D01*
X0094047Y0064397D01*
X0092964Y0063314D01*
X0092964Y0063284D01*
X0092935Y0063284D01*
X0091572Y0061922D01*
X0091572Y0061892D01*
X0091543Y0061892D01*
X0090180Y0060530D01*
X0090180Y0060500D01*
X0090151Y0060500D01*
X0088788Y0059138D01*
X0088788Y0059108D01*
X0088759Y0059108D01*
X0087396Y0057746D01*
X0087396Y0057716D01*
X0087367Y0057716D01*
X0086004Y0056354D01*
X0086004Y0055609D01*
X0089872Y0051741D01*
X0090618Y0051741D01*
X0091980Y0053103D01*
X0091980Y0053133D01*
X0092010Y0053133D01*
X0093372Y0054495D01*
X0093372Y0054525D01*
X0093402Y0054525D01*
X0094764Y0055887D01*
X0094764Y0055916D01*
X0094794Y0055916D01*
X0096156Y0057279D01*
X0096156Y0057308D01*
X0096186Y0057308D01*
X0097548Y0058671D01*
X0097548Y0058700D01*
X0097578Y0058700D01*
X0098940Y0060063D01*
X0098940Y0060092D01*
X0098969Y0060092D01*
X0100332Y0061455D01*
X0100332Y0061484D01*
X0100361Y0061484D01*
X0101724Y0062847D01*
X0101724Y0062876D01*
X0101753Y0062876D01*
X0102837Y0063959D01*
X0104050Y0062746D01*
X0104050Y0061368D01*
X0105368Y0060050D01*
X0107232Y0060050D01*
X0108550Y0061368D01*
X0108550Y0063232D01*
X0107232Y0064550D01*
X0106206Y0064550D01*
X0104816Y0065939D01*
X0105900Y0067022D01*
X0105900Y0067052D01*
X0105929Y0067052D01*
X0107292Y0068414D01*
X0107292Y0068444D01*
X0107321Y0068444D01*
X0108683Y0069806D01*
X0108683Y0069836D01*
X0108713Y0069836D01*
X0110075Y0071198D01*
X0110075Y0071228D01*
X0110105Y0071228D01*
X0111467Y0072590D01*
X0111467Y0072620D01*
X0111497Y0072620D01*
X0112859Y0073982D01*
X0112859Y0074728D01*
X0108991Y0078596D01*
X0108246Y0078596D01*
X0106884Y0077233D01*
X0106884Y0077204D01*
X0106854Y0077204D01*
X0105492Y0075841D01*
X0105492Y0075812D01*
X0105462Y0075812D01*
X0104100Y0074449D01*
X0104100Y0074420D01*
X0104070Y0074420D01*
X0102708Y0073057D01*
X0102708Y0073028D01*
X0102678Y0073028D01*
X0102550Y0072900D01*
X0102550Y0074232D01*
X0101232Y0075550D01*
X0099368Y0075550D01*
X0098050Y0074232D01*
X0098050Y0072368D01*
X0098900Y0071518D01*
X0098900Y0070680D01*
X0099615Y0069965D01*
X0098811Y0069161D01*
X0095577Y0072395D01*
X0096742Y0073561D01*
X0096742Y0074306D01*
X0092596Y0078453D01*
X0091850Y0078453D01*
X0087147Y0073750D01*
X0087147Y0073004D01*
X0091294Y0068858D01*
X0092039Y0068858D01*
X0093597Y0070415D01*
X0096831Y0067181D01*
X0096787Y0067136D02*
X0095268Y0067136D01*
X0095866Y0066538D02*
X0096188Y0066538D01*
X0095679Y0068333D02*
X0054771Y0068333D01*
X0055267Y0068932D02*
X0091220Y0068932D01*
X0090621Y0069530D02*
X0058911Y0069530D01*
X0059510Y0070129D02*
X0090023Y0070129D01*
X0089424Y0070727D02*
X0072252Y0070727D01*
X0072499Y0070974D02*
X0071972Y0070447D01*
X0066108Y0070447D01*
X0065581Y0070974D01*
X0065581Y0077626D01*
X0066108Y0078153D01*
X0071972Y0078153D01*
X0072499Y0077626D01*
X0072499Y0075700D01*
X0073518Y0075700D01*
X0074368Y0076550D01*
X0076232Y0076550D01*
X0077550Y0075232D01*
X0077550Y0073368D01*
X0076232Y0072050D01*
X0074368Y0072050D01*
X0073518Y0072900D01*
X0072499Y0072900D01*
X0072499Y0070974D01*
X0072499Y0071326D02*
X0088826Y0071326D01*
X0088227Y0071924D02*
X0072499Y0071924D01*
X0072499Y0072523D02*
X0073895Y0072523D01*
X0076705Y0072523D02*
X0087629Y0072523D01*
X0087147Y0073121D02*
X0077303Y0073121D01*
X0077550Y0073720D02*
X0087147Y0073720D01*
X0087487Y0074318D02*
X0087716Y0074318D01*
X0088085Y0074917D02*
X0088314Y0074917D01*
X0088684Y0075515D02*
X0088913Y0075515D01*
X0089062Y0076114D02*
X0089511Y0076114D01*
X0089596Y0076428D02*
X0091593Y0078425D01*
X0091764Y0078721D01*
X0091853Y0079052D01*
X0091853Y0079394D01*
X0091764Y0079725D01*
X0091593Y0080021D01*
X0089875Y0081740D01*
X0087080Y0078945D01*
X0089596Y0076428D01*
X0089312Y0076712D02*
X0088463Y0076712D01*
X0088713Y0077311D02*
X0087865Y0077311D01*
X0088115Y0077909D02*
X0087266Y0077909D01*
X0087516Y0078508D02*
X0086668Y0078508D01*
X0086643Y0078508D02*
X0085794Y0078508D01*
X0086044Y0077909D02*
X0085196Y0077909D01*
X0085446Y0077311D02*
X0084597Y0077311D01*
X0084847Y0076712D02*
X0083999Y0076712D01*
X0084249Y0076114D02*
X0076668Y0076114D01*
X0077267Y0075515D02*
X0084070Y0075515D01*
X0084669Y0074917D02*
X0077550Y0074917D01*
X0077550Y0074318D02*
X0085267Y0074318D01*
X0082873Y0076712D02*
X0072499Y0076712D01*
X0072499Y0076114D02*
X0073932Y0076114D01*
X0072499Y0077311D02*
X0082275Y0077311D01*
X0081694Y0077909D02*
X0072215Y0077909D01*
X0065865Y0077909D02*
X0064735Y0077909D01*
X0065019Y0077311D02*
X0065581Y0077311D01*
X0065581Y0076712D02*
X0065019Y0076712D01*
X0065019Y0076114D02*
X0065581Y0076114D01*
X0065581Y0075515D02*
X0065019Y0075515D01*
X0065019Y0074917D02*
X0065581Y0074917D01*
X0065581Y0074318D02*
X0065019Y0074318D01*
X0065019Y0073720D02*
X0065581Y0073720D01*
X0065581Y0073121D02*
X0065019Y0073121D01*
X0065019Y0072523D02*
X0065581Y0072523D01*
X0065581Y0071924D02*
X0065019Y0071924D01*
X0065019Y0071326D02*
X0065581Y0071326D01*
X0065828Y0070727D02*
X0064772Y0070727D01*
X0058443Y0066538D02*
X0085298Y0066538D01*
X0085897Y0067136D02*
X0054902Y0067136D01*
X0059042Y0065939D02*
X0084699Y0065939D01*
X0084101Y0065341D02*
X0059640Y0065341D01*
X0064902Y0064742D02*
X0065698Y0064742D01*
X0065581Y0064626D02*
X0065581Y0057974D01*
X0066108Y0057447D01*
X0071972Y0057447D01*
X0072499Y0057974D01*
X0072499Y0059900D01*
X0074880Y0059900D01*
X0075030Y0060050D01*
X0076232Y0060050D01*
X0077550Y0061368D01*
X0077550Y0063232D01*
X0076232Y0064550D01*
X0074368Y0064550D01*
X0073050Y0063232D01*
X0073050Y0062700D01*
X0072499Y0062700D01*
X0072499Y0064626D01*
X0071972Y0065153D01*
X0066108Y0065153D01*
X0065581Y0064626D01*
X0065581Y0064144D02*
X0065019Y0064144D01*
X0065019Y0063545D02*
X0065581Y0063545D01*
X0065581Y0062947D02*
X0065019Y0062947D01*
X0065019Y0062348D02*
X0065581Y0062348D01*
X0065581Y0061750D02*
X0065019Y0061750D01*
X0065019Y0061151D02*
X0065581Y0061151D01*
X0065581Y0060553D02*
X0065019Y0060553D01*
X0065019Y0059954D02*
X0065581Y0059954D01*
X0065581Y0059356D02*
X0065019Y0059356D01*
X0065019Y0058757D02*
X0065581Y0058757D01*
X0065581Y0058159D02*
X0065019Y0058159D01*
X0064605Y0057560D02*
X0065995Y0057560D01*
X0072085Y0057560D02*
X0076320Y0057560D01*
X0075722Y0056962D02*
X0059343Y0056962D01*
X0058744Y0056363D02*
X0075123Y0056363D01*
X0074525Y0055765D02*
X0055203Y0055765D01*
X0055069Y0053969D02*
X0072729Y0053969D01*
X0072131Y0053370D02*
X0058611Y0053370D01*
X0059209Y0052772D02*
X0071532Y0052772D01*
X0070934Y0052173D02*
X0059808Y0052173D01*
X0065019Y0051575D02*
X0065581Y0051575D01*
X0065581Y0050976D02*
X0065019Y0050976D01*
X0065019Y0050378D02*
X0065581Y0050378D01*
X0065581Y0049779D02*
X0065019Y0049779D01*
X0065019Y0049181D02*
X0065581Y0049181D01*
X0065581Y0048582D02*
X0065019Y0048582D01*
X0065019Y0047984D02*
X0065581Y0047984D01*
X0065581Y0047385D02*
X0065019Y0047385D01*
X0065019Y0046787D02*
X0065581Y0046787D01*
X0065581Y0046188D02*
X0065019Y0046188D01*
X0065019Y0045590D02*
X0065581Y0045590D01*
X0065581Y0044991D02*
X0065019Y0044991D01*
X0059774Y0044393D02*
X0087406Y0044393D01*
X0088004Y0044991D02*
X0072499Y0044991D01*
X0072499Y0045590D02*
X0088603Y0045590D01*
X0089201Y0046188D02*
X0072499Y0046188D01*
X0072499Y0046787D02*
X0089800Y0046787D01*
X0090690Y0046787D02*
X0134807Y0046787D01*
X0135405Y0047385D02*
X0072499Y0047385D01*
X0072499Y0047984D02*
X0136004Y0047984D01*
X0136603Y0048582D02*
X0072499Y0048582D01*
X0072499Y0049181D02*
X0136439Y0049181D01*
X0135841Y0049779D02*
X0072499Y0049779D01*
X0073098Y0050378D02*
X0135242Y0050378D01*
X0134644Y0050976D02*
X0073696Y0050976D01*
X0074295Y0051575D02*
X0134045Y0051575D01*
X0133900Y0052173D02*
X0091051Y0052173D01*
X0091649Y0052772D02*
X0133900Y0052772D01*
X0133900Y0053370D02*
X0092248Y0053370D01*
X0092846Y0053969D02*
X0133900Y0053969D01*
X0133900Y0054568D02*
X0093445Y0054568D01*
X0094043Y0055166D02*
X0134186Y0055166D01*
X0134785Y0055765D02*
X0094642Y0055765D01*
X0095240Y0056363D02*
X0135360Y0056363D01*
X0134761Y0056962D02*
X0095839Y0056962D01*
X0096437Y0057560D02*
X0134163Y0057560D01*
X0133564Y0058159D02*
X0097036Y0058159D01*
X0097634Y0058757D02*
X0132966Y0058757D01*
X0132367Y0059356D02*
X0098233Y0059356D01*
X0098831Y0059954D02*
X0131769Y0059954D01*
X0131170Y0060553D02*
X0107735Y0060553D01*
X0108333Y0061151D02*
X0130572Y0061151D01*
X0129973Y0061750D02*
X0108550Y0061750D01*
X0108550Y0062348D02*
X0129375Y0062348D01*
X0128210Y0062947D02*
X0108550Y0062947D01*
X0108237Y0063545D02*
X0127612Y0063545D01*
X0128153Y0063545D02*
X0128153Y0063545D01*
X0128752Y0064144D02*
X0128752Y0064144D01*
X0129350Y0064742D02*
X0129350Y0064742D01*
X0129949Y0065341D02*
X0129949Y0065341D01*
X0130472Y0065864D02*
X0133062Y0068454D01*
X0132660Y0068856D01*
X0136400Y0072596D01*
X0136400Y0072582D01*
X0136050Y0072232D01*
X0136050Y0070368D01*
X0136400Y0070018D01*
X0136400Y0069224D01*
X0137513Y0068111D01*
X0137588Y0068036D01*
X0136858Y0067306D01*
X0136858Y0066561D01*
X0137199Y0066219D01*
X0135965Y0064985D01*
X0134882Y0066068D01*
X0134852Y0066068D01*
X0134852Y0066098D01*
X0133860Y0067090D01*
X0133860Y0067288D01*
X0133771Y0067619D01*
X0133600Y0067915D01*
X0133062Y0068454D01*
X0130472Y0065864D01*
X0130472Y0065864D01*
X0130547Y0065939D02*
X0130547Y0065939D01*
X0131146Y0066538D02*
X0131146Y0066538D01*
X0131744Y0067136D02*
X0131744Y0067136D01*
X0132343Y0067735D02*
X0132343Y0067735D01*
X0132941Y0068333D02*
X0132941Y0068333D01*
X0133182Y0068333D02*
X0137290Y0068333D01*
X0137513Y0068111D02*
X0137513Y0068111D01*
X0137286Y0067735D02*
X0133704Y0067735D01*
X0133860Y0067136D02*
X0136858Y0067136D01*
X0136881Y0066538D02*
X0134412Y0066538D01*
X0135010Y0065939D02*
X0136919Y0065939D01*
X0136321Y0065341D02*
X0135609Y0065341D01*
X0136692Y0068932D02*
X0132736Y0068932D01*
X0133334Y0069530D02*
X0136400Y0069530D01*
X0136289Y0070129D02*
X0133933Y0070129D01*
X0134531Y0070727D02*
X0136050Y0070727D01*
X0136050Y0071326D02*
X0135130Y0071326D01*
X0135728Y0071924D02*
X0136050Y0071924D01*
X0136327Y0072523D02*
X0136341Y0072523D01*
X0140550Y0071326D02*
X0140877Y0071326D01*
X0140611Y0071924D02*
X0141781Y0071924D01*
X0141747Y0072052D02*
X0141836Y0071721D01*
X0142007Y0071425D01*
X0144004Y0069428D01*
X0146520Y0071945D01*
X0143725Y0074740D01*
X0142007Y0073021D01*
X0141836Y0072725D01*
X0141747Y0072394D01*
X0141747Y0072052D01*
X0141782Y0072523D02*
X0141210Y0072523D01*
X0141808Y0073121D02*
X0142107Y0073121D01*
X0142407Y0073720D02*
X0142706Y0073720D01*
X0143005Y0074318D02*
X0143304Y0074318D01*
X0143604Y0074917D02*
X0144397Y0074917D01*
X0144150Y0075164D02*
X0145868Y0076882D01*
X0146165Y0077054D01*
X0146495Y0077142D01*
X0146837Y0077142D01*
X0147168Y0077054D01*
X0147465Y0076882D01*
X0149461Y0074886D01*
X0146945Y0072369D01*
X0147369Y0071945D01*
X0149886Y0074461D01*
X0151882Y0072465D01*
X0152054Y0072168D01*
X0152142Y0071837D01*
X0152142Y0071495D01*
X0152054Y0071165D01*
X0151902Y0070902D01*
X0152165Y0071054D01*
X0152495Y0071142D01*
X0152837Y0071142D01*
X0153168Y0071054D01*
X0153465Y0070882D01*
X0155461Y0068886D01*
X0152945Y0066369D01*
X0153369Y0065945D01*
X0155886Y0068461D01*
X0157882Y0066465D01*
X0158054Y0066168D01*
X0158142Y0065837D01*
X0158142Y0065495D01*
X0158054Y0065165D01*
X0157882Y0064868D01*
X0156164Y0063150D01*
X0153369Y0065945D01*
X0152945Y0065520D01*
X0155740Y0062725D01*
X0154021Y0061007D01*
X0153725Y0060836D01*
X0153394Y0060747D01*
X0153052Y0060747D01*
X0152721Y0060836D01*
X0152425Y0061007D01*
X0150428Y0063004D01*
X0152945Y0065520D01*
X0152520Y0065945D01*
X0149725Y0068740D01*
X0146945Y0071520D01*
X0147369Y0071945D01*
X0150150Y0069164D01*
X0152945Y0066369D01*
X0152520Y0065945D01*
X0150004Y0063428D01*
X0148007Y0065425D01*
X0147836Y0065721D01*
X0147747Y0066052D01*
X0147747Y0066394D01*
X0147836Y0066725D01*
X0147988Y0066988D01*
X0147725Y0066836D01*
X0147394Y0066747D01*
X0147052Y0066747D01*
X0146721Y0066836D01*
X0146425Y0067007D01*
X0144428Y0069004D01*
X0146945Y0071520D01*
X0146520Y0071945D01*
X0146945Y0072369D01*
X0144150Y0075164D01*
X0144202Y0075515D02*
X0144501Y0075515D01*
X0144801Y0076114D02*
X0145100Y0076114D01*
X0145399Y0076712D02*
X0145698Y0076712D01*
X0145998Y0077311D02*
X0152602Y0077311D01*
X0152004Y0077909D02*
X0146596Y0077909D01*
X0147634Y0076712D02*
X0153201Y0076712D01*
X0154447Y0076114D02*
X0148233Y0076114D01*
X0148831Y0075515D02*
X0154447Y0075515D01*
X0154447Y0074917D02*
X0149430Y0074917D01*
X0149743Y0074318D02*
X0148894Y0074318D01*
X0149144Y0073720D02*
X0148296Y0073720D01*
X0148546Y0073121D02*
X0147697Y0073121D01*
X0147947Y0072523D02*
X0147099Y0072523D01*
X0146791Y0072523D02*
X0145942Y0072523D01*
X0146192Y0073121D02*
X0145344Y0073121D01*
X0145594Y0073720D02*
X0144745Y0073720D01*
X0144995Y0074318D02*
X0144147Y0074318D01*
X0146500Y0071924D02*
X0146541Y0071924D01*
X0146750Y0071326D02*
X0145902Y0071326D01*
X0146152Y0070727D02*
X0145303Y0070727D01*
X0145553Y0070129D02*
X0144705Y0070129D01*
X0144955Y0069530D02*
X0144106Y0069530D01*
X0143902Y0069530D02*
X0143672Y0069530D01*
X0143303Y0070129D02*
X0143074Y0070129D01*
X0142705Y0070727D02*
X0142475Y0070727D01*
X0142106Y0071326D02*
X0141877Y0071326D01*
X0144271Y0068932D02*
X0144500Y0068932D01*
X0144869Y0068333D02*
X0145099Y0068333D01*
X0145468Y0067735D02*
X0145697Y0067735D01*
X0146066Y0067136D02*
X0146296Y0067136D01*
X0146453Y0066538D02*
X0147786Y0066538D01*
X0147777Y0065939D02*
X0146388Y0065939D01*
X0146892Y0065341D02*
X0145789Y0065341D01*
X0146255Y0064742D02*
X0146294Y0064742D01*
X0147862Y0065341D02*
X0148091Y0065341D01*
X0148460Y0064742D02*
X0148690Y0064742D01*
X0149059Y0064144D02*
X0149288Y0064144D01*
X0149657Y0063545D02*
X0149887Y0063545D01*
X0150121Y0063545D02*
X0150969Y0063545D01*
X0150719Y0064144D02*
X0151568Y0064144D01*
X0151318Y0064742D02*
X0152166Y0064742D01*
X0151916Y0065341D02*
X0152765Y0065341D01*
X0153124Y0065341D02*
X0153973Y0065341D01*
X0153723Y0064742D02*
X0154571Y0064742D01*
X0154321Y0064144D02*
X0155170Y0064144D01*
X0154920Y0063545D02*
X0155768Y0063545D01*
X0155518Y0062947D02*
X0164400Y0062947D01*
X0164400Y0063545D02*
X0156559Y0063545D01*
X0157158Y0064144D02*
X0164400Y0064144D01*
X0164400Y0064742D02*
X0157756Y0064742D01*
X0158101Y0065341D02*
X0164400Y0065341D01*
X0164400Y0065939D02*
X0158115Y0065939D01*
X0157809Y0066538D02*
X0164400Y0066538D01*
X0164037Y0067136D02*
X0157211Y0067136D01*
X0156612Y0067735D02*
X0163438Y0067735D01*
X0162840Y0068333D02*
X0156014Y0068333D01*
X0155757Y0068333D02*
X0154909Y0068333D01*
X0155159Y0067735D02*
X0154311Y0067735D01*
X0154560Y0067136D02*
X0153712Y0067136D01*
X0153962Y0066538D02*
X0153113Y0066538D01*
X0152776Y0066538D02*
X0151927Y0066538D01*
X0152177Y0067136D02*
X0151329Y0067136D01*
X0151579Y0067735D02*
X0150730Y0067735D01*
X0150980Y0068333D02*
X0150132Y0068333D01*
X0149725Y0068740D02*
X0149725Y0068740D01*
X0149533Y0068932D02*
X0150382Y0068932D01*
X0149783Y0069530D02*
X0148935Y0069530D01*
X0149185Y0070129D02*
X0148336Y0070129D01*
X0148586Y0070727D02*
X0147738Y0070727D01*
X0147988Y0071326D02*
X0147139Y0071326D01*
X0147349Y0071924D02*
X0147389Y0071924D01*
X0150627Y0073720D02*
X0154447Y0073720D01*
X0154447Y0074318D02*
X0150028Y0074318D01*
X0151226Y0073121D02*
X0154447Y0073121D01*
X0154552Y0072523D02*
X0151824Y0072523D01*
X0152119Y0071924D02*
X0159248Y0071924D01*
X0159847Y0071326D02*
X0152097Y0071326D01*
X0153620Y0070727D02*
X0160446Y0070727D01*
X0161044Y0070129D02*
X0154218Y0070129D01*
X0154817Y0069530D02*
X0161643Y0069530D01*
X0162241Y0068932D02*
X0155415Y0068932D01*
X0153374Y0065939D02*
X0153364Y0065939D01*
X0152526Y0065939D02*
X0152515Y0065939D01*
X0150485Y0062947D02*
X0150256Y0062947D01*
X0150854Y0062348D02*
X0151084Y0062348D01*
X0151453Y0061750D02*
X0151682Y0061750D01*
X0152051Y0061151D02*
X0152281Y0061151D01*
X0152453Y0060553D02*
X0164400Y0060553D01*
X0164400Y0061151D02*
X0154165Y0061151D01*
X0154764Y0061750D02*
X0164400Y0061750D01*
X0164400Y0062348D02*
X0155362Y0062348D01*
X0152403Y0059954D02*
X0164400Y0059954D01*
X0164400Y0059356D02*
X0151804Y0059356D01*
X0151206Y0058757D02*
X0164400Y0058757D01*
X0164754Y0058159D02*
X0150607Y0058159D01*
X0150009Y0057560D02*
X0165353Y0057560D01*
X0165951Y0056962D02*
X0149410Y0056962D01*
X0148812Y0056363D02*
X0166550Y0056363D01*
X0167148Y0055765D02*
X0144596Y0055765D01*
X0144587Y0056363D02*
X0147056Y0056363D01*
X0146457Y0056962D02*
X0143988Y0056962D01*
X0143390Y0057560D02*
X0145859Y0057560D01*
X0145260Y0058159D02*
X0142791Y0058159D01*
X0142193Y0058757D02*
X0144662Y0058757D01*
X0144153Y0055166D02*
X0167747Y0055166D01*
X0168345Y0054568D02*
X0143555Y0054568D01*
X0142956Y0053969D02*
X0170230Y0053969D01*
X0170828Y0053370D02*
X0142358Y0053370D01*
X0141759Y0052772D02*
X0171797Y0052772D01*
X0172351Y0050448D02*
X0171715Y0050241D01*
X0171118Y0049937D01*
X0170577Y0049544D01*
X0170103Y0049070D01*
X0169710Y0048529D01*
X0169406Y0047932D01*
X0169199Y0047296D01*
X0169094Y0046635D01*
X0169094Y0046600D01*
X0176000Y0046600D01*
X0176000Y0050553D01*
X0173013Y0050553D01*
X0172351Y0050448D01*
X0172136Y0050378D02*
X0139202Y0050378D01*
X0139700Y0049779D02*
X0170901Y0049779D01*
X0170214Y0049181D02*
X0139700Y0049181D01*
X0139700Y0048582D02*
X0169749Y0048582D01*
X0169432Y0047984D02*
X0139700Y0047984D01*
X0139365Y0047385D02*
X0169228Y0047385D01*
X0169119Y0046787D02*
X0140800Y0046787D01*
X0141399Y0046188D02*
X0176000Y0046188D01*
X0176000Y0046000D02*
X0169094Y0046000D01*
X0169094Y0045965D01*
X0169199Y0045304D01*
X0169406Y0044667D01*
X0169710Y0044071D01*
X0170103Y0043530D01*
X0170577Y0043056D01*
X0171118Y0042663D01*
X0171715Y0042359D01*
X0172351Y0042152D01*
X0173013Y0042047D01*
X0176000Y0042047D01*
X0176000Y0046000D01*
X0176600Y0046000D01*
X0176600Y0046600D01*
X0176000Y0046600D01*
X0176000Y0046000D01*
X0176000Y0045590D02*
X0176600Y0045590D01*
X0176600Y0046000D02*
X0176600Y0042047D01*
X0179587Y0042047D01*
X0180249Y0042152D01*
X0180885Y0042359D01*
X0181482Y0042663D01*
X0182023Y0043056D01*
X0182497Y0043530D01*
X0182890Y0044071D01*
X0183194Y0044667D01*
X0183401Y0045304D01*
X0183505Y0045965D01*
X0183505Y0046000D01*
X0176600Y0046000D01*
X0176600Y0046188D02*
X0195201Y0046188D01*
X0195201Y0045590D02*
X0183446Y0045590D01*
X0183299Y0044991D02*
X0195201Y0044991D01*
X0195201Y0044393D02*
X0183054Y0044393D01*
X0182689Y0043794D02*
X0195201Y0043794D01*
X0195201Y0043196D02*
X0182163Y0043196D01*
X0181353Y0042597D02*
X0195201Y0042597D01*
X0195201Y0041999D02*
X0144348Y0041999D01*
X0144596Y0042597D02*
X0171247Y0042597D01*
X0170437Y0043196D02*
X0144391Y0043196D01*
X0143793Y0043794D02*
X0169911Y0043794D01*
X0169546Y0044393D02*
X0143194Y0044393D01*
X0142596Y0044991D02*
X0169301Y0044991D01*
X0169154Y0045590D02*
X0141997Y0045590D01*
X0139910Y0046787D02*
X0138767Y0046787D01*
X0139311Y0046188D02*
X0138168Y0046188D01*
X0138713Y0045590D02*
X0137570Y0045590D01*
X0138114Y0044991D02*
X0136971Y0044991D01*
X0137516Y0044393D02*
X0136373Y0044393D01*
X0136917Y0043794D02*
X0135774Y0043794D01*
X0136319Y0043196D02*
X0135176Y0043196D01*
X0135720Y0042597D02*
X0134577Y0042597D01*
X0135122Y0041999D02*
X0133979Y0041999D01*
X0134523Y0041400D02*
X0133380Y0041400D01*
X0133925Y0040802D02*
X0132782Y0040802D01*
X0133326Y0040203D02*
X0132183Y0040203D01*
X0131700Y0039605D02*
X0132728Y0039605D01*
X0132129Y0039006D02*
X0131749Y0039006D01*
X0128900Y0039006D02*
X0098471Y0039006D01*
X0099069Y0038408D02*
X0128900Y0038408D01*
X0128987Y0037809D02*
X0099668Y0037809D01*
X0100266Y0037211D02*
X0129585Y0037211D01*
X0129380Y0036612D02*
X0129380Y0036612D01*
X0129169Y0036612D02*
X0100865Y0036612D01*
X0101920Y0036014D02*
X0128641Y0036014D01*
X0128476Y0035415D02*
X0108165Y0035415D01*
X0108763Y0034817D02*
X0127939Y0034817D01*
X0127341Y0034218D02*
X0109362Y0034218D01*
X0109960Y0033620D02*
X0126742Y0033620D01*
X0126144Y0033021D02*
X0110559Y0033021D01*
X0111157Y0032423D02*
X0125545Y0032423D01*
X0124947Y0031824D02*
X0111756Y0031824D01*
X0112354Y0031226D02*
X0124348Y0031226D01*
X0123750Y0030627D02*
X0120641Y0030627D01*
X0121240Y0030029D02*
X0122586Y0030029D01*
X0122642Y0029430D02*
X0122643Y0029430D01*
X0121987Y0029430D02*
X0121838Y0029430D01*
X0123241Y0028832D02*
X0123241Y0028832D01*
X0123839Y0028233D02*
X0123840Y0028233D01*
X0124438Y0027634D02*
X0124438Y0027634D01*
X0124904Y0027168D02*
X0124904Y0027168D01*
X0124905Y0027168D01*
X0127494Y0024579D01*
X0128033Y0025117D01*
X0128204Y0025414D01*
X0128292Y0025744D01*
X0128292Y0025943D01*
X0129284Y0026935D01*
X0129284Y0026964D01*
X0129314Y0026964D01*
X0130676Y0028326D01*
X0130676Y0028356D01*
X0130706Y0028356D01*
X0132068Y0029718D01*
X0132068Y0029748D01*
X0132098Y0029748D01*
X0133090Y0030740D01*
X0133288Y0030740D01*
X0133619Y0030829D01*
X0133915Y0031000D01*
X0134454Y0031538D01*
X0134856Y0031940D01*
X0136307Y0030489D01*
X0134858Y0029039D01*
X0134858Y0028545D01*
X0130055Y0023742D01*
X0129561Y0023742D01*
X0128544Y0022725D01*
X0127092Y0024177D01*
X0127494Y0024579D01*
X0124904Y0027168D01*
X0125036Y0027036D02*
X0125037Y0027036D01*
X0125635Y0026437D02*
X0125635Y0026437D01*
X0126233Y0025839D02*
X0126234Y0025839D01*
X0126832Y0025240D02*
X0126832Y0025240D01*
X0127430Y0024642D02*
X0127431Y0024642D01*
X0127557Y0024642D02*
X0130955Y0024642D01*
X0131553Y0025240D02*
X0128104Y0025240D01*
X0128292Y0025839D02*
X0132152Y0025839D01*
X0132750Y0026437D02*
X0128787Y0026437D01*
X0129386Y0027036D02*
X0133349Y0027036D01*
X0133948Y0027634D02*
X0129984Y0027634D01*
X0130583Y0028233D02*
X0134546Y0028233D01*
X0134858Y0028832D02*
X0131181Y0028832D01*
X0131780Y0029430D02*
X0135249Y0029430D01*
X0135847Y0030029D02*
X0132378Y0030029D01*
X0132977Y0030627D02*
X0136169Y0030627D01*
X0135570Y0031226D02*
X0134141Y0031226D01*
X0134454Y0031538D02*
X0131864Y0034128D01*
X0134454Y0031538D01*
X0134739Y0031824D02*
X0134972Y0031824D01*
X0134168Y0031824D02*
X0134168Y0031824D01*
X0133569Y0032423D02*
X0133569Y0032423D01*
X0132971Y0033021D02*
X0132971Y0033021D01*
X0132372Y0033620D02*
X0132372Y0033620D01*
X0131864Y0034128D02*
X0131864Y0034128D01*
X0131774Y0034218D02*
X0131774Y0034218D01*
X0131175Y0034817D02*
X0131175Y0034817D01*
X0130577Y0035415D02*
X0130577Y0035415D01*
X0129978Y0036014D02*
X0129978Y0036014D01*
X0128900Y0039605D02*
X0097872Y0039605D01*
X0097274Y0040203D02*
X0128900Y0040203D01*
X0128900Y0040802D02*
X0096675Y0040802D01*
X0096077Y0041400D02*
X0129420Y0041400D01*
X0130019Y0041999D02*
X0095478Y0041999D01*
X0094880Y0042597D02*
X0130617Y0042597D01*
X0131216Y0043196D02*
X0094281Y0043196D01*
X0093683Y0043794D02*
X0131814Y0043794D01*
X0132413Y0044393D02*
X0093084Y0044393D01*
X0092486Y0044991D02*
X0133011Y0044991D01*
X0133610Y0045590D02*
X0091887Y0045590D01*
X0091289Y0046188D02*
X0134208Y0046188D01*
X0138603Y0050976D02*
X0195201Y0050976D01*
X0195201Y0050378D02*
X0180464Y0050378D01*
X0180249Y0050448D02*
X0179587Y0050553D01*
X0176600Y0050553D01*
X0176600Y0046600D01*
X0183505Y0046600D01*
X0183505Y0046635D01*
X0183401Y0047296D01*
X0183194Y0047932D01*
X0182890Y0048529D01*
X0182497Y0049070D01*
X0182023Y0049544D01*
X0181482Y0049937D01*
X0180885Y0050241D01*
X0180249Y0050448D01*
X0181699Y0049779D02*
X0195201Y0049779D01*
X0195201Y0049181D02*
X0182386Y0049181D01*
X0182851Y0048582D02*
X0195201Y0048582D01*
X0195201Y0047984D02*
X0183168Y0047984D01*
X0183372Y0047385D02*
X0195201Y0047385D01*
X0195201Y0046787D02*
X0183481Y0046787D01*
X0176600Y0046787D02*
X0176000Y0046787D01*
X0176000Y0047385D02*
X0176600Y0047385D01*
X0176600Y0047984D02*
X0176000Y0047984D01*
X0176000Y0048582D02*
X0176600Y0048582D01*
X0176600Y0049181D02*
X0176000Y0049181D01*
X0176000Y0049779D02*
X0176600Y0049779D01*
X0176600Y0050378D02*
X0176000Y0050378D01*
X0180803Y0052772D02*
X0195201Y0052772D01*
X0195201Y0053370D02*
X0181772Y0053370D01*
X0182370Y0053969D02*
X0195201Y0053969D01*
X0195201Y0054568D02*
X0182705Y0054568D01*
X0182953Y0055166D02*
X0195201Y0055166D01*
X0195201Y0055765D02*
X0183105Y0055765D01*
X0183105Y0056363D02*
X0195201Y0056363D01*
X0195201Y0056962D02*
X0183105Y0056962D01*
X0182901Y0057560D02*
X0195201Y0057560D01*
X0195201Y0058159D02*
X0182653Y0058159D01*
X0182244Y0058757D02*
X0195201Y0058757D01*
X0195201Y0059356D02*
X0181646Y0059356D01*
X0180499Y0059954D02*
X0195201Y0059954D01*
X0195201Y0060553D02*
X0168200Y0060553D01*
X0168200Y0061151D02*
X0195201Y0061151D01*
X0195201Y0061750D02*
X0168200Y0061750D01*
X0168200Y0062348D02*
X0195201Y0062348D01*
X0195201Y0062947D02*
X0181225Y0062947D01*
X0181435Y0063034D02*
X0182519Y0064118D01*
X0183105Y0065534D01*
X0183105Y0067066D01*
X0182519Y0068482D01*
X0181435Y0069566D01*
X0180019Y0070153D01*
X0172581Y0070153D01*
X0171165Y0069566D01*
X0170081Y0068482D01*
X0169494Y0067066D01*
X0169494Y0065534D01*
X0170081Y0064118D01*
X0171165Y0063034D01*
X0172581Y0062447D01*
X0180019Y0062447D01*
X0181435Y0063034D01*
X0181947Y0063545D02*
X0195201Y0063545D01*
X0195201Y0064144D02*
X0182530Y0064144D01*
X0182778Y0064742D02*
X0195201Y0064742D01*
X0195201Y0065341D02*
X0183026Y0065341D01*
X0183105Y0065939D02*
X0195201Y0065939D01*
X0195201Y0066538D02*
X0183105Y0066538D01*
X0183077Y0067136D02*
X0195201Y0067136D01*
X0195201Y0067735D02*
X0182829Y0067735D01*
X0182581Y0068333D02*
X0195201Y0068333D01*
X0195201Y0068932D02*
X0182070Y0068932D01*
X0181471Y0069530D02*
X0195201Y0069530D01*
X0195201Y0070129D02*
X0180077Y0070129D01*
X0172523Y0070129D02*
X0166418Y0070129D01*
X0165820Y0070727D02*
X0195201Y0070727D01*
X0195201Y0071326D02*
X0165221Y0071326D01*
X0164622Y0071924D02*
X0195201Y0071924D01*
X0195201Y0072523D02*
X0164024Y0072523D01*
X0163425Y0073121D02*
X0195201Y0073121D01*
X0195201Y0073720D02*
X0162827Y0073720D01*
X0162228Y0074318D02*
X0195201Y0074318D01*
X0195201Y0074917D02*
X0162153Y0074917D01*
X0162153Y0075515D02*
X0195201Y0075515D01*
X0171129Y0069530D02*
X0167017Y0069530D01*
X0167615Y0068932D02*
X0170530Y0068932D01*
X0170019Y0068333D02*
X0168200Y0068333D01*
X0168200Y0067735D02*
X0169771Y0067735D01*
X0169523Y0067136D02*
X0168200Y0067136D01*
X0168200Y0066538D02*
X0169494Y0066538D01*
X0169494Y0065939D02*
X0168200Y0065939D01*
X0168200Y0065341D02*
X0169574Y0065341D01*
X0169822Y0064742D02*
X0168200Y0064742D01*
X0168200Y0064144D02*
X0170070Y0064144D01*
X0170653Y0063545D02*
X0168200Y0063545D01*
X0168200Y0062947D02*
X0171375Y0062947D01*
X0172101Y0059954D02*
X0168333Y0059954D01*
X0168931Y0059356D02*
X0170954Y0059356D01*
X0170356Y0058757D02*
X0169530Y0058757D01*
X0176000Y0044991D02*
X0176600Y0044991D01*
X0176600Y0044393D02*
X0176000Y0044393D01*
X0176000Y0043794D02*
X0176600Y0043794D01*
X0176600Y0043196D02*
X0176000Y0043196D01*
X0176000Y0042597D02*
X0176600Y0042597D01*
X0180019Y0040153D02*
X0172581Y0040153D01*
X0171165Y0039566D01*
X0170081Y0038482D01*
X0169494Y0037066D01*
X0169494Y0035534D01*
X0170081Y0034118D01*
X0171165Y0033034D01*
X0172581Y0032447D01*
X0180019Y0032447D01*
X0181435Y0033034D01*
X0182519Y0034118D01*
X0183105Y0035534D01*
X0183105Y0037066D01*
X0182519Y0038482D01*
X0181435Y0039566D01*
X0180019Y0040153D01*
X0181342Y0039605D02*
X0195201Y0039605D01*
X0195201Y0040203D02*
X0142553Y0040203D01*
X0141954Y0039605D02*
X0171258Y0039605D01*
X0170605Y0039006D02*
X0141356Y0039006D01*
X0140757Y0038408D02*
X0170050Y0038408D01*
X0169802Y0037809D02*
X0140159Y0037809D01*
X0139560Y0037211D02*
X0169554Y0037211D01*
X0169494Y0036612D02*
X0138962Y0036612D01*
X0138363Y0036014D02*
X0169494Y0036014D01*
X0169544Y0035415D02*
X0137765Y0035415D01*
X0137166Y0034817D02*
X0169791Y0034817D01*
X0170039Y0034218D02*
X0136568Y0034218D01*
X0137136Y0033620D02*
X0139438Y0033620D01*
X0138840Y0033021D02*
X0137735Y0033021D01*
X0140429Y0033620D02*
X0170579Y0033620D01*
X0171195Y0033021D02*
X0141027Y0033021D01*
X0141626Y0032423D02*
X0195201Y0032423D01*
X0195201Y0033021D02*
X0181405Y0033021D01*
X0182021Y0033620D02*
X0195201Y0033620D01*
X0195201Y0034218D02*
X0182561Y0034218D01*
X0182809Y0034817D02*
X0195201Y0034817D01*
X0195201Y0035415D02*
X0183056Y0035415D01*
X0183105Y0036014D02*
X0195201Y0036014D01*
X0195201Y0036612D02*
X0183105Y0036612D01*
X0183046Y0037211D02*
X0195201Y0037211D01*
X0195201Y0037809D02*
X0182798Y0037809D01*
X0182550Y0038408D02*
X0195201Y0038408D01*
X0195201Y0039006D02*
X0181995Y0039006D01*
X0195201Y0040802D02*
X0143151Y0040802D01*
X0143750Y0041400D02*
X0195201Y0041400D01*
X0195201Y0031824D02*
X0142224Y0031824D01*
X0142823Y0031226D02*
X0195201Y0031226D01*
X0195201Y0030627D02*
X0143422Y0030627D01*
X0144020Y0030029D02*
X0172281Y0030029D01*
X0172581Y0030153D02*
X0171165Y0029566D01*
X0170081Y0028482D01*
X0169494Y0027066D01*
X0169494Y0025534D01*
X0170081Y0024118D01*
X0171165Y0023034D01*
X0172581Y0022447D01*
X0180019Y0022447D01*
X0181435Y0023034D01*
X0182519Y0024118D01*
X0183105Y0025534D01*
X0183105Y0027066D01*
X0182519Y0028482D01*
X0181435Y0029566D01*
X0180019Y0030153D01*
X0172581Y0030153D01*
X0171029Y0029430D02*
X0144453Y0029430D01*
X0144434Y0028832D02*
X0144973Y0028832D01*
X0145052Y0028853D02*
X0144721Y0028764D01*
X0144425Y0028593D01*
X0142428Y0026596D01*
X0144945Y0024080D01*
X0147740Y0026875D01*
X0146021Y0028593D01*
X0145725Y0028764D01*
X0145394Y0028853D01*
X0145052Y0028853D01*
X0145473Y0028832D02*
X0170430Y0028832D01*
X0169978Y0028233D02*
X0146381Y0028233D01*
X0146980Y0027634D02*
X0169730Y0027634D01*
X0169494Y0027036D02*
X0147578Y0027036D01*
X0147303Y0026437D02*
X0148151Y0026437D01*
X0148164Y0026450D02*
X0149882Y0024732D01*
X0150054Y0024435D01*
X0150142Y0024105D01*
X0150142Y0023763D01*
X0150054Y0023432D01*
X0149882Y0023135D01*
X0147886Y0021139D01*
X0145369Y0023655D01*
X0144945Y0023231D01*
X0147461Y0020714D01*
X0145465Y0018718D01*
X0145168Y0018546D01*
X0144837Y0018458D01*
X0144495Y0018458D01*
X0144165Y0018546D01*
X0143868Y0018718D01*
X0142150Y0020436D01*
X0144945Y0023231D01*
X0144520Y0023655D01*
X0141725Y0020860D01*
X0140007Y0022579D01*
X0139836Y0022875D01*
X0139747Y0023206D01*
X0139747Y0023548D01*
X0139836Y0023879D01*
X0140007Y0024175D01*
X0142004Y0026172D01*
X0144520Y0023655D01*
X0144945Y0024080D01*
X0145369Y0023655D01*
X0148164Y0026450D01*
X0148177Y0026437D02*
X0169494Y0026437D01*
X0169494Y0025839D02*
X0148775Y0025839D01*
X0149374Y0025240D02*
X0169616Y0025240D01*
X0169864Y0024642D02*
X0149934Y0024642D01*
X0150142Y0024043D02*
X0170155Y0024043D01*
X0170754Y0023445D02*
X0150057Y0023445D01*
X0149593Y0022846D02*
X0171617Y0022846D01*
X0172581Y0020153D02*
X0171165Y0019566D01*
X0170081Y0018482D01*
X0169494Y0017066D01*
X0169494Y0015534D01*
X0170081Y0014118D01*
X0171165Y0013034D01*
X0172581Y0012447D01*
X0180019Y0012447D01*
X0181435Y0013034D01*
X0182519Y0014118D01*
X0183105Y0015534D01*
X0183105Y0017066D01*
X0182519Y0018482D01*
X0181435Y0019566D01*
X0180019Y0020153D01*
X0172581Y0020153D01*
X0171859Y0019854D02*
X0146601Y0019854D01*
X0147199Y0020452D02*
X0195201Y0020452D01*
X0195201Y0019854D02*
X0180741Y0019854D01*
X0181746Y0019255D02*
X0195201Y0019255D01*
X0195201Y0018657D02*
X0182345Y0018657D01*
X0182695Y0018058D02*
X0195201Y0018058D01*
X0195201Y0017460D02*
X0182943Y0017460D01*
X0183105Y0016861D02*
X0195201Y0016861D01*
X0195201Y0016263D02*
X0183105Y0016263D01*
X0183105Y0015664D02*
X0195201Y0015664D01*
X0195201Y0015066D02*
X0182912Y0015066D01*
X0182664Y0014467D02*
X0195201Y0014467D01*
X0195201Y0013869D02*
X0182270Y0013869D01*
X0181672Y0013270D02*
X0195201Y0013270D01*
X0195201Y0012672D02*
X0180561Y0012672D01*
X0172039Y0012672D02*
X0139419Y0012672D01*
X0139882Y0013135D02*
X0140054Y0013432D01*
X0140142Y0013763D01*
X0140142Y0014105D01*
X0140054Y0014435D01*
X0139882Y0014732D01*
X0138164Y0016450D01*
X0135369Y0013655D01*
X0137886Y0011139D01*
X0139882Y0013135D01*
X0139960Y0013270D02*
X0170928Y0013270D01*
X0170330Y0013869D02*
X0140142Y0013869D01*
X0140035Y0014467D02*
X0169936Y0014467D01*
X0169688Y0015066D02*
X0139548Y0015066D01*
X0138950Y0015664D02*
X0169494Y0015664D01*
X0169494Y0016263D02*
X0138351Y0016263D01*
X0137976Y0016263D02*
X0137128Y0016263D01*
X0137378Y0015664D02*
X0136529Y0015664D01*
X0136779Y0015066D02*
X0135931Y0015066D01*
X0136181Y0014467D02*
X0135332Y0014467D01*
X0134945Y0014080D02*
X0137740Y0016875D01*
X0136021Y0018593D01*
X0135725Y0018764D01*
X0135394Y0018853D01*
X0135052Y0018853D01*
X0134721Y0018764D01*
X0134425Y0018593D01*
X0132428Y0016596D01*
X0134945Y0014080D01*
X0135369Y0013655D01*
X0134945Y0013231D01*
X0137461Y0010714D01*
X0135465Y0008718D01*
X0135168Y0008546D01*
X0134837Y0008458D01*
X0134495Y0008458D01*
X0134165Y0008546D01*
X0133868Y0008718D01*
X0132150Y0010436D01*
X0134945Y0013231D01*
X0134520Y0013655D01*
X0131725Y0010860D01*
X0130007Y0012579D01*
X0129836Y0012875D01*
X0129747Y0013206D01*
X0129747Y0013548D01*
X0129836Y0013879D01*
X0130007Y0014175D01*
X0132004Y0016172D01*
X0134520Y0013655D01*
X0134945Y0014080D01*
X0135156Y0013869D02*
X0135582Y0013869D01*
X0135754Y0013270D02*
X0134984Y0013270D01*
X0134905Y0013270D02*
X0134135Y0013270D01*
X0134307Y0013869D02*
X0134734Y0013869D01*
X0134557Y0014467D02*
X0133708Y0014467D01*
X0133958Y0015066D02*
X0133110Y0015066D01*
X0133360Y0015664D02*
X0132511Y0015664D01*
X0132761Y0016263D02*
X0131865Y0016263D01*
X0131496Y0015664D02*
X0131267Y0015664D01*
X0130898Y0015066D02*
X0130668Y0015066D01*
X0130299Y0014467D02*
X0130070Y0014467D01*
X0129833Y0013869D02*
X0125556Y0013869D01*
X0126154Y0014467D02*
X0128684Y0014467D01*
X0128086Y0015066D02*
X0126753Y0015066D01*
X0127351Y0015664D02*
X0127487Y0015664D01*
X0129747Y0013270D02*
X0124957Y0013270D01*
X0124359Y0012672D02*
X0129953Y0012672D01*
X0130512Y0012073D02*
X0123760Y0012073D01*
X0123162Y0011475D02*
X0131111Y0011475D01*
X0131709Y0010876D02*
X0122563Y0010876D01*
X0121965Y0010278D02*
X0132308Y0010278D01*
X0132590Y0010876D02*
X0131741Y0010876D01*
X0132340Y0011475D02*
X0133188Y0011475D01*
X0132938Y0012073D02*
X0133787Y0012073D01*
X0133537Y0012672D02*
X0134385Y0012672D01*
X0135504Y0012672D02*
X0136352Y0012672D01*
X0136103Y0012073D02*
X0136951Y0012073D01*
X0136701Y0011475D02*
X0137549Y0011475D01*
X0137300Y0010876D02*
X0195201Y0010876D01*
X0195201Y0010278D02*
X0137025Y0010278D01*
X0136426Y0009679D02*
X0195201Y0009679D01*
X0195201Y0009081D02*
X0135828Y0009081D01*
X0134928Y0008482D02*
X0195201Y0008482D01*
X0195201Y0007884D02*
X0119571Y0007884D01*
X0119153Y0007285D02*
X0195201Y0007285D01*
X0195201Y0006687D02*
X0119153Y0006687D01*
X0119153Y0006088D02*
X0195201Y0006088D01*
X0195201Y0005490D02*
X0119014Y0005490D01*
X0120169Y0008482D02*
X0134405Y0008482D01*
X0133505Y0009081D02*
X0120768Y0009081D01*
X0121366Y0009679D02*
X0132907Y0009679D01*
X0138222Y0011475D02*
X0195201Y0011475D01*
X0195201Y0012073D02*
X0138820Y0012073D01*
X0137726Y0016861D02*
X0169494Y0016861D01*
X0169657Y0017460D02*
X0137154Y0017460D01*
X0136556Y0018058D02*
X0169905Y0018058D01*
X0170255Y0018657D02*
X0145359Y0018657D01*
X0146002Y0019255D02*
X0170854Y0019255D01*
X0180983Y0022846D02*
X0195201Y0022846D01*
X0195201Y0022248D02*
X0148995Y0022248D01*
X0148396Y0021649D02*
X0195201Y0021649D01*
X0195201Y0021051D02*
X0147125Y0021051D01*
X0147375Y0021649D02*
X0146526Y0021649D01*
X0146776Y0022248D02*
X0145928Y0022248D01*
X0146178Y0022846D02*
X0145329Y0022846D01*
X0145159Y0023445D02*
X0145579Y0023445D01*
X0145757Y0024043D02*
X0144981Y0024043D01*
X0144909Y0024043D02*
X0144132Y0024043D01*
X0144310Y0023445D02*
X0144731Y0023445D01*
X0144560Y0022846D02*
X0143712Y0022846D01*
X0143962Y0022248D02*
X0143113Y0022248D01*
X0143363Y0021649D02*
X0142515Y0021649D01*
X0142764Y0021051D02*
X0141916Y0021051D01*
X0141535Y0021051D02*
X0133053Y0021051D01*
X0133596Y0020452D02*
X0142166Y0020452D01*
X0142732Y0019854D02*
X0134195Y0019854D01*
X0134453Y0019255D02*
X0143330Y0019255D01*
X0143973Y0018657D02*
X0135911Y0018657D01*
X0134535Y0018657D02*
X0134259Y0018657D01*
X0133890Y0018058D02*
X0133661Y0018058D01*
X0133292Y0017460D02*
X0133062Y0017460D01*
X0132693Y0016861D02*
X0132464Y0016861D01*
X0133651Y0021649D02*
X0140936Y0021649D01*
X0140338Y0022248D02*
X0134250Y0022248D01*
X0134848Y0022846D02*
X0139852Y0022846D01*
X0139747Y0023445D02*
X0135447Y0023445D01*
X0136045Y0024043D02*
X0139931Y0024043D01*
X0140244Y0024642D02*
X0140474Y0024642D01*
X0140843Y0025240D02*
X0141072Y0025240D01*
X0141441Y0025839D02*
X0141671Y0025839D01*
X0142337Y0025839D02*
X0143185Y0025839D01*
X0142935Y0025240D02*
X0143784Y0025240D01*
X0143534Y0024642D02*
X0144382Y0024642D01*
X0145507Y0024642D02*
X0146356Y0024642D01*
X0146106Y0025240D02*
X0146954Y0025240D01*
X0146704Y0025839D02*
X0147553Y0025839D01*
X0144065Y0028233D02*
X0143835Y0028233D01*
X0143466Y0027634D02*
X0143237Y0027634D01*
X0142868Y0027036D02*
X0142638Y0027036D01*
X0142587Y0026437D02*
X0142040Y0026437D01*
X0138509Y0024642D02*
X0136644Y0024642D01*
X0137242Y0025240D02*
X0137911Y0025240D01*
X0130356Y0024043D02*
X0127225Y0024043D01*
X0127824Y0023445D02*
X0129264Y0023445D01*
X0128665Y0022846D02*
X0128422Y0022846D01*
X0122050Y0019854D02*
X0121700Y0019854D01*
X0121700Y0019255D02*
X0122163Y0019255D01*
X0122125Y0018657D02*
X0122761Y0018657D01*
X0122550Y0018058D02*
X0123360Y0018058D01*
X0123773Y0017460D02*
X0122550Y0017460D01*
X0122550Y0016861D02*
X0123174Y0016861D01*
X0122576Y0016263D02*
X0122445Y0016263D01*
X0121977Y0015664D02*
X0121846Y0015664D01*
X0121379Y0015066D02*
X0121248Y0015066D01*
X0120780Y0014467D02*
X0119153Y0014467D01*
X0119153Y0013869D02*
X0120182Y0013869D01*
X0119583Y0013270D02*
X0119153Y0013270D01*
X0118985Y0012672D02*
X0118716Y0012672D01*
X0118386Y0012073D02*
X0089053Y0012073D01*
X0088455Y0011475D02*
X0111447Y0011475D01*
X0111447Y0010876D02*
X0087856Y0010876D01*
X0087258Y0010278D02*
X0111447Y0010278D01*
X0111447Y0009679D02*
X0086659Y0009679D01*
X0086061Y0009081D02*
X0111447Y0009081D01*
X0111447Y0008482D02*
X0085462Y0008482D01*
X0083896Y0010876D02*
X0072499Y0010876D01*
X0072499Y0011475D02*
X0084495Y0011475D01*
X0085093Y0012073D02*
X0072499Y0012073D01*
X0072453Y0012672D02*
X0085692Y0012672D01*
X0086290Y0013270D02*
X0059711Y0013270D01*
X0059112Y0013869D02*
X0086889Y0013869D01*
X0087487Y0014467D02*
X0086140Y0014467D01*
X0085728Y0014467D02*
X0058514Y0014467D01*
X0054972Y0015066D02*
X0084787Y0015066D01*
X0084189Y0015664D02*
X0049200Y0015664D01*
X0049200Y0015066D02*
X0049864Y0015066D01*
X0049569Y0014467D02*
X0049200Y0014467D01*
X0049200Y0013869D02*
X0049569Y0013869D01*
X0049569Y0013270D02*
X0049200Y0013270D01*
X0049200Y0012672D02*
X0049569Y0012672D01*
X0049569Y0012073D02*
X0049200Y0012073D01*
X0049200Y0011475D02*
X0049569Y0011475D01*
X0045400Y0011475D02*
X0045153Y0011475D01*
X0045171Y0011456D02*
X0045031Y0011597D01*
X0045031Y0014771D01*
X0044503Y0015298D01*
X0042045Y0015298D01*
X0041543Y0015800D01*
X0042045Y0016302D01*
X0044503Y0016302D01*
X0045031Y0016829D01*
X0045031Y0020003D01*
X0045171Y0020144D01*
X0045342Y0020440D01*
X0045400Y0020656D01*
X0045400Y0010944D01*
X0045342Y0011160D01*
X0045171Y0011456D01*
X0045031Y0012073D02*
X0045400Y0012073D01*
X0045400Y0012672D02*
X0045031Y0012672D01*
X0045031Y0013270D02*
X0045400Y0013270D01*
X0045400Y0013869D02*
X0045031Y0013869D01*
X0045031Y0014467D02*
X0045400Y0014467D01*
X0045400Y0015066D02*
X0044736Y0015066D01*
X0045400Y0015664D02*
X0041679Y0015664D01*
X0042006Y0016263D02*
X0045400Y0016263D01*
X0045400Y0016861D02*
X0045031Y0016861D01*
X0045031Y0017460D02*
X0045400Y0017460D01*
X0045400Y0018058D02*
X0045031Y0018058D01*
X0045031Y0018657D02*
X0045400Y0018657D01*
X0045400Y0019255D02*
X0045031Y0019255D01*
X0045031Y0019854D02*
X0045400Y0019854D01*
X0045400Y0020452D02*
X0045345Y0020452D01*
X0041882Y0022000D02*
X0038933Y0022000D01*
X0038933Y0020771D01*
X0039022Y0020440D01*
X0039193Y0020144D01*
X0039333Y0020003D01*
X0039333Y0018800D01*
X0033921Y0018800D01*
X0028544Y0024178D01*
X0029105Y0025534D01*
X0029105Y0026800D01*
X0039301Y0026800D01*
X0039333Y0026768D01*
X0039333Y0024597D01*
X0039193Y0024456D01*
X0039022Y0024160D01*
X0038933Y0023829D01*
X0038933Y0022600D01*
X0041882Y0022600D01*
X0041882Y0022000D01*
X0041882Y0022248D02*
X0030473Y0022248D01*
X0029875Y0022846D02*
X0038933Y0022846D01*
X0038933Y0023445D02*
X0029276Y0023445D01*
X0028678Y0024043D02*
X0038990Y0024043D01*
X0039333Y0024642D02*
X0028736Y0024642D01*
X0028984Y0025240D02*
X0039333Y0025240D01*
X0039333Y0025839D02*
X0029105Y0025839D01*
X0029105Y0026437D02*
X0039333Y0026437D01*
X0038933Y0021649D02*
X0031072Y0021649D01*
X0031670Y0021051D02*
X0038933Y0021051D01*
X0039018Y0020452D02*
X0032269Y0020452D01*
X0032867Y0019854D02*
X0039333Y0019854D01*
X0039333Y0019255D02*
X0033466Y0019255D01*
X0031019Y0017460D02*
X0030262Y0017460D01*
X0030420Y0018058D02*
X0028695Y0018058D01*
X0028345Y0018657D02*
X0029822Y0018657D01*
X0029223Y0019255D02*
X0027746Y0019255D01*
X0028625Y0019854D02*
X0026741Y0019854D01*
X0027428Y0021051D02*
X0003100Y0021051D01*
X0003100Y0021649D02*
X0026829Y0021649D01*
X0026231Y0022248D02*
X0003100Y0022248D01*
X0003100Y0022846D02*
X0017617Y0022846D01*
X0016754Y0023445D02*
X0003100Y0023445D01*
X0003100Y0024043D02*
X0016155Y0024043D01*
X0015864Y0024642D02*
X0003100Y0024642D01*
X0003100Y0025240D02*
X0015616Y0025240D01*
X0015494Y0025839D02*
X0003100Y0025839D01*
X0003100Y0026437D02*
X0015494Y0026437D01*
X0015494Y0027036D02*
X0003100Y0027036D01*
X0003100Y0027634D02*
X0015730Y0027634D01*
X0015978Y0028233D02*
X0003100Y0028233D01*
X0003100Y0028832D02*
X0016430Y0028832D01*
X0017029Y0029430D02*
X0003100Y0029430D01*
X0003100Y0030029D02*
X0018281Y0030029D01*
X0017195Y0033021D02*
X0003100Y0033021D01*
X0003100Y0032423D02*
X0022056Y0032423D01*
X0022655Y0031824D02*
X0003100Y0031824D01*
X0003100Y0031226D02*
X0023253Y0031226D01*
X0023852Y0030627D02*
X0003100Y0030627D01*
X0003100Y0033620D02*
X0016579Y0033620D01*
X0016039Y0034218D02*
X0003100Y0034218D01*
X0003100Y0034817D02*
X0015791Y0034817D01*
X0015544Y0035415D02*
X0003100Y0035415D01*
X0003100Y0036014D02*
X0015494Y0036014D01*
X0015494Y0036612D02*
X0003100Y0036612D01*
X0003100Y0037211D02*
X0015554Y0037211D01*
X0015802Y0037809D02*
X0003100Y0037809D01*
X0003100Y0038408D02*
X0016050Y0038408D01*
X0016605Y0039006D02*
X0003100Y0039006D01*
X0003100Y0039605D02*
X0017258Y0039605D01*
X0023082Y0040203D02*
X0003100Y0040203D01*
X0003100Y0040802D02*
X0023680Y0040802D01*
X0024279Y0041400D02*
X0003100Y0041400D01*
X0003100Y0050378D02*
X0025257Y0050378D01*
X0025855Y0050976D02*
X0003100Y0050976D01*
X0003100Y0051575D02*
X0026454Y0051575D01*
X0027052Y0052173D02*
X0003100Y0052173D01*
X0026803Y0052772D02*
X0027651Y0052772D01*
X0027772Y0053370D02*
X0028249Y0053370D01*
X0028370Y0053969D02*
X0028848Y0053969D01*
X0028705Y0054568D02*
X0029446Y0054568D01*
X0030696Y0051575D02*
X0039333Y0051575D01*
X0039333Y0050976D02*
X0030098Y0050976D01*
X0029499Y0050378D02*
X0039147Y0050378D01*
X0038933Y0049779D02*
X0028901Y0049779D01*
X0028302Y0049181D02*
X0038933Y0049181D01*
X0045031Y0046003D02*
X0045171Y0046144D01*
X0045342Y0046440D01*
X0045400Y0046656D01*
X0045400Y0036944D01*
X0045342Y0037160D01*
X0045171Y0037456D01*
X0045031Y0037597D01*
X0045031Y0040771D01*
X0044503Y0041298D01*
X0042045Y0041298D01*
X0041543Y0041800D01*
X0042045Y0042302D01*
X0044503Y0042302D01*
X0045031Y0042829D01*
X0045031Y0046003D01*
X0045197Y0046188D02*
X0045400Y0046188D01*
X0045400Y0045590D02*
X0045031Y0045590D01*
X0045031Y0044991D02*
X0045400Y0044991D01*
X0045400Y0044393D02*
X0045031Y0044393D01*
X0045031Y0043794D02*
X0045400Y0043794D01*
X0045400Y0043196D02*
X0045031Y0043196D01*
X0044799Y0042597D02*
X0045400Y0042597D01*
X0045400Y0041999D02*
X0041742Y0041999D01*
X0041943Y0041400D02*
X0045400Y0041400D01*
X0045400Y0040802D02*
X0045000Y0040802D01*
X0045031Y0040203D02*
X0045400Y0040203D01*
X0045400Y0039605D02*
X0045031Y0039605D01*
X0045031Y0039006D02*
X0045400Y0039006D01*
X0045400Y0038408D02*
X0045031Y0038408D01*
X0045031Y0037809D02*
X0045400Y0037809D01*
X0045400Y0037211D02*
X0045313Y0037211D01*
X0041882Y0035600D02*
X0041882Y0035000D01*
X0038933Y0035000D01*
X0038933Y0033771D01*
X0039022Y0033440D01*
X0039193Y0033144D01*
X0039333Y0033003D01*
X0039333Y0032800D01*
X0026871Y0032800D01*
X0027435Y0033034D01*
X0028519Y0034118D01*
X0029105Y0035534D01*
X0029105Y0037066D01*
X0028519Y0038482D01*
X0028201Y0038800D01*
X0039333Y0038800D01*
X0039333Y0037597D01*
X0039193Y0037456D01*
X0039022Y0037160D01*
X0038933Y0036829D01*
X0038933Y0035600D01*
X0041882Y0035600D01*
X0041882Y0035415D02*
X0029056Y0035415D01*
X0029105Y0036014D02*
X0038933Y0036014D01*
X0038933Y0036612D02*
X0029105Y0036612D01*
X0029046Y0037211D02*
X0039051Y0037211D01*
X0039333Y0037809D02*
X0028798Y0037809D01*
X0028550Y0038408D02*
X0039333Y0038408D01*
X0038933Y0034817D02*
X0028809Y0034817D01*
X0028561Y0034218D02*
X0038933Y0034218D01*
X0038974Y0033620D02*
X0028021Y0033620D01*
X0027405Y0033021D02*
X0039315Y0033021D01*
X0049200Y0033021D02*
X0049569Y0033021D01*
X0049569Y0032423D02*
X0049200Y0032423D01*
X0049200Y0031824D02*
X0049569Y0031824D01*
X0049569Y0031226D02*
X0049200Y0031226D01*
X0049200Y0030627D02*
X0049569Y0030627D01*
X0049569Y0030029D02*
X0049200Y0030029D01*
X0049200Y0029430D02*
X0049968Y0029430D01*
X0049200Y0028832D02*
X0085892Y0028832D01*
X0086490Y0029430D02*
X0054868Y0029430D01*
X0055267Y0030029D02*
X0087089Y0030029D01*
X0087687Y0030627D02*
X0059008Y0030627D01*
X0059607Y0031226D02*
X0088286Y0031226D01*
X0088884Y0031824D02*
X0072349Y0031824D01*
X0072499Y0032423D02*
X0089483Y0032423D01*
X0090082Y0033021D02*
X0072499Y0033021D01*
X0072499Y0033620D02*
X0090680Y0033620D01*
X0091279Y0034218D02*
X0089671Y0034218D01*
X0090269Y0034817D02*
X0091877Y0034817D01*
X0092476Y0035415D02*
X0090868Y0035415D01*
X0091466Y0036014D02*
X0092237Y0036014D01*
X0089843Y0038408D02*
X0072499Y0038408D01*
X0072499Y0037809D02*
X0089302Y0037809D01*
X0088703Y0037211D02*
X0072499Y0037211D01*
X0072119Y0039006D02*
X0089244Y0039006D01*
X0088646Y0039605D02*
X0059376Y0039605D01*
X0058778Y0040203D02*
X0088047Y0040203D01*
X0087449Y0040802D02*
X0055236Y0040802D01*
X0055035Y0042597D02*
X0086004Y0042597D01*
X0086209Y0043196D02*
X0058577Y0043196D01*
X0059175Y0043794D02*
X0086807Y0043794D01*
X0086251Y0041999D02*
X0049200Y0041999D01*
X0049200Y0042597D02*
X0049801Y0042597D01*
X0049569Y0043196D02*
X0049200Y0043196D01*
X0049200Y0043794D02*
X0049569Y0043794D01*
X0049569Y0044393D02*
X0049200Y0044393D01*
X0049200Y0044991D02*
X0049569Y0044991D01*
X0049569Y0045590D02*
X0049200Y0045590D01*
X0049200Y0046188D02*
X0049569Y0046188D01*
X0049569Y0050378D02*
X0049200Y0050378D01*
X0049200Y0050976D02*
X0049569Y0050976D01*
X0049569Y0051575D02*
X0049200Y0051575D01*
X0049200Y0052173D02*
X0049569Y0052173D01*
X0049569Y0052772D02*
X0049200Y0052772D01*
X0049200Y0053370D02*
X0049569Y0053370D01*
X0049767Y0053969D02*
X0049200Y0053969D01*
X0049200Y0054568D02*
X0073328Y0054568D01*
X0073926Y0055166D02*
X0049200Y0055166D01*
X0049200Y0055765D02*
X0049634Y0055765D01*
X0049569Y0056363D02*
X0049200Y0056363D01*
X0049200Y0056962D02*
X0049569Y0056962D01*
X0049569Y0057560D02*
X0049200Y0057560D01*
X0049200Y0058159D02*
X0049569Y0058159D01*
X0049569Y0058757D02*
X0049200Y0058757D01*
X0049200Y0059356D02*
X0049634Y0059356D01*
X0049200Y0068333D02*
X0050065Y0068333D01*
X0049569Y0068932D02*
X0049200Y0068932D01*
X0049200Y0069530D02*
X0049569Y0069530D01*
X0049569Y0070129D02*
X0049200Y0070129D01*
X0049200Y0070727D02*
X0049569Y0070727D01*
X0049569Y0071326D02*
X0049200Y0071326D01*
X0049200Y0071924D02*
X0049569Y0071924D01*
X0041882Y0074000D02*
X0038933Y0074000D01*
X0038933Y0072771D01*
X0039022Y0072440D01*
X0039193Y0072144D01*
X0039333Y0072003D01*
X0039333Y0070454D01*
X0038679Y0069800D01*
X0034800Y0069800D01*
X0034800Y0076540D01*
X0039277Y0076540D01*
X0039193Y0076456D01*
X0039022Y0076160D01*
X0038933Y0075829D01*
X0038933Y0074600D01*
X0041882Y0074600D01*
X0041882Y0074000D01*
X0041882Y0074318D02*
X0034800Y0074318D01*
X0034800Y0073720D02*
X0038933Y0073720D01*
X0038933Y0073121D02*
X0034800Y0073121D01*
X0034800Y0072523D02*
X0038999Y0072523D01*
X0039333Y0071924D02*
X0034800Y0071924D01*
X0034800Y0071326D02*
X0039333Y0071326D01*
X0039333Y0070727D02*
X0034800Y0070727D01*
X0034800Y0070129D02*
X0039007Y0070129D01*
X0038933Y0074917D02*
X0034800Y0074917D01*
X0034800Y0075515D02*
X0038933Y0075515D01*
X0039009Y0076114D02*
X0034800Y0076114D01*
X0031800Y0077311D02*
X0027712Y0077311D01*
X0028311Y0077909D02*
X0031800Y0077909D01*
X0032387Y0078508D02*
X0028681Y0078508D01*
X0028929Y0079106D02*
X0032985Y0079106D01*
X0035400Y0083296D02*
X0027705Y0083296D01*
X0022600Y0086289D02*
X0022000Y0086289D01*
X0022000Y0086047D02*
X0022000Y0090000D01*
X0015094Y0090000D01*
X0015094Y0089965D01*
X0015199Y0089304D01*
X0015406Y0088667D01*
X0015710Y0088071D01*
X0016103Y0087530D01*
X0016577Y0087056D01*
X0017118Y0086663D01*
X0017715Y0086359D01*
X0018351Y0086152D01*
X0019013Y0086047D01*
X0022000Y0086047D01*
X0022000Y0086887D02*
X0022600Y0086887D01*
X0022600Y0087486D02*
X0022000Y0087486D01*
X0022000Y0088084D02*
X0022600Y0088084D01*
X0022600Y0088683D02*
X0022000Y0088683D01*
X0022000Y0089281D02*
X0022600Y0089281D01*
X0022600Y0089880D02*
X0022000Y0089880D01*
X0022000Y0091675D02*
X0022600Y0091675D01*
X0022600Y0092274D02*
X0022000Y0092274D01*
X0022000Y0092872D02*
X0022600Y0092872D01*
X0022600Y0093471D02*
X0022000Y0093471D01*
X0022000Y0094069D02*
X0022600Y0094069D01*
X0027223Y0094069D02*
X0035400Y0094069D01*
X0035400Y0093471D02*
X0028096Y0093471D01*
X0028641Y0092872D02*
X0035400Y0092872D01*
X0035400Y0092274D02*
X0029020Y0092274D01*
X0029278Y0091675D02*
X0035400Y0091675D01*
X0035400Y0091077D02*
X0029436Y0091077D01*
X0035400Y0085690D02*
X0003100Y0085690D01*
X0003100Y0085092D02*
X0035400Y0085092D01*
X0047898Y0083296D02*
X0085549Y0083296D01*
X0084951Y0082698D02*
X0048589Y0082698D01*
X0049188Y0082099D02*
X0084352Y0082099D01*
X0084524Y0081501D02*
X0049200Y0081501D01*
X0049200Y0080902D02*
X0083155Y0080902D01*
X0082557Y0080303D02*
X0049200Y0080303D01*
X0049200Y0079705D02*
X0049569Y0079705D01*
X0049569Y0079106D02*
X0049200Y0079106D01*
X0049200Y0078508D02*
X0049569Y0078508D01*
X0049569Y0077909D02*
X0049200Y0077909D01*
X0049200Y0077311D02*
X0049569Y0077311D01*
X0049569Y0076712D02*
X0049200Y0076712D01*
X0055267Y0079705D02*
X0081958Y0079705D01*
X0081530Y0079106D02*
X0058875Y0079106D01*
X0059473Y0078508D02*
X0081458Y0078508D01*
X0084274Y0080902D02*
X0085122Y0080902D01*
X0084872Y0080303D02*
X0085721Y0080303D01*
X0085471Y0079705D02*
X0086319Y0079705D01*
X0086393Y0079106D02*
X0086069Y0079106D01*
X0086918Y0079106D02*
X0087241Y0079106D01*
X0086991Y0079705D02*
X0087840Y0079705D01*
X0087590Y0080303D02*
X0088438Y0080303D01*
X0088188Y0080902D02*
X0089037Y0080902D01*
X0088787Y0081501D02*
X0089635Y0081501D01*
X0090114Y0081501D02*
X0138561Y0081501D01*
X0139159Y0082099D02*
X0089385Y0082099D01*
X0088917Y0082698D02*
X0139758Y0082698D01*
X0140356Y0083296D02*
X0088318Y0083296D01*
X0086157Y0083895D02*
X0069380Y0083895D01*
X0069182Y0088683D02*
X0081602Y0088683D01*
X0090712Y0080902D02*
X0137962Y0080902D01*
X0137364Y0080303D02*
X0091311Y0080303D01*
X0091769Y0079705D02*
X0136765Y0079705D01*
X0136167Y0079106D02*
X0091853Y0079106D01*
X0091641Y0078508D02*
X0108158Y0078508D01*
X0107560Y0077909D02*
X0093139Y0077909D01*
X0093738Y0077311D02*
X0106961Y0077311D01*
X0106363Y0076712D02*
X0094336Y0076712D01*
X0094935Y0076114D02*
X0105764Y0076114D01*
X0105166Y0075515D02*
X0101267Y0075515D01*
X0101865Y0074917D02*
X0104567Y0074917D01*
X0103969Y0074318D02*
X0102464Y0074318D01*
X0102550Y0073720D02*
X0103370Y0073720D01*
X0102772Y0073121D02*
X0102550Y0073121D01*
X0098900Y0071326D02*
X0096646Y0071326D01*
X0096047Y0071924D02*
X0098494Y0071924D01*
X0098050Y0072523D02*
X0095704Y0072523D01*
X0096303Y0073121D02*
X0098050Y0073121D01*
X0098050Y0073720D02*
X0096742Y0073720D01*
X0096730Y0074318D02*
X0098136Y0074318D01*
X0098735Y0074917D02*
X0096132Y0074917D01*
X0095533Y0075515D02*
X0099333Y0075515D01*
X0091307Y0077909D02*
X0091078Y0077909D01*
X0090708Y0077311D02*
X0090479Y0077311D01*
X0090110Y0076712D02*
X0089881Y0076712D01*
X0093310Y0070129D02*
X0093883Y0070129D01*
X0094482Y0069530D02*
X0092711Y0069530D01*
X0092113Y0068932D02*
X0095080Y0068932D01*
X0097245Y0070727D02*
X0098900Y0070727D01*
X0099451Y0070129D02*
X0097843Y0070129D01*
X0098442Y0069530D02*
X0099181Y0069530D01*
X0104816Y0065939D02*
X0125784Y0065939D01*
X0126382Y0065341D02*
X0105415Y0065341D01*
X0106013Y0064742D02*
X0126981Y0064742D01*
X0127164Y0064144D02*
X0107638Y0064144D01*
X0105415Y0066538D02*
X0125185Y0066538D01*
X0124587Y0067136D02*
X0106013Y0067136D01*
X0106612Y0067735D02*
X0123988Y0067735D01*
X0123390Y0068333D02*
X0107210Y0068333D01*
X0107809Y0068932D02*
X0122791Y0068932D01*
X0122193Y0069530D02*
X0108407Y0069530D01*
X0109006Y0070129D02*
X0121594Y0070129D01*
X0120996Y0070727D02*
X0109604Y0070727D01*
X0110203Y0071326D02*
X0120397Y0071326D01*
X0119798Y0071924D02*
X0110801Y0071924D01*
X0111400Y0072523D02*
X0119200Y0072523D01*
X0118601Y0073121D02*
X0111999Y0073121D01*
X0112597Y0073720D02*
X0118003Y0073720D01*
X0117741Y0074318D02*
X0112859Y0074318D01*
X0112670Y0074917D02*
X0117930Y0074917D01*
X0118528Y0075515D02*
X0112072Y0075515D01*
X0111473Y0076114D02*
X0119127Y0076114D01*
X0119725Y0076712D02*
X0110875Y0076712D01*
X0110276Y0077311D02*
X0120324Y0077311D01*
X0120922Y0077909D02*
X0109678Y0077909D01*
X0109079Y0078508D02*
X0121521Y0078508D01*
X0122442Y0078508D02*
X0135568Y0078508D01*
X0134970Y0077909D02*
X0123040Y0077909D01*
X0123639Y0077311D02*
X0134371Y0077311D01*
X0133773Y0076712D02*
X0124237Y0076712D01*
X0124836Y0076114D02*
X0133174Y0076114D01*
X0132576Y0075515D02*
X0125434Y0075515D01*
X0126033Y0074917D02*
X0131977Y0074917D01*
X0131379Y0074318D02*
X0126631Y0074318D01*
X0127230Y0073720D02*
X0130780Y0073720D01*
X0130182Y0073121D02*
X0127828Y0073121D01*
X0128427Y0072523D02*
X0129583Y0072523D01*
X0145513Y0084493D02*
X0154447Y0084493D01*
X0154447Y0085092D02*
X0146112Y0085092D01*
X0146710Y0085690D02*
X0154447Y0085690D01*
X0154764Y0086289D02*
X0147309Y0086289D01*
X0151749Y0097062D02*
X0154494Y0097062D01*
X0154447Y0097660D02*
X0152347Y0097660D01*
X0151163Y0101850D02*
X0132727Y0101850D01*
X0132922Y0102448D02*
X0154447Y0102448D01*
X0195201Y0108434D02*
X0003100Y0108434D01*
X0003100Y0109032D02*
X0195201Y0109032D01*
X0195201Y0109631D02*
X0003100Y0109631D01*
X0003100Y0110229D02*
X0195201Y0110229D01*
X0195201Y0110828D02*
X0003100Y0110828D01*
X0003100Y0089880D02*
X0015108Y0089880D01*
X0015207Y0089281D02*
X0003100Y0089281D01*
X0003100Y0088683D02*
X0015401Y0088683D01*
X0015703Y0088084D02*
X0003100Y0088084D01*
X0003100Y0087486D02*
X0016147Y0087486D01*
X0016809Y0086887D02*
X0003100Y0086887D01*
X0003100Y0086289D02*
X0017931Y0086289D01*
X0039200Y0097062D02*
X0048047Y0097062D01*
X0048047Y0097660D02*
X0039347Y0097660D01*
X0039946Y0098259D02*
X0048047Y0098259D01*
X0048047Y0098857D02*
X0040544Y0098857D01*
X0041143Y0099456D02*
X0048092Y0099456D01*
X0048444Y0100054D02*
X0041741Y0100054D01*
X0042340Y0100653D02*
X0048903Y0100653D01*
X0048447Y0101251D02*
X0042938Y0101251D01*
X0043537Y0101850D02*
X0048447Y0101850D01*
X0048419Y0086887D02*
X0048581Y0086887D01*
X0048581Y0086289D02*
X0048419Y0086289D01*
X0048419Y0085690D02*
X0048581Y0085690D01*
X0048581Y0085092D02*
X0048419Y0085092D01*
X0048419Y0084493D02*
X0048581Y0084493D01*
X0048661Y0083895D02*
X0048343Y0083895D01*
X0055419Y0083895D02*
X0059220Y0083895D01*
X0072383Y0064742D02*
X0083502Y0064742D01*
X0082904Y0064144D02*
X0076638Y0064144D01*
X0077237Y0063545D02*
X0082305Y0063545D01*
X0081707Y0062947D02*
X0077550Y0062947D01*
X0077550Y0062348D02*
X0081108Y0062348D01*
X0080510Y0061750D02*
X0077550Y0061750D01*
X0077333Y0061151D02*
X0079911Y0061151D01*
X0079313Y0060553D02*
X0076735Y0060553D01*
X0078116Y0059356D02*
X0072499Y0059356D01*
X0072499Y0058757D02*
X0077517Y0058757D01*
X0076919Y0058159D02*
X0072499Y0058159D01*
X0074934Y0059954D02*
X0078714Y0059954D01*
X0080879Y0058159D02*
X0087809Y0058159D01*
X0088407Y0058757D02*
X0081477Y0058757D01*
X0082076Y0059356D02*
X0089006Y0059356D01*
X0089604Y0059954D02*
X0082674Y0059954D01*
X0083273Y0060553D02*
X0090203Y0060553D01*
X0090801Y0061151D02*
X0083871Y0061151D01*
X0084470Y0061750D02*
X0091400Y0061750D01*
X0091998Y0062348D02*
X0085068Y0062348D01*
X0085667Y0062947D02*
X0092597Y0062947D01*
X0093195Y0063545D02*
X0086265Y0063545D01*
X0086864Y0064144D02*
X0093794Y0064144D01*
X0093702Y0064742D02*
X0087462Y0064742D01*
X0087210Y0057560D02*
X0080280Y0057560D01*
X0079682Y0056962D02*
X0086612Y0056962D01*
X0086013Y0056363D02*
X0079083Y0056363D01*
X0078485Y0055765D02*
X0086004Y0055765D01*
X0086447Y0055166D02*
X0077886Y0055166D01*
X0077288Y0054568D02*
X0087045Y0054568D01*
X0087644Y0053969D02*
X0076689Y0053969D01*
X0076091Y0053370D02*
X0088242Y0053370D01*
X0088841Y0052772D02*
X0075492Y0052772D01*
X0074894Y0052173D02*
X0089439Y0052173D01*
X0099430Y0060553D02*
X0104865Y0060553D01*
X0104267Y0061151D02*
X0100028Y0061151D01*
X0100627Y0061750D02*
X0104050Y0061750D01*
X0104050Y0062348D02*
X0101225Y0062348D01*
X0101824Y0062947D02*
X0103849Y0062947D01*
X0103251Y0063545D02*
X0102422Y0063545D01*
X0073962Y0064144D02*
X0072499Y0064144D01*
X0072499Y0063545D02*
X0073363Y0063545D01*
X0073050Y0062947D02*
X0072499Y0062947D01*
X0086850Y0041400D02*
X0049200Y0041400D01*
X0049200Y0040802D02*
X0049600Y0040802D01*
X0049569Y0040203D02*
X0049200Y0040203D01*
X0049200Y0039605D02*
X0049569Y0039605D01*
X0049569Y0039006D02*
X0049200Y0039006D01*
X0049200Y0038408D02*
X0049569Y0038408D01*
X0049569Y0037809D02*
X0049200Y0037809D01*
X0049200Y0037211D02*
X0049668Y0037211D01*
X0064638Y0039006D02*
X0065962Y0039006D01*
X0065581Y0038408D02*
X0065019Y0038408D01*
X0065019Y0037809D02*
X0065581Y0037809D01*
X0065581Y0037211D02*
X0065019Y0037211D01*
X0065019Y0036612D02*
X0065581Y0036612D01*
X0065581Y0036014D02*
X0065019Y0036014D01*
X0065019Y0035415D02*
X0065581Y0035415D01*
X0065581Y0034817D02*
X0065019Y0034817D01*
X0065019Y0034218D02*
X0065581Y0034218D01*
X0065581Y0033620D02*
X0065019Y0033620D01*
X0065019Y0033021D02*
X0065581Y0033021D01*
X0065581Y0032423D02*
X0065019Y0032423D01*
X0064869Y0031824D02*
X0065731Y0031824D01*
X0059544Y0026437D02*
X0083498Y0026437D01*
X0082899Y0025839D02*
X0072286Y0025839D01*
X0072499Y0025240D02*
X0082301Y0025240D01*
X0081702Y0024642D02*
X0072499Y0024642D01*
X0072499Y0024043D02*
X0081104Y0024043D01*
X0084096Y0027036D02*
X0058945Y0027036D01*
X0055267Y0027634D02*
X0084695Y0027634D01*
X0085293Y0028233D02*
X0054805Y0028233D01*
X0050031Y0028233D02*
X0049200Y0028233D01*
X0049200Y0027634D02*
X0049569Y0027634D01*
X0049569Y0027036D02*
X0049200Y0027036D01*
X0049200Y0026437D02*
X0049569Y0026437D01*
X0049569Y0025839D02*
X0049200Y0025839D01*
X0049200Y0025240D02*
X0049569Y0025240D01*
X0049569Y0024642D02*
X0049200Y0024642D01*
X0049200Y0019854D02*
X0049569Y0019854D01*
X0049569Y0019255D02*
X0049200Y0019255D01*
X0049200Y0018657D02*
X0049569Y0018657D01*
X0049569Y0018058D02*
X0049200Y0018058D01*
X0049200Y0017460D02*
X0049569Y0017460D01*
X0049569Y0016861D02*
X0049200Y0016861D01*
X0049200Y0016263D02*
X0083590Y0016263D01*
X0083286Y0016861D02*
X0055267Y0016861D01*
X0058841Y0017460D02*
X0082393Y0017460D01*
X0083036Y0017460D02*
X0083884Y0017460D01*
X0083634Y0018058D02*
X0084483Y0018058D01*
X0084233Y0018657D02*
X0085081Y0018657D01*
X0084831Y0019255D02*
X0085631Y0019255D01*
X0085680Y0019255D02*
X0086479Y0019255D01*
X0086278Y0019854D02*
X0085881Y0019854D01*
X0086028Y0020452D02*
X0086877Y0020452D01*
X0086627Y0021051D02*
X0087475Y0021051D01*
X0087225Y0021649D02*
X0088074Y0021649D01*
X0087824Y0022248D02*
X0088750Y0022248D01*
X0089119Y0021649D02*
X0089348Y0021649D01*
X0089717Y0021051D02*
X0089947Y0021051D01*
X0090316Y0020452D02*
X0090545Y0020452D01*
X0090771Y0019854D02*
X0092874Y0019854D01*
X0093472Y0020452D02*
X0091901Y0020452D01*
X0092499Y0021051D02*
X0094071Y0021051D01*
X0094669Y0021649D02*
X0093098Y0021649D01*
X0093696Y0022248D02*
X0094900Y0022248D01*
X0094900Y0022846D02*
X0094295Y0022846D01*
X0094894Y0023445D02*
X0094900Y0023445D01*
X0097826Y0022846D02*
X0105404Y0022846D01*
X0106002Y0022248D02*
X0097700Y0022248D01*
X0097700Y0021649D02*
X0106601Y0021649D01*
X0107199Y0021051D02*
X0097700Y0021051D01*
X0097432Y0020452D02*
X0107798Y0020452D01*
X0108073Y0019255D02*
X0096235Y0019255D01*
X0095637Y0018657D02*
X0107475Y0018657D01*
X0107050Y0018058D02*
X0095038Y0018058D01*
X0094440Y0017460D02*
X0107050Y0017460D01*
X0107050Y0016861D02*
X0093841Y0016861D01*
X0093243Y0016263D02*
X0107155Y0016263D01*
X0107754Y0015664D02*
X0092644Y0015664D01*
X0092046Y0015066D02*
X0108352Y0015066D01*
X0111447Y0014467D02*
X0091447Y0014467D01*
X0090849Y0013869D02*
X0111447Y0013869D01*
X0111447Y0013270D02*
X0090250Y0013270D01*
X0089652Y0012672D02*
X0111884Y0012672D01*
X0119153Y0015066D02*
X0119352Y0015066D01*
X0118900Y0019255D02*
X0118869Y0019255D01*
X0118900Y0019854D02*
X0117036Y0019854D01*
X0117550Y0020452D02*
X0118900Y0020452D01*
X0118900Y0021051D02*
X0117550Y0021051D01*
X0117550Y0021649D02*
X0118900Y0021649D01*
X0118900Y0022248D02*
X0117534Y0022248D01*
X0116936Y0022846D02*
X0118766Y0022846D01*
X0118168Y0023445D02*
X0116337Y0023445D01*
X0117741Y0024043D02*
X0112859Y0024043D01*
X0112835Y0024642D02*
X0117765Y0024642D01*
X0117220Y0025240D02*
X0118363Y0025240D01*
X0117819Y0025839D02*
X0118962Y0025839D01*
X0118417Y0026437D02*
X0119560Y0026437D01*
X0119016Y0027036D02*
X0120159Y0027036D01*
X0119674Y0027634D02*
X0119614Y0027634D01*
X0117450Y0029430D02*
X0114150Y0029430D01*
X0114748Y0028832D02*
X0116852Y0028832D01*
X0116253Y0028233D02*
X0115347Y0028233D01*
X0113183Y0026437D02*
X0111040Y0026437D01*
X0111638Y0025839D02*
X0113781Y0025839D01*
X0114380Y0025240D02*
X0112237Y0025240D01*
X0112584Y0027036D02*
X0110441Y0027036D01*
X0109843Y0027634D02*
X0111986Y0027634D01*
X0111387Y0028233D02*
X0109244Y0028233D01*
X0108646Y0028832D02*
X0110789Y0028832D01*
X0110190Y0029430D02*
X0108047Y0029430D01*
X0107449Y0030029D02*
X0109592Y0030029D01*
X0108993Y0030627D02*
X0106850Y0030627D01*
X0106252Y0031226D02*
X0108395Y0031226D01*
X0107796Y0031824D02*
X0105653Y0031824D01*
X0105055Y0032423D02*
X0107198Y0032423D01*
X0103611Y0035415D02*
X0102628Y0035415D01*
X0102208Y0034817D02*
X0102209Y0034817D01*
X0101610Y0034218D02*
X0101610Y0034218D01*
X0101012Y0033620D02*
X0101011Y0033620D01*
X0100413Y0033021D02*
X0100413Y0033021D01*
X0100128Y0032736D02*
X0097538Y0030146D01*
X0097852Y0029832D01*
X0096188Y0028168D01*
X0093507Y0027274D01*
X0091039Y0029742D01*
X0090762Y0029742D01*
X0092050Y0031030D01*
X0092050Y0029368D01*
X0093368Y0028050D01*
X0095232Y0028050D01*
X0096550Y0029368D01*
X0096550Y0031232D01*
X0095793Y0031989D01*
X0096027Y0032223D01*
X0096740Y0031510D01*
X0096740Y0031312D01*
X0096829Y0030981D01*
X0097000Y0030685D01*
X0097538Y0030146D01*
X0100128Y0032736D01*
X0100128Y0032736D01*
X0099815Y0032423D02*
X0099814Y0032423D01*
X0099216Y0031824D02*
X0099216Y0031824D01*
X0098618Y0031226D02*
X0098617Y0031226D01*
X0098019Y0030627D02*
X0098019Y0030627D01*
X0097656Y0030029D02*
X0096550Y0030029D01*
X0096550Y0030627D02*
X0097057Y0030627D01*
X0096763Y0031226D02*
X0096550Y0031226D01*
X0096426Y0031824D02*
X0095958Y0031824D01*
X0096550Y0029430D02*
X0097450Y0029430D01*
X0096852Y0028832D02*
X0096013Y0028832D01*
X0096253Y0028233D02*
X0095415Y0028233D01*
X0094587Y0027634D02*
X0093147Y0027634D01*
X0093185Y0028233D02*
X0092548Y0028233D01*
X0092586Y0028832D02*
X0091950Y0028832D01*
X0092050Y0029430D02*
X0091351Y0029430D01*
X0091049Y0030029D02*
X0092050Y0030029D01*
X0092050Y0030627D02*
X0091647Y0030627D01*
X0100220Y0025240D02*
X0103010Y0025240D01*
X0103608Y0024642D02*
X0099622Y0024642D01*
X0099023Y0024043D02*
X0104207Y0024043D01*
X0104805Y0023445D02*
X0098425Y0023445D01*
X0100819Y0025839D02*
X0102411Y0025839D01*
X0101813Y0026437D02*
X0101417Y0026437D01*
X0110038Y0021051D02*
X0113050Y0021051D01*
X0113050Y0021649D02*
X0110636Y0021649D01*
X0111235Y0022248D02*
X0113066Y0022248D01*
X0113664Y0022846D02*
X0111833Y0022846D01*
X0112432Y0023445D02*
X0114263Y0023445D01*
X0113050Y0020452D02*
X0109439Y0020452D01*
X0110527Y0019255D02*
X0111731Y0019255D01*
X0111447Y0018657D02*
X0111125Y0018657D01*
X0113564Y0019854D02*
X0096834Y0019854D01*
X0092275Y0019255D02*
X0090853Y0019255D01*
X0090638Y0018657D02*
X0091677Y0018657D01*
X0091078Y0018058D02*
X0090073Y0018058D01*
X0090480Y0017460D02*
X0089474Y0017460D01*
X0089881Y0016861D02*
X0088876Y0016861D01*
X0088873Y0016861D02*
X0088025Y0016861D01*
X0088275Y0017460D02*
X0087427Y0017460D01*
X0087676Y0018058D02*
X0086828Y0018058D01*
X0087078Y0018657D02*
X0086230Y0018657D01*
X0088277Y0016263D02*
X0089283Y0016263D01*
X0088684Y0015664D02*
X0087679Y0015664D01*
X0088086Y0015066D02*
X0087080Y0015066D01*
X0081795Y0018058D02*
X0059439Y0018058D01*
X0064701Y0018657D02*
X0065899Y0018657D01*
X0065581Y0019255D02*
X0065019Y0019255D01*
X0065019Y0019854D02*
X0065581Y0019854D01*
X0065581Y0020452D02*
X0065019Y0020452D01*
X0065019Y0021051D02*
X0065581Y0021051D01*
X0065581Y0021649D02*
X0065019Y0021649D01*
X0065019Y0022248D02*
X0065581Y0022248D01*
X0065581Y0022846D02*
X0065019Y0022846D01*
X0065019Y0023445D02*
X0065581Y0023445D01*
X0065581Y0024043D02*
X0065019Y0024043D01*
X0065019Y0024642D02*
X0065581Y0024642D01*
X0065581Y0025240D02*
X0065019Y0025240D01*
X0064805Y0025839D02*
X0065795Y0025839D01*
X0072499Y0020452D02*
X0080556Y0020452D01*
X0080458Y0019854D02*
X0072499Y0019854D01*
X0072499Y0019255D02*
X0080648Y0019255D01*
X0081196Y0018657D02*
X0072182Y0018657D01*
X0065627Y0012672D02*
X0064973Y0012672D01*
X0065019Y0012073D02*
X0065581Y0012073D01*
X0065581Y0011475D02*
X0065019Y0011475D01*
X0065019Y0010876D02*
X0065581Y0010876D01*
X0065581Y0010278D02*
X0065019Y0010278D01*
X0065019Y0009679D02*
X0065581Y0009679D01*
X0065581Y0009081D02*
X0065019Y0009081D01*
X0065019Y0008482D02*
X0065581Y0008482D01*
X0065581Y0007884D02*
X0065019Y0007884D01*
X0065019Y0007285D02*
X0065581Y0007285D01*
X0065581Y0006687D02*
X0065019Y0006687D01*
X0065019Y0006088D02*
X0065581Y0006088D01*
X0066066Y0005490D02*
X0064534Y0005490D01*
X0059272Y0004891D02*
X0195201Y0004891D01*
X0195201Y0004293D02*
X0058674Y0004293D01*
X0055132Y0003694D02*
X0195201Y0003694D01*
X0195201Y0023445D02*
X0181846Y0023445D01*
X0182445Y0024043D02*
X0195201Y0024043D01*
X0195201Y0024642D02*
X0182736Y0024642D01*
X0182984Y0025240D02*
X0195201Y0025240D01*
X0195201Y0025839D02*
X0183105Y0025839D01*
X0183105Y0026437D02*
X0195201Y0026437D01*
X0195201Y0027036D02*
X0183105Y0027036D01*
X0182870Y0027634D02*
X0195201Y0027634D01*
X0195201Y0028233D02*
X0182622Y0028233D01*
X0182170Y0028832D02*
X0195201Y0028832D01*
X0195201Y0029430D02*
X0181571Y0029430D01*
X0180319Y0030029D02*
X0195201Y0030029D01*
X0195201Y0051575D02*
X0138005Y0051575D01*
X0137406Y0052173D02*
X0139549Y0052173D01*
X0138951Y0052772D02*
X0136808Y0052772D01*
X0136700Y0053370D02*
X0138352Y0053370D01*
X0137754Y0053969D02*
X0136949Y0053969D01*
X0141161Y0052173D02*
X0195201Y0052173D01*
X0118647Y0030627D02*
X0112953Y0030627D01*
X0113551Y0030029D02*
X0118049Y0030029D01*
X0088151Y0022846D02*
X0087922Y0022846D01*
X0087553Y0023445D02*
X0087323Y0023445D01*
X0086954Y0024043D02*
X0086725Y0024043D01*
X0086356Y0024642D02*
X0086090Y0024642D01*
X0072499Y0007884D02*
X0111447Y0007884D01*
X0111447Y0007285D02*
X0072499Y0007285D01*
X0072499Y0006687D02*
X0111447Y0006687D01*
X0111447Y0006088D02*
X0072499Y0006088D01*
X0072014Y0005490D02*
X0111586Y0005490D01*
X0049704Y0003694D02*
X0044896Y0003694D01*
X0045031Y0004293D02*
X0049569Y0004293D01*
X0049569Y0004891D02*
X0045031Y0004891D01*
X0045031Y0005490D02*
X0049569Y0005490D01*
X0049569Y0006088D02*
X0045031Y0006088D01*
X0045031Y0006687D02*
X0049569Y0006687D01*
X0049569Y0007285D02*
X0045253Y0007285D01*
X0045431Y0007884D02*
X0046029Y0007884D01*
X0041882Y0009000D02*
X0041882Y0009600D01*
X0038933Y0009600D01*
X0038933Y0010829D01*
X0039022Y0011160D01*
X0039193Y0011456D01*
X0039333Y0011597D01*
X0039333Y0012800D01*
X0030679Y0012800D01*
X0028766Y0014713D01*
X0028519Y0014118D01*
X0027435Y0013034D01*
X0026906Y0012815D01*
X0033921Y0005800D01*
X0039333Y0005800D01*
X0039333Y0007003D01*
X0039193Y0007144D01*
X0039022Y0007440D01*
X0038933Y0007771D01*
X0038933Y0009000D01*
X0041882Y0009000D01*
X0041882Y0009081D02*
X0030641Y0009081D01*
X0030042Y0009679D02*
X0038933Y0009679D01*
X0038933Y0010278D02*
X0029444Y0010278D01*
X0028845Y0010876D02*
X0038946Y0010876D01*
X0039211Y0011475D02*
X0028247Y0011475D01*
X0027648Y0012073D02*
X0039333Y0012073D01*
X0039333Y0012672D02*
X0027050Y0012672D01*
X0027672Y0013270D02*
X0030208Y0013270D01*
X0029610Y0013869D02*
X0028270Y0013869D01*
X0028664Y0014467D02*
X0029011Y0014467D01*
X0030860Y0016861D02*
X0031617Y0016861D01*
X0031459Y0016263D02*
X0032216Y0016263D01*
X0028026Y0020452D02*
X0003100Y0020452D01*
X0003100Y0019854D02*
X0017859Y0019854D01*
X0016854Y0019255D02*
X0003100Y0019255D01*
X0003100Y0018657D02*
X0016255Y0018657D01*
X0015905Y0018058D02*
X0003100Y0018058D01*
X0003100Y0017460D02*
X0015657Y0017460D01*
X0015494Y0016861D02*
X0003100Y0016861D01*
X0003100Y0016263D02*
X0015494Y0016263D01*
X0015494Y0015664D02*
X0003100Y0015664D01*
X0003100Y0015066D02*
X0015688Y0015066D01*
X0015936Y0014467D02*
X0003100Y0014467D01*
X0003100Y0013869D02*
X0016330Y0013869D01*
X0016928Y0013270D02*
X0003100Y0013270D01*
X0003100Y0012672D02*
X0018039Y0012672D01*
X0023405Y0012073D02*
X0003100Y0012073D01*
X0003100Y0011475D02*
X0024004Y0011475D01*
X0024602Y0010876D02*
X0003100Y0010876D01*
X0003100Y0010278D02*
X0025201Y0010278D01*
X0025800Y0009679D02*
X0003100Y0009679D01*
X0003100Y0009081D02*
X0026398Y0009081D01*
X0026997Y0008482D02*
X0003100Y0008482D01*
X0003100Y0007884D02*
X0027595Y0007884D01*
X0028194Y0007285D02*
X0003100Y0007285D01*
X0003100Y0006687D02*
X0028792Y0006687D01*
X0029391Y0006088D02*
X0003100Y0006088D01*
X0003100Y0005490D02*
X0029989Y0005490D01*
X0030588Y0004891D02*
X0003100Y0004891D01*
X0003100Y0004293D02*
X0031186Y0004293D01*
X0031785Y0003694D02*
X0003100Y0003694D01*
X0031239Y0008482D02*
X0038933Y0008482D01*
X0038933Y0007884D02*
X0031838Y0007884D01*
X0032436Y0007285D02*
X0039111Y0007285D01*
X0039333Y0006687D02*
X0033035Y0006687D01*
X0033633Y0006088D02*
X0039333Y0006088D01*
X0110475Y0101850D02*
X0110966Y0101850D01*
X0114311Y0101850D02*
X0114802Y0101850D01*
X0106044Y0107437D02*
X0106044Y0107437D01*
D23*
X0087300Y0105300D03*
X0079300Y0095300D03*
X0064300Y0090300D03*
X0058300Y0100300D03*
X0046300Y0097300D03*
X0044300Y0094300D03*
X0032300Y0095300D03*
X0032300Y0099300D03*
X0027300Y0099300D03*
X0022300Y0099300D03*
X0032300Y0090300D03*
X0030300Y0085300D03*
X0037300Y0075300D03*
X0037300Y0071300D03*
X0037300Y0062300D03*
X0033300Y0060300D03*
X0037300Y0050300D03*
X0037300Y0046300D03*
X0037300Y0037300D03*
X0037300Y0034300D03*
X0037300Y0024300D03*
X0037300Y0020300D03*
X0037300Y0011300D03*
X0037300Y0007300D03*
X0081300Y0015300D03*
X0094300Y0030300D03*
X0109300Y0017300D03*
X0115300Y0021300D03*
X0120300Y0017300D03*
X0124300Y0020300D03*
X0139300Y0009300D03*
X0149300Y0019300D03*
X0169300Y0041300D03*
X0167300Y0046300D03*
X0169300Y0051300D03*
X0158300Y0062300D03*
X0138300Y0071300D03*
X0135300Y0068300D03*
X0126300Y0061300D03*
X0106300Y0062300D03*
X0100300Y0073300D03*
X0092300Y0082300D03*
X0078300Y0079300D03*
X0075300Y0074300D03*
X0075300Y0062300D03*
X0095300Y0095300D03*
X0138300Y0086300D03*
X0151300Y0076300D03*
D24*
X0144864Y0083040D02*
X0158300Y0083040D01*
X0173560Y0083040D01*
X0176300Y0080300D01*
X0176300Y0090300D02*
X0174040Y0092560D01*
X0158300Y0092560D01*
X0151600Y0092560D01*
X0127688Y0068648D01*
X0129080Y0067256D02*
X0144864Y0083040D01*
X0135300Y0068300D02*
X0132908Y0068300D01*
X0130472Y0065864D01*
X0134648Y0061688D02*
X0139615Y0066655D01*
X0141655Y0066655D01*
X0141655Y0060655D02*
X0147655Y0060655D01*
X0141655Y0060655D02*
X0138512Y0057512D01*
X0138824Y0057512D01*
X0138512Y0057512D02*
X0135300Y0054300D01*
X0135300Y0052300D01*
X0138300Y0049300D01*
X0138300Y0048300D01*
X0130300Y0040300D01*
X0130300Y0038476D01*
X0133256Y0035520D01*
X0139655Y0029121D01*
X0139655Y0028945D01*
X0138967Y0028945D01*
X0129655Y0019633D01*
X0129655Y0018945D01*
X0129655Y0019633D02*
X0123512Y0025776D01*
X0119989Y0029300D01*
X0119300Y0029300D01*
X0116300Y0026300D01*
X0115300Y0026300D01*
X0107300Y0034300D01*
X0104476Y0034300D01*
X0101520Y0031344D01*
X0101344Y0031344D01*
X0096945Y0026945D01*
X0090945Y0024945D01*
X0096300Y0023300D02*
X0096300Y0021300D01*
X0084300Y0009300D01*
X0069040Y0009300D01*
X0069040Y0022300D02*
X0081340Y0022300D01*
X0095952Y0036912D01*
X0097344Y0035520D02*
X0094300Y0032476D01*
X0094300Y0030300D01*
X0096300Y0023300D02*
X0102912Y0029912D01*
X0102912Y0029952D01*
X0093168Y0039696D02*
X0088773Y0035300D01*
X0069040Y0035300D01*
X0069040Y0048300D02*
X0087040Y0066300D01*
X0094124Y0066300D01*
X0097344Y0063080D01*
X0100128Y0065864D02*
X0091337Y0074655D01*
X0091945Y0073655D01*
X0100300Y0073300D02*
X0100300Y0071260D01*
X0102912Y0068648D01*
X0101520Y0067256D02*
X0106300Y0062476D01*
X0106300Y0062300D01*
X0075300Y0062300D02*
X0074300Y0061300D01*
X0069040Y0061300D01*
X0069040Y0074300D02*
X0075300Y0074300D01*
X0122121Y0024384D02*
X0124300Y0022205D01*
X0124300Y0020300D01*
X0120729Y0022992D02*
X0120300Y0022564D01*
X0120300Y0017300D01*
X0115300Y0016040D02*
X0115300Y0021300D01*
X0110560Y0016040D02*
X0109300Y0017300D01*
X0110560Y0016040D02*
X0115300Y0016040D01*
D25*
X0064300Y0086190D02*
X0064190Y0086300D01*
M02*
