%
M48
M72
T01C0.01300
T02C0.03937
%
T01
X37300Y7300
X37300Y11300
X37300Y20300
X37300Y24300
X37300Y34300
X37300Y37300
X37300Y46300
X37300Y50300
X33300Y60300
X37300Y62300
X37300Y71300
X37300Y75300
X30300Y85300
X32300Y90300
X32300Y95300
X32300Y99300
X27300Y99300
X22300Y99300
X44300Y94300
X46300Y97300
X58300Y100300
X64300Y90300
X79300Y95300
X95300Y95300
X87300Y105300
X92300Y82300
X78300Y79300
X75300Y74300
X75300Y62300
X100300Y73300
X106300Y62300
X126300Y61300
X135300Y68300
X138300Y71300
X151300Y76300
X138300Y86300
X158300Y62300
X169300Y51300
X167300Y46300
X169300Y41300
X149300Y19300
X139300Y9300
X124300Y20300
X120300Y17300
X115300Y21300
X109300Y17300
X94300Y30300
X81300Y15300
T02
X22300Y16300
X22300Y26300
X22300Y36300
X22300Y46300
X22300Y56300
X22300Y66300
X22300Y80300
X22300Y90300
X176300Y90300
X176300Y80300
X176300Y66300
X176300Y56300
X176300Y46300
X176300Y36300
X176300Y26300
X176300Y16300
M30
